SplineFontDB: 3.2
FontName: ExtraCalories
FullName: ExtraCalories
FamilyName: ExtraCalories
Weight: Regular
Copyright: No Copyright (Cc) 2020 Met Sender / Mehmet PINARCI
UComments: "Type set is named '' Extra Calories '' Have Fun ! "
Version: 001.000
ItalicAngle: 0
UnderlinePosition: -102
UnderlineWidth: 51
Ascent: 819
Descent: 205
InvalidEm: 0
LayerCount: 2
Layer: 0 1 "Back" 1
Layer: 1 1 "Fore" 0
XUID: [1021 66 1585159542 1819]
FSType: 0
OS2Version: 0
OS2_WeightWidthSlopeOnly: 0
OS2_UseTypoMetrics: 1
CreationTime: 1582664074
ModificationTime: 1582685362
PfmFamily: 17
TTFWeight: 200
TTFWidth: 5
LineGap: 94
VLineGap: 0
OS2TypoAscent: 0
OS2TypoAOffset: 1
OS2TypoDescent: 0
OS2TypoDOffset: 1
OS2TypoLinegap: 94
OS2WinAscent: 0
OS2WinAOffset: 1
OS2WinDescent: 0
OS2WinDOffset: 1
HheadAscent: 0
HheadAOffset: 1
HheadDescent: 0
HheadDOffset: 1
OS2Vendor: 'PfEd'
MarkAttachClasses: 1
DEI: 91125
LangName: 1033
Encoding: ISO8859-1
UnicodeInterp: none
NameList: AGL For New Fonts
DisplaySize: -48
AntiAlias: 1
FitToEm: 0
WinInfo: 0 38 14
BeginPrivate: 0
EndPrivate
TeXData: 1 0 1024 460800 524288 349525 851444 1048576 349525 783286 444596 497025 792723 393216 433062 380633 303038 157286 324010 404750 52429 2506097 1059062 262144
BeginChars: 262 105

StartChar: A
Encoding: 65 65 0
Width: 1024
VWidth: 0
Flags: W
LayerCount: 2
Fore
SplineSet
102 758 m 17,0,-1
 513 806 l 1,1,-1
 986 797 l 1,2,-1
 1022 659 l 1,3,-1
 1016 340 l 1,4,-1
 792 633 l 1,5,-1
 646 618 l 1,6,-1
 630 524 l 1,7,-1
 785 606 l 1,8,-1
 1042 276 l 1,9,-1
 1042 49 l 1,10,-1
 779 59 l 1,11,-1
 685 262 l 1,12,-1
 716 289 l 1,13,-1
 724 408 l 1,14,-1
 585 408 l 1,15,-1
 759 43 l 1,16,-1
 746 0 l 1,17,-1
 16 2 l 1,18,-1
 -37 78 l 1,19,-1
 -25 100 l 1,20,-1
 47 123 l 1,21,-1
 55 293 l 1,22,-1
 23 332 l 1,23,-1
 82 426 l 1,24,-1
 374 418 l 1,25,-1
 601 522 l 1,26,-1
 611 627 l 1,27,-1
 366 451 l 1,28,-1
 33 457 l 1,29,-1
 -6 526 l 1,30,-1
 102 758 l 17,0,-1
607.322009291 503.997280276 m 1,31,-1
 381.913819228 400.726567648 l 1,32,-1
 377.896671746 398.886112414 l 1,33,-1
 373.479647309 399.007126782 l 1,34,-1
 238.479647309 402.705756919 l 1,35,-1
 92.3249714058 406.709994615 l 1,36,-1
 46.3620727696 333.480969669 l 1,37,-1
 69.6883940392 305.052015622 l 1,38,-1
 74.3224058948 299.404313673 l 1,39,-1
 73.9789968155 292.106870738 l 1,40,-1
 65.9789968155 122.106870738 l 1,41,-1
 65.35837228 108.91859936 l 1,42,-1
 52.7816170832 104.901024783 l 1,43,-1
 -11.9657944669 84.2178238712 l 1,44,-1
 -14.6897255113 79.2239502899 l 1,45,-1
 25.9327465318 20.9728583036 l 1,46,-1
 731.906556798 19.038683481 l 1,47,-1
 738.685308858 41.460709524 l 1,48,-1
 691.888729865 139.625947067 l 1,49,-1
 567.849125904 399.823966869 l 1,50,-1
 554.893975864 427 l 1,51,-1
 585 427 l 1,52,-1
 724 427 l 1,53,-1
 744.320197344 427 l 1,54,-1
 742.957210165 406.725565703 l 1,55,-1
 734.957210165 287.725565703 l 1,56,-1
 734.428029757 279.854007141 l 1,57,-1
 728.478834151 274.672449678 l 1,58,-1
 708.234675602 257.040440619 l 1,59,-1
 748.608984556 169.849113836 l 1,60,-1
 791.351206841 77.5441018794 l 1,61,-1
 1023 68.736162976 l 1,62,-1
 1023 269.474272408 l 1,63,-1
 868.382854513 468.009906691 l 1,64,-1
 779.800216976 581.754149442 l 1,65,-1
 638.884887949 507.205394731 l 1,66,-1
 604.798674478 489.17268825 l 1,67,-1
 607.322009291 503.997280276 l 1,31,-1
630.900131115 635.548657166 m 1,68,-1
 644.058166766 636.900510144 l 1,69,-1
 790.058166766 651.900510144 l 1,70,-1
 800.636001367 652.987273973 l 1,71,-1
 807.094260957 644.539639776 l 1,72,-1
 925.789913131 489.281487602 l 1,73,-1
 998.027219622 394.792510808 l 1,74,-1
 1002.95410278 656.738465298 l 1,75,-1
 971.248333382 778.277247985 l 1,76,-1
 513.925499041 786.978950964 l 1,77,-1
 114.745848422 740.359429724 l 1,78,-1
 15.3494622952 526.841266933 l 1,79,-1
 44.1981303263 475.801315801 l 1,80,-1
 236.342286785 472.339258928 l 1,81,-1
 360.03675629 470.110529748 l 1,82,-1
 599.91480885 642.431089954 l 1,83,-1
 633.879314404 666.830081699 l 1,84,-1
 630.900131115 635.548657166 l 1,68,-1
EndSplineSet
EndChar

StartChar: B
Encoding: 66 66 1
Width: 1024
VWidth: 0
Flags: W
LayerCount: 2
Fore
SplineSet
102 797 m 1,0,-1
 332 823 l 1,1,-1
 353 684 l 1,2,-1
 775 453 l 1,3,-1
 775 532 l 1,4,-1
 368 735 l 1,5,-1
 373 823 l 1,6,-1
 946 772 l 1,7,-1
 1032 629 l 1,8,-1
 1004 412 l 1,9,-1
 860 430 l 1,10,-1
 773 344 l 1,11,-1
 648 338 l 1,12,-1
 509 135 l 1,13,-1
 579 135 l 1,14,-1
 859 403 l 1,15,-1
 1049 387 l 1,16,-1
 1042 152 l 1,17,-1
 728 0 l 1,18,-1
 644 27 l 1,19,-1
 39 0 l 1,20,-1
 -8 281 l 1,21,-1
 20 289 l 1,22,-1
 55 436 l 1,23,-1
 6 455 l 1,24,-1
 0 649 l 1,25,-1
 102 797 l 1,0,-1
112.733511273 779.092339958 m 1,26,-1
 19.1837210974 643.353428723 l 1,27,-1
 24.6019081337 468.165381216 l 1,28,-1
 61.8690292353 453.71486487 l 1,29,-1
 77.3222664844 447.722793284 l 1,30,-1
 73.483318079 431.599209981 l 1,31,-1
 38.483318079 284.599209981 l 1,32,-1
 35.9085034218 273.784988421 l 1,33,-1
 25.2197014301 270.731044995 l 1,34,-1
 13.5396907446 267.393899085 l 1,35,-1
 54.9636774938 19.7313400095 l 1,36,-1
 643.152909258 45.9811073774 l 1,37,-1
 646.563736965 46.1333261346 l 1,38,-1
 649.814174428 45.0885426644 l 1,39,-1
 726.570223093 20.4169555934 l 1,40,-1
 1023.3514548 164.081755655 l 1,41,-1
 1029.47259461 369.577163677 l 1,42,-1
 865.946080862 383.347817466 l 1,43,-1
 592.137681656 121.274063941 l 1,44,-1
 586.627465599 116 l 1,45,-1
 579 116 l 1,46,-1
 509 116 l 1,47,-1
 472.962854093 116 l 1,48,-1
 493.3229515 145.734530746 l 1,49,-1
 632.3229515 348.734530746 l 1,50,-1
 637.657614107 356.525440884 l 1,51,-1
 647.089048812 356.97814975 l 1,52,-1
 764.819079261 362.629191212 l 1,53,-1
 846.642853429 443.512462229 l 1,54,-1
 853.203253556 449.997455458 l 1,55,-1
 862.356659957 448.853279658 l 1,56,-1
 987.57804646 433.200606345 l 1,57,-1
 1012.31009241 624.873962419 l 1,58,-1
 934.695331541 753.931064786 l 1,59,-1
 390.8565286 802.335565572 l 1,60,-1
 387.992132425 751.922192889 l 1,61,-1
 387.679322169 746.416732391 l 1,62,-1
 783.480344169 549.002463433 l 1,63,-1
 794 543.755558927 l 1,64,-1
 794 532 l 1,65,-1
 794 453 l 1,66,-1
 794 420.939196936 l 1,67,-1
 765.876915879 436.333586585 l 1,68,-1
 343.876915879 667.333586585 l 1,69,-1
 335.619443516 671.853672167 l 1,70,-1
 334.213193869 681.161705549 l 1,71,-1
 322.813193869 756.618848406 l 1,72,-1
 315.947328729 802.064336714 l 1,73,-1
 112.733511273 779.092339958 l 1,26,-1
EndSplineSet
EndChar

StartChar: C
Encoding: 67 67 2
Width: 1026
VWidth: 0
Flags: W
LayerCount: 2
Fore
SplineSet
-11 810 m 25,0,-1
 78 809 l 1,1,-1
 102 723 l 1,2,-1
 163 723 l 1,3,-1
 196 811 l 1,4,-1
 798 813 l 1,5,-1
 1061 623 l 1,6,-1
 1027 477 l 1,7,-1
 873 397 l 1,8,-1
 820 438 l 1,9,-1
 499 424 l 1,10,-1
 456 479 l 1,11,-1
 261 479 l 1,12,-1
 265 408 l 1,13,-1
 298 369 l 1,14,-1
 335 371 l 1,15,-1
 366 401 l 1,16,-1
 798 412 l 1,17,-1
 1037 213 l 1,18,-1
 845 8 l 1,19,-1
 185 8 l 1,20,-1
 -36 223 l 1,21,-1
 -11 810 l 25,0,-1
7.19926452001 790.794314576 m 1,22,-1
 -16.6553338921 230.68834386 l 1,23,-1
 192.717335843 27 l 1,24,-1
 836.76309619 27 l 1,25,-1
 1009.36364612 211.287045502 l 1,26,-1
 791.336644029 392.824172768 l 1,27,-1
 686.483639535 390.154304598 l 1,28,-1
 373.889450525 382.194730341 l 1,29,-1
 348.213007123 357.346559306 l 1,30,-1
 343.112709701 352.410787608 l 1,31,-1
 336.025529902 352.027696808 l 1,32,-1
 299.025529902 350.027696808 l 1,33,-1
 289.595686763 349.517975557 l 1,34,-1
 283.495660578 356.727097412 l 1,35,-1
 250.495660578 395.727097412 l 1,36,-1
 246.387795233 400.581847366 l 1,37,-1
 246.030081159 406.931272178 l 1,38,-1
 242.030081159 477.931272178 l 1,39,-1
 240.899448605 498 l 1,40,-1
 261 498 l 1,41,-1
 456 498 l 1,42,-1
 465.263031552 498 l 1,43,-1
 470.96833616 490.702517362 l 1,44,-1
 507.943940064 443.408140275 l 1,45,-1
 690.172126562 451.355787038 l 1,46,-1
 819.172126562 456.981955262 l 1,47,-1
 826.122723544 457.285096563 l 1,48,-1
 831.625570848 453.02817695 l 1,49,-1
 875.019086263 419.459608422 l 1,50,-1
 1010.47904136 489.828416263 l 1,51,-1
 1039.6285755 614.999945218 l 1,52,-1
 791.883090468 793.979573186 l 1,53,-1
 209.183394069 792.043693796 l 1,54,-1
 180.790254374 716.32865461 l 1,55,-1
 176.167008895 704 l 1,56,-1
 163 704 l 1,57,-1
 102 704 l 1,58,-1
 87.5763362128 704 l 1,59,-1
 83.6992702747 717.892819612 l 1,60,-1
 63.531302633 790.161370328 l 1,61,-1
 7.19926452001 790.794314576 l 1,22,-1
EndSplineSet
EndChar

StartChar: D
Encoding: 68 68 3
Width: 1026
VWidth: 0
Flags: W
LayerCount: 2
Fore
SplineSet
63 806 m 1,0,-1
 153 805 l 1,1,-1
 177 719 l 1,2,-1
 200 719 l 1,3,-1
 232 807 l 1,4,-1
 798 813 l 1,5,-1
 1055 621 l 1,6,-1
 1005 240 l 1,7,-1
 845 8 l 1,8,-1
 185 8 l 1,9,-1
 -19 221 l 1,10,-1
 -6 545 l 1,11,-1
 318 449 l 1,12,-1
 339 242 l 1,13,-1
 372 203 l 1,14,-1
 443 217 l 1,15,-1
 476 379 l 1,16,-1
 390 608 l 1,17,-1
 331 569 l 1,18,-1
 323 479 l 1,19,-1
 0 571 l 1,20,-1
 63 806 l 1,0,-1
77.5336926683 786.837341723 m 1,21,-1
 23.1959139381 584.148802015 l 1,22,-1
 161.401770684 544.783666347 l 1,23,-1
 306.108801781 503.566803001 l 1,24,-1
 312.074619827 570.682256015 l 1,25,-1
 312.885229873 579.801619034 l 1,26,-1
 320.522772739 584.850164318 l 1,27,-1
 379.522772739 623.850164318 l 1,28,-1
 399.40706853 636.994020858 l 1,29,-1
 407.787060307 614.679856709 l 1,30,-1
 493.787060307 385.679856709 l 1,31,-1
 495.708617545 380.56315197 l 1,32,-1
 494.617654425 375.207514839 l 1,33,-1
 461.617654425 213.207514839 l 1,34,-1
 459.091654886 200.807153463 l 1,35,-1
 446.675702466 198.358937493 l 1,36,-1
 375.675702466 184.358937493 l 1,37,-1
 364.713171578 182.197311684 l 1,38,-1
 357.495660578 190.727097412 l 1,39,-1
 324.495660578 229.727097412 l 1,40,-1
 320.691449412 234.222983335 l 1,41,-1
 320.097025281 240.082306913 l 1,42,-1
 300.383302773 434.403285922 l 1,43,-1
 151.083033902 478.640402624 l 1,44,-1
 12.0061177936 519.848377767 l 1,45,-1
 0.308541583709 228.308786074 l 1,46,-1
 193.111322612 27 l 1,47,-1
 835.023145923 27 l 1,48,-1
 986.757705243 247.015111015 l 1,49,-1
 1034.71357566 612.438843625 l 1,50,-1
 791.776145057 793.932955207 l 1,51,-1
 245.359227015 788.140549715 l 1,52,-1
 217.856075046 712.506881801 l 1,53,-1
 213.308118028 700 l 1,54,-1
 200 700 l 1,55,-1
 177 700 l 1,56,-1
 162.576336213 700 l 1,57,-1
 158.699270275 713.892819612 l 1,58,-1
 138.531800874 786.159584965 l 1,59,-1
 77.5336926683 786.837341723 l 1,21,-1
EndSplineSet
EndChar

StartChar: E
Encoding: 69 69 4
Width: 1026
VWidth: 0
Flags: W
LayerCount: 2
Fore
SplineSet
-8 814 m 25,0,-1
 81 813 l 1,1,-1
 105 727 l 1,2,-1
 128 727 l 1,3,-1
 161 815 l 1,4,-1
 798 813 l 1,5,-1
 1050 621 l 1,6,-1
 1022 578 l 1,7,-1
 903 496 l 1,8,-1
 826 541 l 1,9,-1
 505 526 l 1,10,-1
 462 582 l 1,11,-1
 267 582 l 1,12,-1
 321 496 l 1,13,-1
 757 510 l 1,14,-1
 852 446 l 1,15,-1
 624 315 l 1,16,-1
 298 313 l 1,17,-1
 337 242 l 1,18,-1
 374 285 l 1,19,-1
 656 287 l 1,20,-1
 804 379 l 1,21,-1
 1020 311 l 1,22,-1
 1026 211 l 1,23,-1
 868 4 l 1,24,-1
 151 12 l 1,25,-1
 -33 227 l 1,26,-1
 -8 814 l 25,0,-1
10.19926452 794.794314576 m 1,27,-1
 -13.6987767013 233.6683067 l 1,28,-1
 159.830900761 30.9026509696 l 1,29,-1
 858.680385713 23.1051671766 l 1,30,-1
 1006.61104718 216.913059097 l 1,31,-1
 1001.8175417 296.804817077 l 1,32,-1
 806.618929534 358.256232018 l 1,33,-1
 774.053736807 338.013004107 l 1,34,-1
 666.030748301 270.86357882 l 1,35,-1
 661.485942971 268.03842956 l 1,36,-1
 656.134748384 268.000477825 l 1,37,-1
 498.134748384 266.879910449 l 1,38,-1
 382.769874055 266.061719851 l 1,39,-1
 351.402206602 229.607403622 l 1,40,-1
 333.535241102 208.843092365 l 1,41,-1
 320.346948058 232.852548933 l 1,42,-1
 281.346948058 303.852548933 l 1,43,-1
 265.993335382 331.803997651 l 1,44,-1
 297.883437776 331.999642451 l 1,45,-1
 504.883437776 333.269581101 l 1,46,-1
 618.876194483 333.968923167 l 1,47,-1
 735.496311436 400.97434124 l 1,48,-1
 816.091801907 447.281399361 l 1,49,-1
 751.474885696 490.812795545 l 1,50,-1
 635.609777466 487.09235629 l 1,51,-1
 321.609777466 477.009787483 l 1,52,-1
 310.708845878 476.65975757 l 1,53,-1
 304.909090212 485.896405482 l 1,54,-1
 250.909090212 571.896405482 l 1,55,-1
 232.634740165 601 l 1,56,-1
 267 601 l 1,57,-1
 462 601 l 1,58,-1
 471.365823504 601 l 1,59,-1
 477.069854064 593.571495085 l 1,60,-1
 514.026038756 545.44251037 l 1,61,-1
 625.113117302 550.633495349 l 1,62,-1
 825.113117302 559.979289741 l 1,63,-1
 830.731095141 560.24181207 l 1,64,-1
 835.586792367 557.404066938 l 1,65,-1
 902.161898535 518.49653736 l 1,66,-1
 1008.12711043 591.514582531 l 1,67,-1
 1024.44929916 616.580800939 l 1,68,-1
 791.560185609 794.020125548 l 1,69,-1
 174.151489292 795.958614391 l 1,70,-1
 145.790254374 720.32865461 l 1,71,-1
 141.167008895 708 l 1,72,-1
 128 708 l 1,73,-1
 105 708 l 1,74,-1
 90.5763362128 708 l 1,75,-1
 86.6992702747 721.892819612 l 1,76,-1
 66.531302633 794.161370328 l 1,77,-1
 10.19926452 794.794314576 l 1,27,-1
EndSplineSet
EndChar

StartChar: F
Encoding: 70 70 5
Width: 1026
VWidth: 0
Flags: W
LayerCount: 2
Fore
SplineSet
14 788 m 25,0,-1
 232 780 l 1,1,-1
 253 752 l 1,2,-1
 271 788 l 1,3,-1
 979 788 l 1,4,-1
 1043 649 l 1,5,-1
 1026 379 l 1,6,-1
 838 379 l 1,7,-1
 685 559 l 1,8,-1
 296 575 l 1,9,-1
 286 545 l 1,10,-1
 285 402 l 1,11,-1
 314 399 l 1,12,-1
 318 520 l 1,13,-1
 667 522 l 1,14,-1
 815 354 l 1,15,-1
 815 201 l 1,16,-1
 587 205 l 1,17,-1
 587 182 l 1,18,-1
 694 182 l 1,19,-1
 689 0 l 1,20,-1
 52 14 l 1,21,-1
 -20 66 l 1,22,-1
 -31 516 l 1,23,-1
 14 788 l 25,0,-1
30.0155348166 768.39948472 m 1,24,-1
 -11.9618075868 514.669770638 l 1,25,-1
 -1.23596581106 75.8853343587 l 1,26,-1
 58.330003966 32.8654672975 l 1,27,-1
 670.526089794 19.4106082683 l 1,28,-1
 674.470853303 163 l 1,29,-1
 587 163 l 1,30,-1
 568 163 l 1,31,-1
 568 182 l 1,32,-1
 568 205 l 1,33,-1
 568 224.336257085 l 1,34,-1
 587.333282047 223.997076698 l 1,35,-1
 796 220.336257085 l 1,36,-1
 796 346.824568928 l 1,37,-1
 721.765600623 431.090643897 l 1,38,-1
 658.460269291 502.950749733 l 1,39,-1
 336.38575254 501.105050497 l 1,40,-1
 332.989626697 398.372243746 l 1,41,-1
 332.316290282 378.003817212 l 1,42,-1
 312.044916129 380.100855917 l 1,43,-1
 283.044916129 383.100855917 l 1,44,-1
 265.879791089 384.876558508 l 1,45,-1
 266.000464553 402.132863884 l 1,46,-1
 267.000464553 545.132863884 l 1,47,-1
 267.021548877 548.147922174 l 1,48,-1
 267.975017337 551.008327554 l 1,49,-1
 277.975017337 581.008327554 l 1,50,-1
 282.496073626 594.571496422 l 1,51,-1
 296.780830789 593.983948569 l 1,52,-1
 685.780830789 577.983948569 l 1,53,-1
 694.09053185 577.642161379 l 1,54,-1
 699.476847037 571.305319982 l 1,55,-1
 766.900575851 491.983286084 l 1,56,-1
 846.786369022 398 l 1,57,-1
 1008.15867237 398 l 1,58,-1
 1023.73626304 645.408792946 l 1,59,-1
 966.830959068 769 l 1,60,-1
 282.742645786 769 l 1,61,-1
 269.994116629 743.502941686 l 1,62,-1
 256.245587472 716.005883371 l 1,63,-1
 237.8 740.6 l 1,64,-1
 222.240995469 761.345339375 l 1,65,-1
 30.0155348166 768.39948472 l 1,24,-1
EndSplineSet
EndChar

StartChar: G
Encoding: 71 71 6
Width: 1026
VWidth: 0
Flags: W
LayerCount: 2
Fore
SplineSet
2 810 m 25,0,-1
 91 809 l 1,1,-1
 116 723 l 1,2,-1
 138 723 l 1,3,-1
 171 811 l 1,4,-1
 821 825 l 1,5,-1
 1050 637 l 1,6,-1
 1016 492 l 1,7,-1
 969 465 l 1,8,-1
 920 494 l 1,9,-1
 554 487 l 1,10,-1
 476 379 l 1,11,-1
 577 281 l 1,12,-1
 770 295 l 1,13,-1
 728 342 l 1,14,-1
 599 342 l 1,15,-1
 624 399 l 1,16,-1
 911 414 l 1,17,-1
 1026 227 l 1,18,-1
 868 20 l 1,19,-1
 161 8 l 1,20,-1
 -23 223 l 1,21,-1
 2 810 l 25,0,-1
20.19926452 790.794314576 m 1,22,-1
 -3.69877670128 229.6683067 l 1,23,-1
 169.620032856 27.1490455322 l 1,24,-1
 858.478852374 38.8411329922 l 1,25,-1
 1002.98211233 228.158695084 l 1,26,-1
 900.725360566 394.43706534 l 1,27,-1
 636.693421156 380.637486625 l 1,28,-1
 628.080488426 361 l 1,29,-1
 728 361 l 1,30,-1
 736.502191973 361 l 1,31,-1
 742.167465912 354.660288687 l 1,32,-1
 784.167465912 307.660288687 l 1,33,-1
 809.916767142 278.845594454 l 1,34,-1
 771.374626523 276.049791507 l 1,35,-1
 578.374626523 262.049791507 l 1,36,-1
 569.880871303 261.433664185 l 1,37,-1
 563.769012679 267.363982454 l 1,38,-1
 462.769012679 365.363982454 l 1,39,-1
 450.977657297 376.805099558 l 1,40,-1
 460.59709466 390.124320523 l 1,41,-1
 538.59709466 498.124320523 l 1,42,-1
 544.151558445 505.815116532 l 1,43,-1
 553.636678466 505.996525931 l 1,44,-1
 919.636678466 512.996525931 l 1,45,-1
 925.032623384 513.099727064 l 1,46,-1
 929.677096984 510.350956974 l 1,47,-1
 969.142533624 486.99386182 l 1,48,-1
 999.38448223 504.366896126 l 1,49,-1
 1028.80124132 629.820721653 l 1,50,-1
 814.378961358 805.852986424 l 1,51,-1
 184.272557853 792.281463887 l 1,52,-1
 155.790254374 716.32865461 l 1,53,-1
 151.167008895 704 l 1,54,-1
 138 704 l 1,55,-1
 116 704 l 1,56,-1
 101.736736292 704 l 1,57,-1
 97.7552551573 717.696295104 l 1,58,-1
 76.6903457904 790.159583326 l 1,59,-1
 20.19926452 790.794314576 l 1,22,-1
EndSplineSet
EndChar

StartChar: H
Encoding: 72 72 7
Width: 1024
VWidth: 0
Flags: W
LayerCount: 2
Fore
SplineSet
-24 736 m 25,0,-1
 83 809 l 1,1,-1
 439 805 l 1,2,-1
 490 412 l 1,3,-1
 452 412 l 1,4,-1
 447 385 l 1,5,-1
 574 397 l 1,6,-1
 577 442 l 1,7,-1
 525 446 l 1,8,-1
 474 717 l 1,9,-1
 538 793 l 1,10,-1
 935 788 l 1,11,-1
 1035 692 l 1,12,-1
 1066 126 l 1,13,-1
 933 18 l 1,14,-1
 624 20 l 1,15,-1
 523 262 l 1,16,-1
 523 336 l 1,17,-1
 382 332 l 1,18,-1
 384 291 l 1,19,-1
 480 297 l 1,20,-1
 482 254 l 1,21,-1
 476 18 l 1,22,-1
 48 14 l 1,23,-1
 -7 74 l 1,24,-1
 -24 736 l 25,0,-1
-4.7405084999 726.1390132 m 1,25,-1
 11.8111830347 81.5966722645 l 1,26,-1
 56.2863827472 33.0782725781 l 1,27,-1
 457.472530239 36.8276758257 l 1,28,-1
 462.988770825 253.799805516 l 1,29,-1
 461.917470212 276.832768682 l 1,30,-1
 385.185187437 272.037001009 l 1,31,-1
 365.961042379 270.835491943 l 1,32,-1
 365.022565329 290.074271479 l 1,33,-1
 363.022565329 331.074271479 l 1,34,-1
 362.07777494 350.442474448 l 1,35,-1
 381.46120967 350.992359121 l 1,36,-1
 484.46120967 353.914344937 l 1,37,-1
 522.46120967 354.992359121 l 1,38,-1
 542 355.546651045 l 1,39,-1
 542 336 l 1,40,-1
 542 265.805796761 l 1,41,-1
 636.692738824 38.9182443314 l 1,42,-1
 926.311062688 37.0436920734 l 1,43,-1
 1046.49834191 134.639377453 l 1,44,-1
 1016.43809591 683.481288284 l 1,45,-1
 927.256079905 769.096023646 l 1,46,-1
 546.745462634 773.8883488 l 1,47,-1
 494.339233004 711.655951115 l 1,48,-1
 513.257681886 611.128507057 l 1,49,-1
 540.978628802 463.827004815 l 1,50,-1
 578.457233479 460.944035225 l 1,51,-1
 597.208948453 459.501595611 l 1,52,-1
 595.957917999 440.7361388 l 1,53,-1
 592.957917999 395.7361388 l 1,54,-1
 591.882512648 379.605058535 l 1,55,-1
 575.787314731 378.084252432 l 1,56,-1
 448.787314731 366.084252432 l 1,57,-1
 423.735692662 363.717170032 l 1,58,-1
 428.317641905 388.459695943 l 1,59,-1
 430.354678942 399.459695943 l 1,60,-1
 433.317641905 415.459695943 l 1,61,-1
 436.19547599 431 l 1,62,-1
 452 431 l 1,63,-1
 468.37503424 431 l 1,64,-1
 447.074658792 595.138187273 l 1,65,-1
 422.282111214 786.186642141 l 1,66,-1
 88.7672126875 789.934000552 l 1,67,-1
 -4.7405084999 726.1390132 l 1,25,-1
EndSplineSet
EndChar

StartChar: I
Encoding: 73 73 8
Width: 1024
VWidth: 0
Flags: W
LayerCount: 2
Fore
SplineSet
-18 782 m 25,0,-1
 474 813 l 1,1,-1
 1033 844 l 1,2,-1
 1010 666 l 1,3,-1
 977 631 l 1,4,-1
 817 639 l 1,5,-1
 821 596 l 1,6,-1
 892 592 l 1,7,-1
 902 207 l 1,8,-1
 758 203 l 1,9,-1
 764 176 l 1,10,-1
 1024 180 l 1,11,-1
 1022 102 l 1,12,-1
 948 23 l 1,13,-1
 -20 -12 l 1,14,-1
 -18 39 l 1,15,-1
 174 37 l 1,16,-1
 178 74 l 1,17,-1
 145 96 l 1,18,-1
 125 72 l 1,19,-1
 39 80 l 1,20,-1
 45 459 l 1,21,-1
 152 457 l 1,22,-1
 197 481 l 1,23,-1
 195 528 l 1,24,-1
 152 528 l 1,25,-1
 119 496 l 1,26,-1
 -12 518 l 1,27,-1
 -18 782 l 25,0,-1
1.40978601748 764.185296448 m 1,28,-1
 6.63817924999 534.135994218 l 1,29,-1
 112.671088445 516.328940765 l 1,30,-1
 138.773229115 541.640107476 l 1,31,-1
 144.30061828 547 l 1,32,-1
 152 547 l 1,33,-1
 195 547 l 1,34,-1
 213.208683935 547 l 1,35,-1
 213.982820973 528.807779616 l 1,36,-1
 215.982820973 481.807779616 l 1,37,-1
 216.491154195 469.861948904 l 1,38,-1
 205.941176471 464.235294118 l 1,39,-1
 160.941176471 440.235294118 l 1,40,-1
 156.583152779 437.911014816 l 1,41,-1
 151.644921835 438.003318198 l 1,42,-1
 121.644921835 438.564065861 l 1,43,-1
 63.6960043729 439.647223197 l 1,44,-1
 58.2760837753 97.2889054512 l 1,45,-1
 114.75984401 92.0346021736 l 1,46,-1
 116.804540872 91.8443978144 l 1,47,-1
 130.403795688 108.163503594 l 1,48,-1
 141.333683559 121.279369039 l 1,49,-1
 155.539303728 111.808955592 l 1,50,-1
 188.539303728 89.8089555924 l 1,51,-1
 198.128658995 83.416052081 l 1,52,-1
 196.889933904 71.9578449834 l 1,53,-1
 192.889933904 34.9578449834 l 1,54,-1
 191.037355717 17.8214967566 l 1,55,-1
 173.80209407 18.0010307321 l 1,56,-1
 108.80209407 18.6781140654 l 1,57,-1
 0.262005720877 19.8087399857 l 1,58,-1
 -0.211752720516 7.72789973021 l 1,59,-1
 939.487149996 41.7046162541 l 1,60,-1
 1003.19153334 109.713349819 l 1,61,-1
 1004.49882523 160.697733539 l 1,62,-1
 764.292273106 157.002248122 l 1,63,-1
 748.811166756 156.764077255 l 1,64,-1
 745.452445857 171.878321301 l 1,65,-1
 739.452445857 198.878321301 l 1,66,-1
 734.45798747 221.353384041 l 1,67,-1
 757.472425722 221.992673992 l 1,68,-1
 882.513954249 225.466049785 l 1,69,-1
 873.460752014 574.014335816 l 1,70,-1
 819.931272178 577.030081159 l 1,71,-1
 803.597010359 577.950321261 l 1,72,-1
 802.081676896 594.24015599 l 1,73,-1
 798.081676896 637.24015599 l 1,74,-1
 796.050882939 659.071191028 l 1,75,-1
 817.948814722 657.976294439 l 1,76,-1
 969.191166084 650.414176871 l 1,77,-1
 991.946662954 674.548794763 l 1,78,-1
 1011.22719796 823.763370003 l 1,79,-1
 475.123433871 794.033107594 l 1,80,-1
 1.40978601748 764.185296448 l 1,28,-1
EndSplineSet
EndChar

StartChar: J
Encoding: 74 74 9
Width: 1024
VWidth: 0
Flags: W
LayerCount: 2
Fore
SplineSet
81 795 m 25,0,-1
 155 829 l 1,1,-1
 902 786 l 1,2,-1
 1035 680 l 1,3,-1
 1043 111 l 1,4,-1
 953 -2 l 1,5,-1
 108 43 l 1,6,-1
 -22 227 l 1,7,-1
 -22 408 l 1,8,-1
 390 383 l 1,9,-1
 703 174 l 1,10,-1
 753 199 l 1,11,-1
 759 528 l 1,12,-1
 722 535 l 1,13,-1
 718 240 l 1,14,-1
 425 451 l 1,15,-1
 153 498 l 1,16,-1
 81 555 l 1,17,-1
 81 795 l 25,0,-1
100 782.820206035 m 1,18,-1
 100 564.191610786 l 1,19,-1
 161.001186267 515.899004992 l 1,20,-1
 428.235146277 469.722548666 l 1,21,-1
 432.549924715 468.976980333 l 1,22,-1
 436.103175987 466.418154332 l 1,23,-1
 699.496410303 276.739067503 l 1,24,-1
 703.001746384 535.257603439 l 1,25,-1
 703.308399741 557.873288551 l 1,26,-1
 725.531941694 553.668834668 l 1,27,-1
 762.531941694 546.668834668 l 1,28,-1
 778.289257606 543.687720847 l 1,29,-1
 777.996841172 527.653553049 l 1,30,-1
 771.996841172 198.653553049 l 1,31,-1
 771.787066112 187.15088727 l 1,32,-1
 761.497058314 182.005883371 l 1,33,-1
 711.497058314 157.005883371 l 1,34,-1
 701.626617263 152.070662845 l 1,35,-1
 692.449049206 158.198815318 l 1,36,-1
 383.721392682 364.346036448 l 1,37,-1
 -3 387.812140373 l 1,38,-1
 -3 233.034827212 l 1,39,-1
 118.20476007 61.4834744975 l 1,40,-1
 944.235998155 17.4936452504 l 1,41,-1
 1023.90639279 117.524251845 l 1,42,-1
 1016.12825329 670.744424022 l 1,43,-1
 894.879959907 767.378402203 l 1,44,-1
 158.632470266 809.75944913 l 1,45,-1
 100 782.820206035 l 1,18,-1
EndSplineSet
EndChar

StartChar: K
Encoding: 75 75 10
Width: 1024
VWidth: 0
Flags: W
LayerCount: 2
Fore
SplineSet
39 842 m 1,0,-1
 521 815 l 1,1,-1
 544 745 l 1,2,-1
 325 569 l 1,3,-1
 366 565 l 1,4,-1
 689 817 l 1,5,-1
 1024 797 l 1,6,-1
 1034 510 l 1,7,-1
 883 385 l 1,8,-1
 511 485 l 1,9,-1
 482 420 l 1,10,-1
 325 475 l 1,11,-1
 316 444 l 1,12,-1
 495 375 l 1,13,-1
 540 440 l 1,14,-1
 1040 315 l 1,15,-1
 1040 145 l 1,16,-1
 918 2 l 1,17,-1
 577 12 l 1,18,-1
 521 68 l 1,19,-1
 304 358 l 1,20,-1
 278 346 l 1,21,-1
 478 49 l 1,22,-1
 472 14 l 1,23,-1
 63 37 l 1,24,-1
 -8 96 l 1,25,-1
 -12 319 l 1,26,-1
 41 379 l 1,27,-1
 49 481 l 1,28,-1
 -12 553 l 1,29,-1
 -22 707 l 1,30,-1
 39 842 l 1,0,-1
50.9485145678 822.300898554 m 1,31,-1
 -2.73260895271 703.498412074 l 1,32,-1
 6.55341300781 560.493673882 l 1,33,-1
 63.4966994637 493.281925934 l 1,34,-1
 68.5535053136 487.313237062 l 1,35,-1
 67.9418291784 479.514366339 l 1,36,-1
 59.9418291784 377.514366339 l 1,37,-1
 59.4451665072 371.181917281 l 1,38,-1
 55.2399910239 366.421341262 l 1,39,-1
 7.12939681179 311.956517626 l 1,40,-1
 10.8407690649 105.047514513 l 1,41,-1
 70.3235249154 55.6181821863 l 1,42,-1
 456.138039833 33.9220114207 l 1,43,-1
 457.986415503 44.7042028313 l 1,44,-1
 262.240196658 335.387337817 l 1,45,-1
 249.774502584 353.898893516 l 1,46,-1
 270.037894628 363.251228306 l 1,47,-1
 296.037894628 375.251228306 l 1,48,-1
 309.999818279 381.695193067 l 1,49,-1
 319.212580453 369.383206753 l 1,50,-1
 535.397283273 80.4727744123 l 1,51,-1
 585.099408899 30.7706487861 l 1,52,-1
 909.455402229 21.2587428233 l 1,53,-1
 1021 152.00364021 l 1,54,-1
 1021 300.165248278 l 1,55,-1
 702.382114386 379.819719682 l 1,56,-1
 548.141220473 418.37994316 l 1,57,-1
 510.621651641 364.185010402 l 1,58,-1
 502.113348916 351.895239799 l 1,59,-1
 488.16612578 357.27154369 l 1,60,-1
 309.16612578 426.27154369 l 1,61,-1
 292.889992983 432.545583706 l 1,62,-1
 297.753421692 449.297393702 l 1,63,-1
 306.753421692 480.297393702 l 1,64,-1
 312.347146262 499.564667221 l 1,65,-1
 331.281745281 492.931527437 l 1,66,-1
 471.774923865 443.714171882 l 1,67,-1
 493.648606264 492.741391052 l 1,68,-1
 500.260632209 507.561449205 l 1,69,-1
 515.932420157 503.348602982 l 1,70,-1
 725.605147429 446.984966619 l 1,71,-1
 878.448847024 405.897950598 l 1,72,-1
 1014.68613002 518.677158376 l 1,73,-1
 1005.6134221 779.063875714 l 1,74,-1
 695.030161187 797.606159947 l 1,75,-1
 377.687334201 550.019805766 l 1,76,-1
 371.705834628 545.353124985 l 1,77,-1
 364.155100679 546.089781955 l 1,78,-1
 323.155100679 550.089781955 l 1,79,-1
 276.770055586 554.615152208 l 1,80,-1
 313.097835174 583.810080096 l 1,81,-1
 521.84249714 751.568347247 l 1,82,-1
 506.995554279 796.754695085 l 1,83,-1
 50.9485145678 822.300898554 l 1,31,-1
EndSplineSet
EndChar

StartChar: L
Encoding: 76 76 11
Width: 1024
VWidth: 0
Flags: W
LayerCount: 2
Fore
SplineSet
94 821 m 25,0,-1
 390 795 l 1,1,-1
 624 782 l 1,2,-1
 660 717 l 1,3,-1
 536 129 l 1,4,-1
 497 125 l 1,5,-1
 493 106 l 1,6,-1
 605 104 l 1,7,-1
 663 317 l 1,8,-1
 597 334 l 1,9,-1
 640 502 l 1,10,-1
 877 539 l 1,11,-1
 1038 416 l 1,12,-1
 1024 86 l 1,13,-1
 981 41 l 1,14,-1
 472 0 l 1,15,-1
 72 35 l 1,16,-1
 -18 150 l 1,17,-1
 -16 702 l 1,18,-1
 94 821 l 25,0,-1
101.624227242 801.257148087 m 1,19,-1
 2.97307593887 694.53453895 l 1,20,-1
 1.02375008498 156.520603276 l 1,21,-1
 81.8767975989 53.2083758974 l 1,22,-1
 472.06579183 19.0668389021 l 1,23,-1
 972.262070823 59.3576983102 l 1,24,-1
 1005.32033293 93.9535540081 l 1,25,-1
 1018.59739392 406.91284861 l 1,26,-1
 871.9134376 518.975746914 l 1,27,-1
 655.30193302 485.158760967 l 1,28,-1
 635.291032518 406.976638078 l 1,29,-1
 620.110693054 347.667404821 l 1,30,-1
 667.739250485 335.399443058 l 1,31,-1
 686.393604905 330.594533586 l 1,32,-1
 681.332497343 312.008052367 l 1,33,-1
 623.332497343 99.0080523667 l 1,34,-1
 619.447024505 84.7389883243 l 1,35,-1
 604.660768368 85.0030286124 l 1,36,-1
 492.660768368 87.0030286124 l 1,37,-1
 469.670579047 87.4135677075 l 1,38,-1
 474.407554085 109.91419914 l 1,39,-1
 478.407554085 128.91419914 l 1,40,-1
 481.264733063 142.485799283 l 1,41,-1
 495.061451556 143.900847334 l 1,42,-1
 520.269698467 146.486308555 l 1,43,-1
 579.202230369 425.940572734 l 1,44,-1
 639.947420627 713.990345893 l 1,45,-1
 612.464913258 763.611539754 l 1,46,-1
 388.641425718 776.046177951 l 1,47,-1
 101.624227242 801.257148087 l 1,19,-1
EndSplineSet
EndChar

StartChar: M
Encoding: 77 77 12
Width: 1024
VWidth: 0
Flags: W
LayerCount: 2
Fore
SplineSet
-32 840 m 25,0,-1
 259 797 l 1,1,-1
 470 455 l 1,2,-1
 439 406 l 1,3,-1
 490 346 l 1,4,-1
 524 409 l 1,5,-1
 322 728 l 1,6,-1
 373 811 l 1,7,-1
 932 823 l 1,8,-1
 1051 698 l 1,9,-1
 924 223 l 1,10,-1
 946 219 l 1,11,-1
 1008 475 l 1,12,-1
 1053 475 l 1,13,-1
 1051 125 l 1,14,-1
 953 23 l 1,15,-1
 520 15 l 1,16,-1
 643 424 l 1,17,-1
 606 432 l 1,18,-1
 534 211 l 1,19,-1
 472 205 l 1,20,-1
 349 392 l 1,21,-1
 314 373 l 1,22,-1
 413 207 l 1,23,-1
 417 53 l 1,24,-1
 378 14 l 1,25,-1
 117 41 l 1,26,-1
 -23 141 l 1,27,-1
 -23 354 l 1,28,-1
 2 379 l 1,29,-1
 2 684 l 1,30,-1
 -32 717 l 1,31,-1
 -32 840 l 25,0,-1
-13 817.986128558 m 1,32,-1
 -13 725.036682008 l 1,33,-1
 15.2330321662 697.634033141 l 1,34,-1
 21 692.036682008 l 1,35,-1
 21 684 l 1,36,-1
 21 379 l 1,37,-1
 21 371.129942315 l 1,38,-1
 15.4350288425 365.564971157 l 1,39,-1
 -4 346.129942315 l 1,40,-1
 -4 150.777740011 l 1,41,-1
 123.954017839 59.3820129825 l 1,42,-1
 370.959648661 33.8297063458 l 1,43,-1
 397.794512169 60.664569854 l 1,44,-1
 394.135478744 201.537356708 l 1,45,-1
 297.681670702 363.267984334 l 1,46,-1
 287.548169384 380.259511796 l 1,47,-1
 304.935254605 389.698215202 l 1,48,-1
 339.935254605 408.698215202 l 1,49,-1
 355.279446891 417.027919586 l 1,50,-1
 364.873950192 402.441154404 l 1,51,-1
 481.576380092 225.015508947 l 1,52,-1
 519.787973915 228.713405124 l 1,53,-1
 587.934562363 437.885572443 l 1,54,-1
 593.248414593 454.196146649 l 1,55,-1
 610.015323058 450.570869143 l 1,56,-1
 633.015323058 445.59789617 l 1,57,-1
 647.015323058 442.570869143 l 1,58,-1
 667.118308242 438.224277752 l 1,59,-1
 661.195022094 418.52814739 l 1,60,-1
 545.698289863 34.478037774 l 1,61,-1
 944.763344854 41.8510641941 l 1,62,-1
 1032.04365457 132.693835534 l 1,63,-1
 1033.89111837 456 l 1,64,-1
 1022.94771824 456 l 1,65,-1
 964.46615253 214.527728684 l 1,66,-1
 960.245011624 197.098501717 l 1,67,-1
 942.601176674 200.306471708 l 1,68,-1
 920.601176674 204.306471708 l 1,69,-1
 900.320442497 207.993877922 l 1,70,-1
 905.644746944 227.907615028 l 1,71,-1
 1029.89295593 692.615483293 l 1,72,-1
 924.022103508 803.82436189 l 1,73,-1
 383.764797289 792.226709521 l 1,74,-1
 344.393156483 728.151294091 l 1,75,-1
 416.280437305 614.626330813 l 1,76,-1
 540.052320594 419.164792351 l 1,77,-1
 546.003828663 409.766123669 l 1,78,-1
 540.720421281 399.976280579 l 1,79,-1
 506.720421281 336.976280579 l 1,80,-1
 493.521730487 312.519882931 l 1,81,-1
 475.523152963 333.694680018 l 1,82,-1
 424.523152963 393.694680018 l 1,83,-1
 415.470076394 404.345358335 l 1,84,-1
 422.943502115 416.158192539 l 1,85,-1
 447.596882903 455.126439592 l 1,86,-1
 374.902185417 572.953863954 l 1,87,-1
 247.473584209 779.496904775 l 1,88,-1
 -13 817.986128558 l 1,32,-1
EndSplineSet
EndChar

StartChar: N
Encoding: 78 78 13
Width: 1024
VWidth: 0
Flags: W
LayerCount: 2
Fore
SplineSet
-28 776 m 25,0,-1
 14 807 l 1,1,-1
 474 434 l 1,2,-1
 452 399 l 1,3,-1
 699 225 l 1,4,-1
 726 268 l 1,5,-1
 327 612 l 1,6,-1
 289 803 l 1,7,-1
 679 809 l 1,8,-1
 1038 774 l 1,9,-1
 1044 600 l 1,10,-1
 1016 551 l 1,11,-1
 1036 80 l 1,12,-1
 989 33 l 1,13,-1
 643 0 l 1,14,-1
 644 102 l 1,15,-1
 337 352 l 1,16,-1
 327 340 l 1,17,-1
 519 170 l 1,18,-1
 485 -6 l 1,19,-1
 111 25 l 1,20,-1
 -6 96 l 1,21,-1
 -16 383 l 1,22,-1
 12 403 l 1,23,-1
 18 569 l 1,24,-1
 -28 610 l 1,25,-1
 -28 776 l 25,0,-1
-9 766.408830516 m 1,26,-1
 -9 618.516874744 l 1,27,-1
 30.6420399703 583.183752162 l 1,28,-1
 37.3102508984 577.240346769 l 1,29,-1
 36.9876010573 568.313701167 l 1,30,-1
 30.9876010573 402.313701167 l 1,31,-1
 30.6499575081 392.972229638 l 1,32,-1
 23.0435256807 387.539064047 l 1,33,-1
 3.34366464503 373.467734736 l 1,34,-1
 12.6310877305 106.918692182 l 1,35,-1
 117.030309449 43.5653183186 l 1,36,-1
 469.57868867 14.3433938377 l 1,37,-1
 498.288839342 162.960644378 l 1,38,-1
 314.404703021 325.774723412 l 1,39,-1
 300.599371241 337.998194258 l 1,40,-1
 312.403795688 352.163503594 l 1,41,-1
 322.403795688 364.163503594 l 1,42,-1
 334.430393327 378.59542076 l 1,43,-1
 348.997512751 366.732945659 l 1,44,-1
 655.997512751 116.732945659 l 1,45,-1
 663.08873986 110.958330749 l 1,46,-1
 662.999086955 101.813734442 l 1,47,-1
 662.205991586 20.91800671 l 1,48,-1
 980.395503643 51.2655613282 l 1,49,-1
 1016.66300313 87.5330608201 l 1,50,-1
 997.017106256 550.193932325 l 1,51,-1
 996.784626891 555.668821364 l 1,52,-1
 999.5033803 560.426639829 l 1,53,-1
 1024.82526136 604.739931684 l 1,54,-1
 1019.58507819 756.705243715 l 1,55,-1
 678.221860703 789.985780239 l 1,56,-1
 312.082283657 784.352863669 l 1,57,-1
 344.358877025 622.120512793 l 1,58,-1
 738.406566244 282.390174219 l 1,59,-1
 750.775015962 271.726648647 l 1,60,-1
 742.090909788 257.896405482 l 1,61,-1
 715.090909788 214.896405482 l 1,62,-1
 704.43688515 197.928884762 l 1,63,-1
 688.057838025 209.467160874 l 1,64,-1
 441.057838025 383.467160874 l 1,65,-1
 426.320459104 393.848958171 l 1,66,-1
 435.913905565 409.111259359 l 1,67,-1
 448.950152095 429.850742475 l 1,68,-1
 13.4535461395 782.981685999 l 1,69,-1
 -9 766.408830516 l 1,26,-1
EndSplineSet
EndChar

StartChar: O
Encoding: 79 79 14
Width: 1024
VWidth: 0
Flags: W
LayerCount: 2
Fore
SplineSet
-40 698 m 25,0,-1
 157 805 l 1,1,-1
 202 780 l 1,2,-1
 140 608 l 1,3,-1
 464 446 l 1,4,-1
 472 133 l 1,5,-1
 587 104 l 1,6,-1
 628 137 l 1,7,-1
 591 555 l 1,8,-1
 566 582 l 1,9,-1
 505 575 l 1,10,-1
 472 545 l 1,11,-1
 468 469 l 1,12,-1
 163 612 l 1,13,-1
 237 817 l 1,14,-1
 872 776 l 1,15,-1
 1026 614 l 1,16,-1
 1024 53 l 1,17,-1
 969 -2 l 1,18,-1
 73 31 l 1,19,-1
 -30 127 l 1,20,-1
 -40 698 l 25,0,-1
-20.8010470884 686.806150775 m 1,21,-1
 -11.1441738546 135.398689123 l 1,22,-1
 80.7749143145 49.7265292764 l 1,23,-1
 961.421927576 17.2919852612 l 1,24,-1
 1005.02803646 60.898094142 l 1,25,-1
 1006.97292269 606.438682588 l 1,26,-1
 863.353641592 757.518705562 l 1,27,-1
 250.023627454 797.119541121 l 1,28,-1
 186.754606904 621.847254462 l 1,29,-1
 232.79187918 600.262566149 l 1,30,-1
 450.509755282 498.185004567 l 1,31,-1
 453.026261243 545.998617829 l 1,32,-1
 453.436980451 553.802282792 l 1,33,-1
 459.219216914 559.058861395 l 1,34,-1
 492.219216914 589.058861395 l 1,35,-1
 496.750270919 593.178001399 l 1,36,-1
 502.833887713 593.876121359 l 1,37,-1
 563.833887713 600.876121359 l 1,38,-1
 573.399706785 601.973838302 l 1,39,-1
 579.941452806 594.908752598 l 1,40,-1
 604.941452806 567.908752598 l 1,41,-1
 609.35342458 563.143823083 l 1,42,-1
 609.926000035 556.675267946 l 1,43,-1
 646.926000035 138.675267946 l 1,44,-1
 647.821047718 128.563648166 l 1,45,-1
 639.913178699 122.19877798 l 1,46,-1
 598.913178699 89.19877798 l 1,47,-1
 591.536264772 83.261261892 l 1,48,-1
 582.35413814 85.5767546946 l 1,49,-1
 467.35413814 114.576754695 l 1,50,-1
 453.374573596 118.102036188 l 1,51,-1
 453.006203006 132.51453554 l 1,52,-1
 445.297731364 434.108488532 l 1,53,-1
 193.259847763 560.127430332 l 1,54,-1
 131.502941686 591.005883371 l 1,55,-1
 116.399625967 598.55754123 l 1,56,-1
 122.125790203 614.443029113 l 1,57,-1
 178.645457849 771.239526453 l 1,58,-1
 156.896685171 783.322177941 l 1,59,-1
 -20.8010470884 686.806150775 l 1,21,-1
EndSplineSet
EndChar

StartChar: P
Encoding: 80 80 15
Width: 1024
VWidth: 0
Flags: W
LayerCount: 2
Fore
SplineSet
-30 711 m 25,0,-1
 49 811 l 1,1,-1
 121 813 l 1,2,-1
 123 756 l 1,3,-1
 606 528 l 1,4,-1
 625 373 l 1,5,-1
 718 358 l 1,6,-1
 749 487 l 1,7,-1
 699 604 l 1,8,-1
 633 621 l 1,9,-1
 612 549 l 1,10,-1
 143 766 l 1,11,-1
 156 821 l 1,12,-1
 920 801 l 1,13,-1
 967 766 l 1,14,-1
 1047 418 l 1,15,-1
 1016 332 l 1,16,-1
 769 184 l 1,17,-1
 637 276 l 1,18,-1
 451 326 l 1,19,-1
 455 299 l 1,20,-1
 631 250 l 1,21,-1
 876 63 l 1,22,-1
 853 -12 l 1,23,-1
 8 23 l 1,24,-1
 -30 84 l 1,25,-1
 -6 104 l 1,26,-1
 2 317 l 1,27,-1
 20 334 l 1,28,-1
 23 383 l 1,29,-1
 -30 408 l 1,30,-1
 -30 711 l 25,0,-1
-11 704.400462546 m 1,31,-1
 -11 420.04540537 l 1,32,-1
 31.1057548385 400.184200258 l 1,33,-1
 42.7513520001 394.690994049 l 1,34,-1
 41.9644896377 381.838908798 l 1,35,-1
 38.9644896377 332.838908798 l 1,36,-1
 38.5055656889 325.343150966 l 1,37,-1
 33.0458471263 320.186750102 l 1,38,-1
 20.6949753867 308.522037903 l 1,39,-1
 12.9866129406 103.286887777 l 1,40,-1
 12.6687906091 94.8248682006 l 1,41,-1
 6.16350359363 89.4037956876 l 1,42,-1
 -5.1224014539 79.9988748147 l 1,43,-1
 18.8180139089 41.5682080481 l 1,44,-1
 839.134435363 7.59060479255 l 1,45,-1
 853.956385577 55.9230511412 l 1,46,-1
 622.380009253 232.677264907 l 1,47,-1
 449.904039751 280.69614278 l 1,48,-1
 438.013890824 284.006468333 l 1,49,-1
 436.205134215 296.215575439 l 1,50,-1
 432.205134215 323.215575439 l 1,51,-1
 427.960333369 351.867981151 l 1,52,-1
 455.932420157 344.348602982 l 1,53,-1
 641.932420157 294.348602982 l 1,54,-1
 645.139538725 293.486474335 l 1,55,-1
 647.864060572 291.587565169 l 1,56,-1
 769.779055347 206.616508204 l 1,57,-1
 1000.42308508 344.816169746 l 1,58,-1
 1027.23139903 419.187621354 l 1,59,-1
 950.048298737 754.934107651 l 1,60,-1
 913.482293618 782.164111463 l 1,61,-1
 170.938650092 801.602426738 l 1,62,-1
 165.059385612 776.728615474 l 1,63,-1
 353.666407232 689.462680097 l 1,64,-1
 599.941702649 575.514409083 l 1,65,-1
 614.76 626.32 l 1,66,-1
 619.913983265 643.990799766 l 1,67,-1
 637.739250485 639.399443058 l 1,68,-1
 703.739250485 622.399443058 l 1,69,-1
 712.79619041 620.066594895 l 1,70,-1
 716.471470175 611.466440246 l 1,71,-1
 766.471470175 494.466440246 l 1,72,-1
 768.944517955 488.67950844 l 1,73,-1
 767.474058006 482.560497688 l 1,74,-1
 736.474058006 353.560497688 l 1,75,-1
 732.359447408 336.438408425 l 1,76,-1
 714.974583662 339.242418706 l 1,77,-1
 621.974583662 354.242418706 l 1,78,-1
 607.878404956 356.515995917 l 1,79,-1
 606.14115833 370.688271021 l 1,80,-1
 588.415771699 515.290109328 l 1,81,-1
 322.018517678 641.042850356 l 1,82,-1
 114.889304195 738.818131255 l 1,83,-1
 104.417738192 743.761230735 l 1,84,-1
 104.011685118 755.333743337 l 1,85,-1
 102.673093991 793.483590444 l 1,86,-1
 58.4042150859 792.253899363 l 1,87,-1
 -11 704.400462546 l 1,31,-1
EndSplineSet
EndChar

StartChar: Q
Encoding: 81 81 16
Width: 1024
VWidth: 0
Flags: W
LayerCount: 2
Fore
SplineSet
119 834 m 1,0,-1
 841 793 l 1,1,-1
 863 758 l 1,2,-1
 598 514 l 1,3,-1
 542 287 l 1,4,-1
 652 125 l 1,5,-1
 669 135 l 1,6,-1
 591 283 l 1,7,-1
 624 371 l 1,8,-1
 779 354 l 1,9,-1
 884 202 l 1,10,-1
 912 240 l 1,11,-1
 726 612 l 1,12,-1
 906 778 l 1,13,-1
 1055 556 l 1,14,-1
 1007 201 l 1,15,-1
 914 137 l 1,16,-1
 986 -25 l 1,17,-1
 828 -25 l 1,18,-1
 722 55 l 1,19,-1
 587 2 l 1,20,-1
 62 43 l 1,21,-1
 -40 266 l 1,22,-1
 -40 709 l 1,23,-1
 119 834 l 1,0,-1
125.095147159 814.62326641 m 1,24,-1
 -21 699.768590971 l 1,25,-1
 -21 270.139077187 l 1,26,-1
 74.6272191716 61.0717254688 l 1,27,-1
 584.123521129 21.2824904588 l 1,28,-1
 715.056658345 72.6858702544 l 1,29,-1
 724.956575004 76.5725042022 l 1,30,-1
 733.445731212 70.1655938563 l 1,31,-1
 834.365143072 -6 l 1,32,-1
 956.763522418 -6 l 1,33,-1
 896.637580576 129.283369145 l 1,34,-1
 890.227944059 143.705051308 l 1,35,-1
 903.228810787 152.651884325 l 1,36,-1
 989.298568485 211.882685322 l 1,37,-1
 1035.20505268 551.399391338 l 1,38,-1
 902.580854717 749.000545348 l 1,39,-1
 803.798907722 657.901638674 l 1,40,-1
 749.383414836 607.718461901 l 1,41,-1
 928.994116629 248.497058314 l 1,42,-1
 934.195961349 238.093368874 l 1,43,-1
 927.29606091 228.729218277 l 1,44,-1
 899.29606091 190.729218277 l 1,45,-1
 883.501032095 169.293107743 l 1,46,-1
 868.367249117 191.201060245 l 1,47,-1
 768.300525364 336.059555583 l 1,48,-1
 636.605818102 350.503491218 l 1,49,-1
 611.784732016 284.313928322 l 1,50,-1
 685.808516458 143.858542458 l 1,51,-1
 694.262822694 127.817038318 l 1,52,-1
 678.633382405 118.623249912 l 1,53,-1
 661.633382405 108.623249912 l 1,54,-1
 646.284534941 99.5945161101 l 1,55,-1
 636.281181204 114.326727978 l 1,56,-1
 526.281181204 276.326727978 l 1,57,-1
 521.525235829 283.330938439 l 1,58,-1
 523.553041025 291.550791641 l 1,59,-1
 579.553041025 518.550791641 l 1,60,-1
 580.922872884 524.103502929 l 1,61,-1
 585.130213706 527.977431836 l 1,62,-1
 784.616324817 711.655209614 l 1,63,-1
 838.502246235 761.270925939 l 1,64,-1
 830.132442694 774.586522481 l 1,65,-1
 125.095147159 814.62326641 l 1,24,-1
EndSplineSet
EndChar

StartChar: R
Encoding: 82 82 17
Width: 1024
VWidth: 0
Flags: W
LayerCount: 2
Fore
SplineSet
-24 759 m 25,0,-1
 29 820 l 1,1,-1
 566 825 l 1,2,-1
 1004 705 l 1,3,-1
 1040 352 l 1,4,-1
 558 281 l 1,5,-1
 561 266 l 1,6,-1
 630 242 l 1,7,-1
 714 258 l 1,8,-1
 741 287 l 1,9,-1
 922 309 l 1,10,-1
 1032 260 l 1,11,-1
 995 0 l 1,12,-1
 469 22 l 1,13,-1
 495 59 l 1,14,-1
 409 410 l 1,15,-1
 743 463 l 1,16,-1
 750 441 l 1,17,-1
 784 449 l 1,18,-1
 737 517 l 1,19,-1
 477 480 l 1,20,-1
 484 449 l 1,21,-1
 379 425 l 1,22,-1
 415 268 l 1,23,-1
 339 238 l 1,24,-1
 442 36 l 1,25,-1
 410 1 l 1,26,-1
 16 12 l 1,27,-1
 -23 53 l 1,28,-1
 -39 375 l 1,29,-1
 -8 469 l 1,30,-1
 14 471 l 1,31,-1
 59 430 l 1,32,-1
 88 434 l 1,33,-1
 -12 527 l 1,34,-1
 -24 759 l 25,0,-1
-4.62936542782 752.325449363 m 1,35,-1
 6.57694599899 535.670095111 l 1,36,-1
 100.939240199 447.913161505 l 1,37,-1
 130.256043791 420.648534164 l 1,38,-1
 90.5961105456 415.178198544 l 1,39,-1
 61.5961105456 411.178198544 l 1,40,-1
 52.7812747343 409.962359122 l 1,41,-1
 46.2036900725 415.955269592 l 1,42,-1
 6.45613827899 452.16970567 l 1,43,-1
 -19.8478277677 372.409292496 l 1,44,-1
 -4.37336856661 60.9858010741 l 1,45,-1
 24.3648116152 30.7738680625 l 1,46,-1
 401.842179458 20.2351598232 l 1,47,-1
 419.091211214 39.1012883061 l 1,48,-1
 322.073448094 229.369134424 l 1,49,-1
 312.575586476 247.996008667 l 1,50,-1
 332.02383584 255.672949205 l 1,51,-1
 392.829768771 279.675291152 l 1,52,-1
 360.480621162 420.753518228 l 1,53,-1
 356.231201157 439.285711027 l 1,54,-1
 374.766328771 443.522311625 l 1,55,-1
 461.292653329 463.299757238 l 1,56,-1
 458.466620961 475.815043443 l 1,57,-1
 453.92943274 495.908305565 l 1,58,-1
 474.323123344 498.810484613 l 1,59,-1
 734.323123344 535.810484613 l 1,60,-1
 745.951587772 537.465304551 l 1,61,-1
 752.629921733 527.803034139 l 1,62,-1
 799.629921733 459.803034139 l 1,63,-1
 815.469782986 436.885788071 l 1,64,-1
 788.351747341 430.505073802 l 1,65,-1
 777.351747341 427.916838508 l 1,66,-1
 754.351747341 422.505073802 l 1,67,-1
 737.228137018 418.47598902 l 1,68,-1
 731.89441018 435.239130512 l 1,69,-1
 729.846613946 441.675061532 l 1,70,-1
 432.367011057 394.470214367 l 1,71,-1
 513.454153005 63.521530366 l 1,72,-1
 515.50820289 55.138140722 l 1,73,-1
 510.54564224 48.0760351825 l 1,74,-1
 504.540411819 39.5301303522 l 1,75,-1
 978.612325316 19.7020275063 l 1,76,-1
 1011.16910279 248.47938274 l 1,77,-1
 919.072318402 289.504313968 l 1,78,-1
 831.803508905 278.897055355 l 1,79,-1
 750.178925407 268.975835261 l 1,80,-1
 727.905985514 245.05304797 l 1,81,-1
 723.666625864 240.499661679 l 1,82,-1
 717.55513005 239.335567238 l 1,83,-1
 633.55513005 223.335567238 l 1,84,-1
 628.560415579 222.384193053 l 1,85,-1
 623.758108126 224.054560863 l 1,86,-1
 554.758108126 248.054560863 l 1,87,-1
 544.499146801 251.622895237 l 1,88,-1
 542.368967162 262.273793432 l 1,89,-1
 539.368967162 277.273793432 l 1,90,-1
 535.447140941 296.882924535 l 1,91,-1
 555.23112335 299.797162608 l 1,92,-1
 824.438515547 339.452193408 l 1,93,-1
 1019.25451115 368.149155417 l 1,94,-1
 986.419319987 690.116446583 l 1,95,-1
 563.531256577 805.976189982 l 1,96,-1
 37.7315592287 801.080475854 l 1,97,-1
 -4.62936542782 752.325449363 l 1,35,-1
EndSplineSet
EndChar

StartChar: S
Encoding: 83 83 18
Width: 1024
VWidth: 0
Flags: W
LayerCount: 2
Fore
SplineSet
441 283 m 1,0,-1
 359 359 l 1,1,-1
 487 420 l 1,2,-1
 822 289 l 1,3,-1
 828 317 l 1,4,-1
 473 455 l 1,5,-1
 333 383 l 1,6,-1
 113 383 l 1,7,-1
 -46 625 l 1,8,-1
 42 809 l 1,9,-1
 465 838 l 1,10,-1
 948 774 l 1,11,-1
 1034 743 l 1,12,-1
 1034 561 l 1,13,-1
 915 418 l 1,14,-1
 618 524 l 1,15,-1
 586 571 l 1,16,-1
 508 569 l 1,17,-1
 524 528 l 1,18,-1
 950 395 l 1,19,-1
 1075 162 l 1,20,-1
 618 -23 l 1,21,-1
 22 12 l 1,22,-1
 -52 266 l 1,23,-1
 36 356 l 1,24,-1
 298 354 l 1,25,-1
 383 283 l 1,26,-1
 441 283 l 1,0,-1
453.915528638 296.935175636 m 1,27,-1
 489.450849719 264 l 1,28,-1
 441 264 l 1,29,-1
 383 264 l 1,30,-1
 376.108626368 264 l 1,31,-1
 370.819630321 268.417867286 l 1,32,-1
 291.045735447 335.052532416 l 1,33,-1
 207.854966058 335.687576457 l 1,34,-1
 43.9356285145 336.93886911 l 1,35,-1
 -30.6529122265 260.655134262 l 1,36,-1
 36.4929089619 30.1816399121 l 1,37,-1
 614.839448677 -3.78166359461 l 1,38,-1
 1048.25101119 171.669406568 l 1,39,-1
 936.927226863 379.17694055 l 1,40,-1
 755.216547414 435.908209017 l 1,41,-1
 518.337623647 509.863365967 l 1,42,-1
 509.620085347 512.585038723 l 1,43,-1
 506.30002523 521.092692773 l 1,44,-1
 490.30002523 562.092692773 l 1,45,-1
 480.462962128 587.30016697 l 1,46,-1
 507.512980585 587.993757187 l 1,47,-1
 585.512980585 589.993757187 l 1,48,-1
 595.872964104 590.25939779 l 1,49,-1
 601.705385704 581.693028565 l 1,50,-1
 630.219723916 539.812594316 l 1,51,-1
 779.958003182 486.370649528 l 1,52,-1
 908.885699717 440.356050764 l 1,53,-1
 1015 567.871554466 l 1,54,-1
 1015 729.652140174 l 1,55,-1
 943.478918745 755.432995045 l 1,56,-1
 464.395850455 818.91398132 l 1,57,-1
 54.358084797 790.80264514 l 1,58,-1
 -24.2340984234 626.47353477 l 1,59,-1
 123.25057938 402 l 1,60,-1
 201 402 l 1,61,-1
 328.400588397 402 l 1,62,-1
 464.31038776 471.896468244 l 1,63,-1
 471.914390233 475.807098087 l 1,64,-1
 479.8840716 472.709024767 l 1,65,-1
 834.8840716 334.709024767 l 1,66,-1
 849.96950596 328.844827748 l 1,67,-1
 846.578245867 313.018947314 l 1,68,-1
 840.578245867 285.018947314 l 1,69,-1
 835.895313739 263.165264047 l 1,70,-1
 815.080395806 271.30482897 l 1,71,-1
 487.74482886 399.307692462 l 1,72,-1
 392.456752202 353.89696843 l 1,73,-1
 453.915528638 296.935175636 l 1,27,-1
EndSplineSet
EndChar

StartChar: T
Encoding: 84 84 19
Width: 1024
VWidth: 0
Flags: W
LayerCount: 2
Fore
SplineSet
-27 801 m 25,0,-1
 476 829 l 1,1,-1
 1015 793 l 1,2,-1
 1058 387 l 1,3,-1
 746 330 l 1,4,-1
 673 702 l 1,5,-1
 650 700 l 1,6,-1
 716 307 l 1,7,-1
 894 346 l 1,8,-1
 1011 242 l 1,9,-1
 984 41 l 1,10,-1
 525 -10 l 1,11,-1
 109 2 l 1,12,-1
 52 35 l 1,13,-1
 -22 274 l 1,14,-1
 -5 383 l 1,15,-1
 123 445 l 1,16,-1
 200 637 l 1,17,-1
 166 651 l 1,18,-1
 103 484 l 1,19,-1
 -5 483 l 1,20,-1
 -48 612 l 1,21,-1
 -27 801 l 25,0,-1
-9.89163812822 782.922939221 m 1,22,-1
 -28.655367236 614.049377251 l 1,23,-1
 8.65201783873 502.127222027 l 1,24,-1
 89.814887383 502.878730078 l 1,25,-1
 148.222903982 657.706329635 l 1,26,-1
 155.132598357 676.022503612 l 1,27,-1
 173.2342463 668.568883871 l 1,28,-1
 186.456468522 663.124439427 l 1,29,-1
 207.2342463 654.568883871 l 1,30,-1
 224.642183181 647.400909861 l 1,31,-1
 217.63471571 629.92774422 l 1,32,-1
 140.63471571 437.92774422 l 1,33,-1
 137.898469716 431.104897065 l 1,34,-1
 131.282640621 427.900354847 l 1,35,-1
 12.2394147296 370.238792306 l 1,36,-1
 -2.54915028497 275.417993095 l 1,37,-1
 67.9516989797 47.719304254 l 1,38,-1
 114.356459884 20.853390046 l 1,39,-1
 524.221041732 9.0303732619 l 1,40,-1
 967.145736216 58.2442282045 l 1,41,-1
 990.823679675 234.513362845 l 1,42,-1
 888.611468224 325.368661912 l 1,43,-1
 720.066459635 288.440261154 l 1,44,-1
 700.568279971 284.168188081 l 1,45,-1
 697.262395615 303.853226745 l 1,46,-1
 631.262395615 696.853226745 l 1,47,-1
 627.854449247 717.145998302 l 1,48,-1
 648.354037289 718.928571176 l 1,49,-1
 671.354037289 720.928571176 l 1,50,-1
 688.357747929 722.40715471 l 1,51,-1
 691.644404352 705.658713757 l 1,52,-1
 761.033217297 352.060927241 l 1,53,-1
 1037.24961508 402.523538375 l 1,54,-1
 997.788782718 775.107211391 l 1,55,-1
 475.894517847 809.964713311 l 1,56,-1
 -9.89163812822 782.922939221 l 1,22,-1
EndSplineSet
EndChar

StartChar: U
Encoding: 85 85 20
Width: 1024
VWidth: 0
Flags: W
LayerCount: 2
Fore
SplineSet
3 807 m 25,0,-1
 115 809 l 1,1,-1
 156 764 l 1,2,-1
 471 797 l 1,3,-1
 481 760 l 1,4,-1
 467 283 l 1,5,-1
 416 252 l 1,6,-1
 412 217 l 1,7,-1
 543 197 l 1,8,-1
 592 231 l 1,9,-1
 594 281 l 1,10,-1
 524 303 l 1,11,-1
 546 727 l 1,12,-1
 609 795 l 1,13,-1
 930 799 l 1,14,-1
 1049 700 l 1,15,-1
 1044 266 l 1,16,-1
 930 12 l 1,17,-1
 499 0 l 1,18,-1
 160 70 l 1,19,-1
 119 -20 l 1,20,-1
 0 49 l 1,21,-1
 -43 709 l 1,22,-1
 3 807 l 25,0,-1
15.1712088565 788.21431392 m 1,23,-1
 -23.7222037688 705.354434849 l 1,24,-1
 18.3007089442 60.3515885557 l 1,25,-1
 110.398670997 6.95024921394 l 1,26,-1
 142.709622276 77.8767276299 l 1,27,-1
 148.994730775 91.6733072621 l 1,28,-1
 163.842246035 88.6074486539 l 1,29,-1
 500.679113732 19.0541131411 l 1,30,-1
 917.549351206 30.6607090801 l 1,31,-1
 1025.04681047 270.172591998 l 1,32,-1
 1029.89709059 691.17690636 l 1,33,-1
 923.233068812 779.914201786 l 1,34,-1
 617.393628538 776.103118418 l 1,35,-1
 564.617654982 719.138575532 l 1,36,-1
 543.737092397 316.713187545 l 1,37,-1
 599.696705338 299.125880621 l 1,38,-1
 613.565873888 294.766999077 l 1,39,-1
 612.984818216 280.240607271 l 1,40,-1
 610.984818216 230.240607271 l 1,41,-1
 610.606583832 220.784747682 l 1,42,-1
 602.831549416 215.389825842 l 1,43,-1
 553.831549416 181.389825842 l 1,44,-1
 547.613772987 177.075450361 l 1,45,-1
 540.132463364 178.217635036 l 1,46,-1
 409.132463364 198.217635036 l 1,47,-1
 391.045352452 200.979026015 l 1,48,-1
 393.12287922 219.157385232 l 1,49,-1
 397.12287922 254.157385232 l 1,50,-1
 398.179471587 263.402568448 l 1,51,-1
 406.131109343 268.235916888 l 1,52,-1
 448.310990847 293.87466839 l 1,53,-1
 461.925841196 757.752069569 l 1,54,-1
 456.881287495 776.416918261 l 1,55,-1
 157.97964249 745.103412594 l 1,56,-1
 148.425263163 744.102477616 l 1,57,-1
 141.955269592 751.203690073 l 1,58,-1
 106.744594526 789.84955295 l 1,59,-1
 15.1712088565 788.21431392 l 1,23,-1
EndSplineSet
EndChar

StartChar: V
Encoding: 86 86 21
Width: 1024
VWidth: 0
Flags: W
LayerCount: 2
Fore
SplineSet
83 803 m 25,0,-1
 148 817 l 1,1,-1
 445 764 l 1,2,-1
 540 526 l 1,3,-1
 439 186 l 1,4,-1
 462 154 l 1,5,-1
 509 154 l 1,6,-1
 574 346 l 1,7,-1
 538 383 l 1,8,-1
 654 805 l 1,9,-1
 1007 801 l 1,10,-1
 1054 643 l 1,11,-1
 997 233 l 1,12,-1
 514 -31 l 1,13,-1
 494 -29 l 1,14,-1
 -10 244 l 1,15,-1
 -27 664 l 1,16,-1
 83 803 l 25,0,-1
93.6671606953 785.861828212 m 1,17,-1
 -7.73072818363 657.731768629 l 1,18,-1
 8.54758466824 255.561686406 l 1,19,-1
 499.691013784 -10.4743376982 l 1,20,-1
 510.043538072 -11.5095901271 l 1,21,-1
 979.497569519 245.086402216 l 1,22,-1
 1034.61339755 641.53358632 l 1,23,-1
 992.781520582 782.159896138 l 1,24,-1
 668.43669669 785.835191593 l 1,25,-1
 581.006956173 467.771825228 l 1,26,-1
 559.203707358 388.453109713 l 1,27,-1
 587.617792687 359.249744236 l 1,28,-1
 595.724254379 350.918103053 l 1,29,-1
 591.996665465 339.907378879 l 1,30,-1
 526.996665465 147.907378879 l 1,31,-1
 522.626979907 135 l 1,32,-1
 509 135 l 1,33,-1
 462 135 l 1,34,-1
 452.257678162 135 l 1,35,-1
 446.571707944 142.910915085 l 1,36,-1
 423.571707944 174.910915085 l 1,37,-1
 418.133075241 182.477708412 l 1,38,-1
 420.786623246 191.410444271 l 1,39,-1
 509.518261664 490.111009243 l 1,40,-1
 519.907566482 525.084906651 l 1,41,-1
 431.268004409 747.150335845 l 1,42,-1
 148.344202184 797.638421764 l 1,43,-1
 93.6671606953 785.861828212 l 1,17,-1
EndSplineSet
EndChar

StartChar: W
Encoding: 87 87 22
Width: 1024
VWidth: 0
Flags: W
LayerCount: 2
Fore
SplineSet
-25 596 m 25,0,-1
 199 805 l 1,1,-1
 554 815 l 1,2,-1
 544 547 l 1,3,-1
 450 537 l 1,4,-1
 323 186 l 1,5,-1
 349 186 l 1,6,-1
 470 477 l 1,7,-1
 540 465 l 1,8,-1
 648 256 l 1,9,-1
 667 274 l 1,10,-1
 589 530 l 1,11,-1
 626 809 l 1,12,-1
 935 846 l 1,13,-1
 1080 543 l 1,14,-1
 1024 53 l 1,15,-1
 571 -20 l 1,16,-1
 463 197 l 1,17,-1
 301 -20 l 1,18,-1
 49 39 l 1,19,-1
 -23 524 l 1,20,-1
 -25 596 l 25,0,-1
-5.76925458958 587.957003229 m 1,21,-1
 -4.0389143587 525.664754917 l 1,22,-1
 65.8986778221 54.5573631439 l 1,23,-1
 293.217517715 1.33588872452 l 1,24,-1
 447.774778878 208.36629411 l 1,25,-1
 466.249599149 233.113429905 l 1,26,-1
 480.009764907 205.465689447 l 1,27,-1
 581.780279625 0.982340430923 l 1,28,-1
 1006.75822317 69.4666447992 l 1,29,-1
 1060.50236066 539.72784784 l 1,30,-1
 923.739109506 825.515883011 l 1,31,-1
 642.89695446 791.887534348 l 1,32,-1
 608.377420403 531.591588353 l 1,33,-1
 685.175083214 279.537720667 l 1,34,-1
 688.601493089 268.292067743 l 1,35,-1
 680.06714831 260.206899006 l 1,36,-1
 661.06714831 242.206899006 l 1,37,-1
 642.721700652 224.827001224 l 1,38,-1
 631.120456732 247.277556589 l 1,39,-1
 527.464073456 447.871853854 l 1,40,-1
 481.725651387 455.712726209 l 1,41,-1
 366.543807842 178.705152066 l 1,42,-1
 361.676717121 167 l 1,43,-1
 349 167 l 1,44,-1
 323 167 l 1,45,-1
 295.91989329 167 l 1,46,-1
 305.133544629 192.464500946 l 1,47,-1
 432.133544629 543.464500946 l 1,48,-1
 436.175856095 554.63655862 l 1,49,-1
 447.990064963 555.89338935 l 1,50,-1
 525.62680083 564.15261657 l 1,51,-1
 534.256789635 795.436316537 l 1,52,-1
 206.712110919 786.209705869 l 1,53,-1
 -5.76925458958 587.957003229 l 1,21,-1
EndSplineSet
EndChar

StartChar: X
Encoding: 88 88 23
Width: 1024
VWidth: 0
Flags: W
LayerCount: 2
Fore
SplineSet
24 817 m 1,0,-1
 261 856 l 1,1,-1
 379 815 l 1,2,-1
 422 676 l 1,3,-1
 522 437 l 1,4,-1
 560 436 l 1,5,-1
 519 496 l 1,6,-1
 437 723 l 1,7,-1
 609 834 l 1,8,-1
 930 793 l 1,9,-1
 1057 643 l 1,10,-1
 1048 381 l 1,11,-1
 658 328 l 1,12,-1
 665 301 l 1,13,-1
 948 332 l 1,14,-1
 1039 238 l 1,15,-1
 1046 23 l 1,16,-1
 951 -12 l 1,17,-1
 646 -25 l 1,18,-1
 519 330 l 1,19,-1
 493 332 l 1,20,-1
 447 270 l 1,21,-1
 527 240 l 1,22,-1
 593 31 l 1,23,-1
 564 -20 l 1,24,-1
 100 14 l 1,25,-1
 -5 162 l 1,26,-1
 19 307 l 1,27,-1
 391 389 l 1,28,-1
 395 414 l 1,29,-1
 362 432 l 1,30,-1
 114 381 l 1,31,-1
 5 500 l 1,32,-1
 -20 737 l 1,33,-1
 24 817 l 1,0,-1
36.1975676093 799.751662562 m 1,34,-1
 -0.479596266493 733.065910061 l 1,35,-1
 23.2385558051 508.217828422 l 1,36,-1
 120.730484647 401.781685925 l 1,37,-1
 358.172829373 450.610555204 l 1,38,-1
 364.989045123 452.012276991 l 1,39,-1
 371.098190483 448.680015885 l 1,40,-1
 404.098190483 430.680015885 l 1,41,-1
 415.882055623 424.252453082 l 1,42,-1
 413.761372006 410.998180479 l 1,43,-1
 411.841372006 398.998180479 l 1,44,-1
 409.761372006 385.998180479 l 1,45,-1
 407.718318511 373.229096131 l 1,46,-1
 395.089985564 370.445431342 l 1,47,-1
 35.6454894 291.213042403 l 1,48,-1
 15.02226463 166.614392751 l 1,49,-1
 110.31643187 32.294995117 l 1,50,-1
 553.416934121 -0.173576168651 l 1,51,-1
 572.38528223 33.1845532635 l 1,52,-1
 539.923025253 135.981700356 l 1,53,-1
 511.667446884 225.457698523 l 1,54,-1
 440.32865461 252.209745626 l 1,55,-1
 416.712907279 261.065650875 l 1,56,-1
 431.741137464 281.321091559 l 1,57,-1
 477.741137464 343.321091559 l 1,58,-1
 483.994025643 351.748897366 l 1,59,-1
 494.457233479 350.944035225 l 1,60,-1
 520.457233479 348.944035225 l 1,61,-1
 532.74008879 347.999200201 l 1,62,-1
 536.889673388 336.399967663 l 1,63,-1
 602.242458534 153.72092257 l 1,64,-1
 659.174989694 -5.42119209228 l 1,65,-1
 947.220954774 6.8561769111 l 1,66,-1
 1026.56381929 36.0877585747 l 1,67,-1
 1020.24867385 230.052940068 l 1,68,-1
 940.820258561 312.099874537 l 1,69,-1
 667.068896597 282.11297623 l 1,70,-1
 650.732420244 280.32346822 l 1,71,-1
 646.608058935 296.231718983 l 1,72,-1
 639.608058935 323.231718983 l 1,73,-1
 634.237838192 343.945427564 l 1,74,-1
 655.441466279 346.826946253 l 1,75,-1
 1029.56138856 397.668884409 l 1,76,-1
 1037.75936693 636.321143712 l 1,77,-1
 920.269710413 775.088454562 l 1,78,-1
 613.473874887 814.274215486 l 1,79,-1
 460.006833095 715.234438515 l 1,80,-1
 536.049499826 504.726080614 l 1,81,-1
 575.687248189 446.719619595 l 1,82,-1
 596.659375358 416.028701787 l 1,83,-1
 559.50017304 417.006575532 l 1,84,-1
 521.50017304 418.006575532 l 1,85,-1
 509.215681484 418.329851626 l 1,86,-1
 504.472406488 429.666278865 l 1,87,-1
 404.472406488 668.666278865 l 1,88,-1
 403.848690076 670.38484657 l 1,89,-1
 363.688199002 800.205968878 l 1,90,-1
 259.322897288 836.468488965 l 1,91,-1
 36.1975676093 799.751662562 l 1,34,-1
EndSplineSet
EndChar

StartChar: Y
Encoding: 89 89 24
Width: 1024
VWidth: 0
Flags: W
LayerCount: 2
Fore
SplineSet
383 287 m 1,0,-1
 383 295 l 1,1,-1
 38 416 l 1,2,-1
 -27 537 l 1,3,-1
 -27 793 l 1,4,-1
 -5 829 l 1,5,-1
 364 811 l 1,6,-1
 463 428 l 1,7,-1
 510 430 l 1,8,-1
 550 809 l 1,9,-1
 895 844 l 1,10,-1
 1036 766 l 1,11,-1
 916 423 l 1,12,-1
 657 345 l 1,13,-1
 658 338 l 1,14,-1
 959 426 l 1,15,-1
 992 410 l 1,16,-1
 859 80 l 1,17,-1
 539 10 l 1,18,-1
 223 27 l 1,19,-1
 145 86 l 1,20,-1
 100 236 l 1,21,-1
 35 408 l 1,22,-1
 383 287 l 1,0,-1
402 287 m 1,23,-1
 402 260.277925919 l 1,24,-1
 376.760108325 269.053865266 l 1,25,-1
 67.1359765157 376.710531786 l 1,26,-1
 117.773210524 242.716620256 l 1,27,-1
 118.007917598 242.09554923 l 1,28,-1
 118.198699419 241.459609826 l 1,29,-1
 161.414407331 97.4072501195 l 1,30,-1
 229.825667753 45.6602710825 l 1,31,-1
 537.452367736 29.1107334252 l 1,32,-1
 845.130822682 96.4153954448 l 1,33,-1
 967.744483006 400.644778203 l 1,34,-1
 957.301457518 405.708063288 l 1,35,-1
 663.331631569 319.763396566 l 1,36,-1
 642.291099952 313.612011907 l 1,37,-1
 639.19095962 335.312994231 l 1,38,-1
 638.19095962 342.312994231 l 1,39,-1
 635.880994015 358.482753471 l 1,40,-1
 651.52106037 363.192889285 l 1,41,-1
 901.259861026 438.403802224 l 1,42,-1
 1012.77007267 757.137157161 l 1,43,-1
 891.004041014 824.497089564 l 1,44,-1
 567.27491997 791.65500482 l 1,45,-1
 528.895056536 428.005798782 l 1,46,-1
 527.175571791 411.713680822 l 1,47,-1
 510.807779616 411.017179027 l 1,48,-1
 463.807779616 409.017179027 l 1,49,-1
 448.451220991 408.363708447 l 1,50,-1
 444.604606615 423.245054974 l 1,51,-1
 349.104773775 792.704004241 l 1,52,-1
 5.333992024 809.473310668 l 1,53,-1
 -8 787.654050992 l 1,54,-1
 -8 541.780270911 l 1,55,-1
 51.2477011877 431.488396393 l 1,56,-1
 389.288231117 312.929254012 l 1,57,-1
 402 308.470923476 l 1,58,-1
 402 295 l 1,59,-1
 402 287 l 1,23,-1
EndSplineSet
EndChar

StartChar: Z
Encoding: 90 90 25
Width: 1024
VWidth: 0
Flags: W
LayerCount: 2
Fore
SplineSet
-3 798 m 1,0,-1
 362 813 l 1,1,-1
 808 799 l 1,2,-1
 1013 664 l 1,3,-1
 1011 526 l 1,4,-1
 430 281 l 1,5,-1
 482 262 l 1,6,-1
 728 356 l 1,7,-1
 759 406 l 1,8,-1
 941 479 l 1,9,-1
 1043 325 l 1,10,-1
 1068 153 l 1,11,-1
 886 0 l 1,12,-1
 471 -12 l 1,13,-1
 151 8 l 1,14,-1
 0 172 l 1,15,-1
 0 305 l 1,16,-1
 560 465 l 1,17,-1
 548 494 l 1,18,-1
 443 541 l 1,19,-1
 450 469 l 1,20,-1
 118 369 l 1,21,-1
 -22 476 l 1,22,-1
 -37 734 l 1,23,-1
 -3 798 l 1,0,-1
8.66718451034 779.463435819 m 1,24,-1
 -17.723017543 729.787761365 l 1,25,-1
 -3.53788686424 485.80351369 l 1,26,-1
 121.820466314 389.99391519 l 1,27,-1
 277.560746887 436.903638254 l 1,28,-1
 429.579216537 482.692333931 l 1,29,-1
 424.089163926 539.161446493 l 1,30,-1
 420.925949245 571.697368926 l 1,31,-1
 450.76257651 558.341926246 l 1,32,-1
 555.76257651 511.341926246 l 1,33,-1
 562.664883328 508.252322242 l 1,34,-1
 565.556319816 501.264684062 l 1,35,-1
 577.556319816 472.264684062 l 1,36,-1
 585.700579025 452.582724308 l 1,37,-1
 565.21970143 446.731044995 l 1,38,-1
 297.728292495 370.304928156 l 1,39,-1
 19 290.668273158 l 1,40,-1
 19 179.414811602 l 1,41,-1
 159.80574847 26.4867139266 l 1,42,-1
 471.318673705 7.01715609941 l 1,43,-1
 878.837817806 18.8008421939 l 1,44,-1
 1047.67590749 160.736159346 l 1,45,-1
 1024.8096558 318.055970988 l 1,46,-1
 933.70685453 455.603337609 l 1,47,-1
 850.573125226 422.258490141 l 1,48,-1
 771.861704404 390.687425746 l 1,49,-1
 744.148151143 345.988146292 l 1,50,-1
 740.770176064 340.539799392 l 1,51,-1
 734.781909023 338.25159979 l 1,52,-1
 488.781909023 244.25159979 l 1,53,-1
 482.148865531 241.717022196 l 1,54,-1
 475.479333894 244.153966448 l 1,55,-1
 423.479333894 263.153966448 l 1,56,-1
 378.100270083 279.734778225 l 1,57,-1
 422.617488305 298.507099162 l 1,58,-1
 827.473043861 469.229321384 l 1,59,-1
 992.181842973 538.684839082 l 1,60,-1
 993.851054658 653.860445326 l 1,61,-1
 802.03571954 780.177861136 l 1,62,-1
 362.0921431 793.987749185 l 1,63,-1
 8.66718451034 779.463435819 l 1,24,-1
EndSplineSet
EndChar

StartChar: q
Encoding: 113 113 26
Width: 1024
VWidth: 0
Flags: W
LayerCount: 2
Fore
SplineSet
360 877 m 1,0,-1
 841 793 l 1,1,-1
 863 758 l 1,2,-1
 706 497 l 1,3,-1
 619 285 l 1,4,-1
 673 111 l 1,5,-1
 688 118 l 1,6,-1
 656 273 l 1,7,-1
 699 354 l 1,8,-1
 816 314 l 1,9,-1
 868 150 l 1,10,-1
 897 182 l 1,11,-1
 793 610 l 1,12,-1
 889 772 l 1,13,-1
 1055 556 l 1,14,-1
 963 130 l 1,15,-1
 879 83 l 1,16,-1
 903 -86 l 1,17,-1
 781 -61 l 1,18,-1
 714 33 l 1,19,-1
 599 2 l 1,20,-1
 62 43 l 1,21,-1
 -40 266 l 1,22,-1
 -23 758 l 1,23,-1
 360 877 l 1,0,-1
361.253609019 857.493521446 m 1,24,-1
 -4.47726886784 743.859123356 l 1,25,-1
 -20.8564857975 269.825315744 l 1,26,-1
 74.6179850021 61.0919138982 l 1,27,-1
 597.199216879 21.1927881869 l 1,28,-1
 709.054783416 51.3451582968 l 1,29,-1
 721.806514425 54.7825814384 l 1,30,-1
 729.472049483 44.0279501632 l 1,31,-1
 792.134759571 -43.8868968262 l 1,32,-1
 880.397317161 -61.9734864963 l 1,33,-1
 860.188739891 80.3285784461 l 1,34,-1
 858.357709796 93.2220820304 l 1,35,-1
 869.722547338 99.5809792262 l 1,36,-1
 946.238496323 142.393474492 l 1,37,-1
 1034.56939451 551.403937815 l 1,38,-1
 891.03729661 738.168595317 l 1,39,-1
 846.111496586 662.356307776 l 1,40,-1
 813.289384506 606.968993641 l 1,41,-1
 915.46275493 186.486276899 l 1,42,-1
 917.840226261 176.70206796 l 1,43,-1
 911.078752077 169.24113093 l 1,44,-1
 882.078752077 137.24113093 l 1,45,-1
 859.880030151 112.745989494 l 1,46,-1
 849.888617884 144.257366646 l 1,47,-1
 800.785219207 299.121931705 l 1,48,-1
 708.184743178 330.780214108 l 1,49,-1
 675.991666373 270.137441522 l 1,50,-1
 706.607588908 121.841566742 l 1,51,-1
 709.644090633 107.13351151 l 1,52,-1
 696.034823841 100.78252034 l 1,53,-1
 681.034823841 93.7825203401 l 1,54,-1
 661.306595541 84.5760137997 l 1,55,-1
 654.853781401 105.368414917 l 1,56,-1
 600.853781401 279.368414917 l 1,57,-1
 598.828861765 285.893155967 l 1,58,-1
 601.422542884 292.21339042 l 1,59,-1
 688.422542884 504.21339042 l 1,60,-1
 688.97227335 505.552963509 l 1,61,-1
 689.71865309 506.793760402 l 1,62,-1
 807.46865309 702.543760402 l 1,63,-1
 840.695779912 757.781213271 l 1,64,-1
 829.409564305 775.736556282 l 1,65,-1
 361.253609019 857.493521446 l 1,24,-1
EndSplineSet
EndChar

StartChar: bracketleft
Encoding: 91 91 27
Width: 1024
VWidth: 0
Flags: W
LayerCount: 2
Fore
SplineSet
134 805 m 25,0,-1
 898 805 l 1,1,-1
 884 430 l 1,2,-1
 617 428 l 1,3,-1
 609 115 l 1,4,-1
 876 131 l 1,5,-1
 873 -141 l 1,6,-1
 81 -115 l 1,7,-1
 85 -34 l 1,8,-1
 116 -36 l 1,9,-1
 138 682 l 1,10,-1
 97 688 l 1,11,-1
 105 809 l 1,12,-1
 134 805 l 25,0,-1
134 786 m 1,13,-1
 132.695828901 786 l 1,14,-1
 131.403889454 786.178198544 l 1,15,-1
 122.612772278 787.390766431 l 1,16,-1
 117.116424453 704.25850558 l 1,17,-1
 140.751184422 700.799760219 l 1,18,-1
 157.509808534 698.347278641 l 1,19,-1
 156.991087195 681.418100392 l 1,20,-1
 134.991087195 -36.5818996076 l 1,21,-1
 134.389181893 -56.225899914 l 1,22,-1
 114.776736718 -54.9605808704 l 1,23,-1
 103.025501899 -54.2024366885 l 1,24,-1
 100.929621247 -96.6440198864 l 1,25,-1
 854.215317588 -121.373095776 l 1,26,-1
 856.776203881 110.813928129 l 1,27,-1
 610.136537944 96.0340230544 l 1,28,-1
 589.477399371 94.796022241 l 1,29,-1
 590.006203006 115.48546446 l 1,30,-1
 598.006203006 428.48546446 l 1,31,-1
 598.47588508 446.861775619 l 1,32,-1
 616.857681895 446.999466981 l 1,33,-1
 865.690996834 448.863386943 l 1,34,-1
 878.277430388 786 l 1,35,-1
 134 786 l 1,13,-1
EndSplineSet
EndChar

StartChar: bracketright
Encoding: 93 93 28
Width: 994
VWidth: 0
Flags: W
LayerCount: 2
Fore
SplineSet
909 774 m 1,0,-1
 899 -139 l 1,1,-1
 174 -137 l 1,2,-1
 170 106 l 1,3,-1
 489 96 l 1,4,-1
 506 406 l 1,5,-1
 161 408 l 1,6,-1
 153 780 l 1,7,-1
 909 774 l 1,0,-1
889.792418327 755.151842746 m 1,8,-1
 172.416322014 760.845303828 l 1,9,-1
 179.598102651 426.89250417 l 1,10,-1
 506.110143077 424.999680747 l 1,11,-1
 526.064122248 424.884005506 l 1,12,-1
 524.971495077 404.959627689 l 1,13,-1
 507.971495077 94.9596276893 l 1,14,-1
 506.955233926 76.4278066946 l 1,15,-1
 488.404681151 77.0093287252 l 1,16,-1
 189.325457037 86.3848529921 l 1,17,-1
 192.690664299 -118.051488158 l 1,18,-1
 880.207534109 -119.94808642 l 1,19,-1
 889.792418327 755.151842746 l 1,8,-1
EndSplineSet
EndChar

StartChar: backslash
Encoding: 92 92 29
Width: 819
VWidth: 0
Flags: W
LayerCount: 2
Fore
SplineSet
44 778 m 1,0,-1
 398 784 l 1,1,-1
 777 170 l 1,2,-1
 785 -74 l 1,3,-1
 429 -70 l 1,4,-1
 40 598 l 1,5,-1
 44 778 l 1,0,-1
62.5894095753 759.312345834 m 1,6,-1
 59.1143074188 602.93274879 l 1,7,-1
 439.99368436 -51.1223252377 l 1,8,-1
 765.359564915 -54.7781216484 l 1,9,-1
 758.175914004 164.323231142 l 1,10,-1
 387.511281336 764.819496203 l 1,11,-1
 62.5894095753 759.312345834 l 1,6,-1
EndSplineSet
EndChar

StartChar: a
Encoding: 97 97 30
Width: 1024
VWidth: 0
Flags: W
LayerCount: 2
Fore
SplineSet
18 451 m 5,0,-1
 -6 526 l 1,1,-1
 102 758 l 1,2,-1
 516 895 l 1,3,-1
 986 797 l 1,4,-1
 1022 659 l 1,5,-1
 1016 340 l 1,6,-1
 792 633 l 1,7,-1
 510 711 l 1,8,-1
 438 559 l 1,9,-1
 475 479 l 1,10,-1
 785 606 l 1,11,-1
 1042 276 l 1,12,-1
 1042 49 l 1,13,-1
 639 -10 l 1,14,-1
 685 262 l 1,15,-1
 716 289 l 1,16,-1
 724 408 l 1,17,-1
 585 408 l 1,18,-1
 618 -27 l 1,19,-1
 606 -70 l 1,20,-1
 16 2 l 1,21,-1
 -37 78 l 1,22,-1
 -25 100 l 1,23,-1
 66 221 l 1,24,-1
 74 391 l 1,25,-1
 51 375 l 1,26,-1
 49 221 l 1,27,-1
 -16 131 l 1,28,-1
 18 451 l 5,0,-1
36.0960587968 456.790738815 m 1,29,-1
 37.3168652273 452.97571872 l 1,30,-1
 36.8936534783 448.992549318 l 1,31,-1
 10.4454395181 200.068182634 l 1,32,-1
 30.0796181429 227.253968422 l 1,33,-1
 32.0016020912 375.24673244 l 1,34,-1
 32.1284909601 385.017175346 l 1,35,-1
 40.1497747242 390.597198834 l 1,36,-1
 63.1497747242 406.597198834 l 1,37,-1
 94.7908320342 428.608369137 l 1,38,-1
 92.9789968155 390.106870738 l 1,39,-1
 84.9789968155 220.106870738 l 1,40,-1
 84.7037966321 214.258866842 l 1,41,-1
 81.1849273056 209.579930704 l 1,42,-1
 -8.98293510727 89.6863993639 l 1,43,-1
 -14.6897255113 79.2239502899 l 1,44,-1
 26.7285493856 19.8317070415 l 1,45,-1
 592.089410774 -49.1614828228 l 1,46,-1
 598.801903512 -25.1083838433 l 1,47,-1
 596.178291361 9.47559451703 l 1,48,-1
 566.05443815 406.56275048 l 1,49,-1
 564.504026117 427 l 1,50,-1
 585 427 l 1,51,-1
 724 427 l 1,52,-1
 744.320197344 427 l 1,53,-1
 742.957210165 406.725565703 l 1,54,-1
 734.957210165 287.725565703 l 1,55,-1
 734.428029757 279.854007141 l 1,56,-1
 728.478834151 274.672449678 l 1,57,-1
 702.601263809 252.13392067 l 1,58,-1
 662.088942979 12.5828061994 l 1,59,-1
 1023 65.420901396 l 1,60,-1
 1023 269.474272408 l 1,61,-1
 873.916347336 460.904643533 l 1,62,-1
 778.865594341 582.954248547 l 1,63,-1
 482.202856711 461.418223776 l 1,64,-1
 465.384529082 454.528134715 l 1,65,-1
 457.755086225 471.024227379 l 1,66,-1
 420.755086225 551.024227379 l 1,67,-1
 417.021785792 559.096228316 l 1,68,-1
 420.828981061 567.13364055 l 1,69,-1
 492.828981061 719.13364055 l 1,70,-1
 499.667842483 733.571236885 l 1,71,-1
 515.065135036 729.312411285 l 1,72,-1
 797.065135036 651.312411285 l 1,73,-1
 803.217391654 649.610723284 l 1,74,-1
 807.094260957 644.539639776 l 1,75,-1
 934.920347914 477.33855282 l 1,76,-1
 998.027219622 394.792510808 l 1,77,-1
 1002.95410278 656.738465298 l 1,78,-1
 970.588991565 780.804724948 l 1,79,-1
 517.120924706 875.357641016 l 1,80,-1
 115.761188286 742.540530172 l 1,81,-1
 14.3600317114 524.715823457 l 1,82,-1
 36.0960587968 456.790738815 l 1,29,-1
EndSplineSet
EndChar

StartChar: b
Encoding: 98 98 31
Width: 1024
VWidth: 0
Flags: W
LayerCount: 2
Fore
SplineSet
102 797 m 1,0,-1
 501 840 l 1,1,-1
 359 692 l 1,2,-1
 523 508 l 1,3,-1
 775 453 l 1,4,-1
 775 532 l 1,5,-1
 546 590 l 1,6,-1
 447 721 l 1,7,-1
 542 840 l 1,8,-1
 946 772 l 1,9,-1
 1002 651 l 1,10,-1
 916 414 l 1,11,-1
 855 420 l 1,12,-1
 773 344 l 1,13,-1
 648 338 l 1,14,-1
 433 123 l 1,15,-1
 538 125 l 1,16,-1
 859 403 l 1,17,-1
 1049 387 l 1,18,-1
 1042 152 l 1,19,-1
 728 0 l 1,20,-1
 644 27 l 1,21,-1
 124 0 l 1,22,-1
 148 143 l 1,23,-1
 122 152 l 1,24,-1
 91 0 l 1,25,-1
 39 0 l 1,26,-1
 -8 281 l 1,27,-1
 20 289 l 1,28,-1
 55 436 l 1,29,-1
 6 455 l 1,30,-1
 0 649 l 1,31,-1
 102 797 l 1,0,-1
112.699553481 779.043067867 m 1,32,-1
 19.1837210974 643.353428723 l 1,33,-1
 24.6019081337 468.165381216 l 1,34,-1
 61.8690292353 453.71486487 l 1,35,-1
 77.3222664844 447.722793284 l 1,36,-1
 73.483318079 431.599209981 l 1,37,-1
 38.483318079 284.599209981 l 1,38,-1
 35.9085034218 273.784988421 l 1,39,-1
 25.2197014301 270.731044995 l 1,40,-1
 13.5396907446 267.393899085 l 1,41,-1
 55.0860012676 19 l 1,42,-1
 75.4838776756 19 l 1,43,-1
 103.383233319 155.796840573 l 1,44,-1
 107.717753345 177.049971023 l 1,45,-1
 128.215100714 169.954735395 l 1,46,-1
 154.215100714 160.954735395 l 1,47,-1
 169.397106416 155.699425729 l 1,48,-1
 166.737931034 139.855172414 l 1,49,-1
 146.656276092 20.2019783832 l 1,50,-1
 643.014788712 45.9744396154 l 1,51,-1
 646.495742638 46.1551814539 l 1,52,-1
 649.814174428 45.0885426644 l 1,53,-1
 726.570223093 20.4169555934 l 1,54,-1
 1023.3514548 164.081755655 l 1,55,-1
 1029.47259461 369.577163677 l 1,56,-1
 865.385254528 383.395044947 l 1,57,-1
 853.268757874 372.901630399 l 1,58,-1
 550.438569194 110.637479455 l 1,59,-1
 545.239016003 106.13443962 l 1,60,-1
 538.361839128 106.003445774 l 1,61,-1
 433.361839128 104.003445774 l 1,62,-1
 386.235748263 103.105805948 l 1,63,-1
 419.564971157 136.435028843 l 1,64,-1
 634.564971157 351.435028843 l 1,65,-1
 639.756111052 356.626168738 l 1,66,-1
 647.089048812 356.97814975 l 1,67,-1
 765.16709043 362.645895748 l 1,68,-1
 827.309696587 420.241481942 l 1,69,-1
 842.084471362 433.935175636 l 1,70,-1
 848.353450036 439.745448553 l 1,71,-1
 856.859877129 438.908750807 l 1,72,-1
 903.1733628 434.353325986 l 1,73,-1
 981.469606907 650.123208003 l 1,74,-1
 932.965529894 754.926660121 l 1,75,-1
 549.872656679 819.407638781 l 1,76,-1
 536.223673114 802.310490946 l 1,77,-1
 471.056877086 720.680504343 l 1,78,-1
 557.134468339 606.779853291 l 1,79,-1
 779.664929001 550.418426573 l 1,80,-1
 794 546.787709901 l 1,81,-1
 794 532 l 1,82,-1
 794 453 l 1,83,-1
 794 429.405908449 l 1,84,-1
 770.948547116 434.436979515 l 1,85,-1
 518.948547116 489.436979515 l 1,86,-1
 512.921124759 490.752488363 l 1,87,-1
 508.816247838 495.35796003 l 1,88,-1
 344.816247838 679.35796003 l 1,89,-1
 333.124848814 692.475139422 l 1,90,-1
 345.289939106 705.154247614 l 1,91,-1
 451.182540484 815.521184261 l 1,92,-1
 112.699553481 779.043067867 l 1,32,-1
EndSplineSet
EndChar

StartChar: c
Encoding: 99 99 32
Width: 1026
VWidth: 0
Flags: W
LayerCount: 2
Fore
SplineSet
-11 847 m 1,0,-1
 80 849 l 1,1,-1
 91 778 l 1,2,-1
 102 778 l 1,3,-1
 116 813 l 1,4,-1
 131 815 l 1,5,-1
 166 778 l 1,6,-1
 183 776 l 1,7,-1
 209 844 l 1,8,-1
 798 813 l 1,9,-1
 1061 623 l 1,10,-1
 1027 477 l 1,11,-1
 915 297 l 1,12,-1
 840 332 l 1,13,-1
 496 322 l 1,14,-1
 453 377 l 1,15,-1
 258 377 l 1,16,-1
 262 305 l 1,17,-1
 295 266 l 1,18,-1
 332 268 l 1,19,-1
 362 299 l 1,20,-1
 795 309 l 1,21,-1
 1037 213 l 1,22,-1
 845 8 l 1,23,-1
 473 8 l 1,24,-1
 385 -35 l 1,25,-1
 185 8 l 1,26,-1
 14 96 l 1,27,-1
 -36 223 l 1,28,-1
 -11 847 l 1,0,-1
7.26992808422 828.396948617 m 1,29,-1
 -16.8550570052 226.237320786 l 1,30,-1
 29.0574993372 109.619427677 l 1,31,-1
 191.455310907 26.0462848805 l 1,32,-1
 382.565797543 -15.0424697463 l 1,33,-1
 464.658486936 25.0710034797 l 1,34,-1
 468.606200745 27 l 1,35,-1
 473 27 l 1,36,-1
 836.76309619 27 l 1,37,-1
 1004.0616571 205.626067636 l 1,38,-1
 791.58086209 289.915969788 l 1,39,-1
 705.438682103 287.926542998 l 1,40,-1
 370.232209546 280.185054024 l 1,41,-1
 345.653440694 254.786992877 l 1,42,-1
 340.469315588 249.430063602 l 1,43,-1
 333.025529902 249.027696808 l 1,44,-1
 296.025529902 247.027696808 l 1,45,-1
 286.595686763 246.517975557 l 1,46,-1
 280.495660578 253.727097412 l 1,47,-1
 247.495660578 292.727097412 l 1,48,-1
 243.382471665 297.588138854 l 1,49,-1
 243.029253289 303.946069627 l 1,50,-1
 239.029253289 375.946069627 l 1,51,-1
 237.915146046 396 l 1,52,-1
 258 396 l 1,53,-1
 453 396 l 1,54,-1
 462.263031552 396 l 1,55,-1
 467.96833616 388.702517362 l 1,56,-1
 505.051050751 341.271138233 l 1,57,-1
 709.447907643 347.212907329 l 1,58,-1
 839.447907643 350.991977096 l 1,59,-1
 843.951772941 351.122903413 l 1,60,-1
 848.034823841 349.21747966 l 1,61,-1
 907.768274317 321.341869438 l 1,62,-1
 1009.2078455 484.369751697 l 1,63,-1
 1039.6285755 614.999945218 l 1,64,-1
 791.41120193 794.320481255 l 1,65,-1
 221.808957277 824.299546763 l 1,66,-1
 200.746984862 769.214388141 l 1,67,-1
 195.465924681 755.40238459 l 1,68,-1
 180.780016296 757.130138518 l 1,69,-1
 163.780016296 759.130138518 l 1,70,-1
 156.934075209 759.935543352 l 1,71,-1
 152.197100078 764.943202776 l 1,72,-1
 127.629494766 790.914671248 l 1,73,-1
 119.641057127 770.943577149 l 1,74,-1
 114.863626267 759 l 1,75,-1
 102 759 l 1,76,-1
 91 759 l 1,77,-1
 74.7169840007 759 l 1,78,-1
 72.2240054916 775.091043104 l 1,79,-1
 63.772948709 829.638773246 l 1,80,-1
 7.26992808422 828.396948617 l 1,29,-1
EndSplineSet
EndChar

StartChar: d
Encoding: 100 100 33
Width: 1026
VWidth: 0
Flags: W
LayerCount: 2
Fore
SplineSet
45 806 m 1,0,-1
 134 805 l 1,1,-1
 159 719 l 1,2,-1
 181 719 l 1,3,-1
 214 807 l 1,4,-1
 498 846 l 1,5,-1
 779 813 l 1,6,-1
 1036 621 l 1,7,-1
 1038 201 l 1,8,-1
 826 8 l 1,9,-1
 680 -18 l 1,10,-1
 113 14 l 1,11,-1
 24 176 l 1,12,-1
 -38 221 l 1,13,-1
 61 598 l 1,14,-1
 627 387 l 1,15,-1
 629 184 l 1,16,-1
 662 145 l 1,17,-1
 733 160 l 1,18,-1
 778 358 l 1,19,-1
 762 600 l 1,20,-1
 711 586 l 1,21,-1
 631 418 l 1,22,-1
 67 625 l 1,23,-1
 45 806 l 1,0,-1
66.4787066552 786.757466912 m 1,24,-1
 84.4586484196 638.831582395 l 1,25,-1
 355.546413464 539.336604799 l 1,26,-1
 621.290478996 441.80287862 l 1,27,-1
 693.845650142 594.168738027 l 1,28,-1
 697.584427984 602.020171495 l 1,29,-1
 705.970377346 604.32219681 l 1,30,-1
 756.970377346 618.32219681 l 1,31,-1
 779.422602417 624.485552712 l 1,32,-1
 780.958608433 601.253461715 l 1,33,-1
 796.958608433 359.253461715 l 1,34,-1
 797.141322509 356.489911326 l 1,35,-1
 796.52752426 353.789199032 l 1,36,-1
 751.52752426 155.789199032 l 1,37,-1
 748.83116494 143.925218025 l 1,38,-1
 736.927393641 141.410336765 l 1,39,-1
 665.927393641 126.410336765 l 1,40,-1
 654.825280082 124.064819816 l 1,41,-1
 647.495660578 132.727097412 l 1,42,-1
 614.495660578 171.727097412 l 1,43,-1
 610.068444775 176.959261543 l 1,44,-1
 610.000922062 183.812816966 l 1,45,-1
 608.129546548 373.757431593 l 1,46,-1
 332.677707162 476.443541329 l 1,47,-1
 74.0425726782 572.860526092 l 1,48,-1
 -16.3224167608 228.743344086 l 1,49,-1
 35.1605104891 191.376703341 l 1,50,-1
 38.6038078548 188.877535898 l 1,51,-1
 40.6524409751 185.148563252 l 1,52,-1
 124.582752901 32.3765348031 l 1,53,-1
 678.854298559 1.09489554202 l 1,54,-1
 817.266801926 25.7436975116 l 1,55,-1
 1018.95997223 209.360593121 l 1,56,-1
 1017.04528961 611.443944492 l 1,57,-1
 771.716199384 794.724821235 l 1,58,-1
 498.187395846 826.847420939 l 1,59,-1
 227.811378903 789.71832002 l 1,60,-1
 198.790254374 712.32865461 l 1,61,-1
 194.167008895 700 l 1,62,-1
 181 700 l 1,63,-1
 159 700 l 1,64,-1
 144.736736292 700 l 1,65,-1
 140.755255157 713.696295104 l 1,66,-1
 119.69034579 786.159583326 l 1,67,-1
 66.4787066552 786.757466912 l 1,24,-1
EndSplineSet
EndChar

StartChar: e
Encoding: 101 101 34
Width: 1026
VWidth: 0
Flags: W
LayerCount: 2
Fore
SplineSet
-8 814 m 25,0,-1
 81 813 l 1,1,-1
 105 727 l 1,2,-1
 128 727 l 1,3,-1
 161 815 l 1,4,-1
 801 848 l 1,5,-1
 1059 741 l 1,6,-1
 1032 549 l 1,7,-1
 891 442 l 1,8,-1
 788 504 l 1,9,-1
 670 510 l 1,10,-1
 635 584 l 1,11,-1
 553 588 l 1,12,-1
 598 487 l 1,13,-1
 767 481 l 1,14,-1
 862 418 l 1,15,-1
 634 287 l 1,16,-1
 332 342 l 1,17,-1
 352 309 l 1,18,-1
 555 270 l 1,19,-1
 667 258 l 1,20,-1
 814 350 l 1,21,-1
 1030 283 l 1,22,-1
 1036 182 l 1,23,-1
 879 -25 l 1,24,-1
 438 -25 l 1,25,-1
 151 12 l 1,26,-1
 -33 227 l 1,27,-1
 -8 814 l 25,0,-1
10.19926452 794.794314576 m 1,28,-1
 -13.6987767013 233.6683067 l 1,29,-1
 160.681153126 29.9091495646 l 1,30,-1
 439.219691641 -6 l 1,31,-1
 869.563904976 -6 l 1,32,-1
 1016.61689072 187.885146809 l 1,33,-1
 1011.81314257 268.748240668 l 1,34,-1
 816.693508039 329.271460638 l 1,35,-1
 796.889074923 316.876849437 l 1,36,-1
 677.079826368 241.894190477 l 1,37,-1
 671.509628971 238.408080541 l 1,38,-1
 664.975870651 239.108126076 l 1,39,-1
 552.975870651 251.108126076 l 1,40,-1
 552.190746073 251.192246566 l 1,41,-1
 551.415308702 251.341222219 l 1,42,-1
 348.415308702 290.341222219 l 1,43,-1
 340.126113774 291.933727648 l 1,44,-1
 335.7512412 299.152267394 l 1,45,-1
 315.7512412 332.152267394 l 1,46,-1
 293.86972066 368.256776286 l 1,47,-1
 335.404270014 360.692537165 l 1,48,-1
 630.563485425 306.938375418 l 1,49,-1
 757.679517543 379.97434124 l 1,50,-1
 825.876211945 419.15752969 l 1,51,-1
 760.967585167 462.202197974 l 1,52,-1
 597.325868511 468.011963063 l 1,53,-1
 585.471978804 468.432811218 l 1,54,-1
 580.644673872 479.267428953 l 1,55,-1
 535.644673872 580.267428953 l 1,56,-1
 523.073640678 608.482414566 l 1,57,-1
 553.925728521 606.977434671 l 1,58,-1
 635.925728521 602.977434671 l 1,59,-1
 647.304735717 602.42236115 l 1,60,-1
 652.175742153 592.123661829 l 1,61,-1
 682.316114602 528.398302937 l 1,62,-1
 788.964855201 522.975485618 l 1,63,-1
 793.719665704 522.733715592 l 1,64,-1
 797.798650989 520.278404062 l 1,65,-1
 889.769242571 464.91746544 l 1,66,-1
 1014.27570746 559.401094823 l 1,67,-1
 1038.13725086 729.083181236 l 1,68,-1
 797.688853493 828.804028206 l 1,69,-1
 174.416973352 796.666571886 l 1,70,-1
 145.790254374 720.32865461 l 1,71,-1
 141.167008895 708 l 1,72,-1
 128 708 l 1,73,-1
 105 708 l 1,74,-1
 90.5763362128 708 l 1,75,-1
 86.6992702747 721.892819612 l 1,76,-1
 66.531302633 794.161370328 l 1,77,-1
 10.19926452 794.794314576 l 1,28,-1
EndSplineSet
EndChar

StartChar: f
Encoding: 102 102 35
Width: 1026
VWidth: 0
Flags: W
LayerCount: 2
Fore
SplineSet
5 829 m 25,0,-1
 223 821 l 1,1,-1
 244 793 l 1,2,-1
 262 829 l 1,3,-1
 1012 788 l 1,4,-1
 1076 649 l 1,5,-1
 1059 379 l 1,6,-1
 870 379 l 1,7,-1
 718 559 l 1,8,-1
 436 575 l 1,9,-1
 426 545 l 1,10,-1
 428 400 l 1,11,-1
 455 399 l 1,12,-1
 458 535 l 1,13,-1
 699 522 l 1,14,-1
 848 354 l 1,15,-1
 849 206 l 1,16,-1
 587 205 l 1,17,-1
 589 180 l 1,18,-1
 722 182 l 1,19,-1
 722 0 l 1,20,-1
 49 -18 l 1,21,-1
 -25 33 l 1,22,-1
 -31 516 l 1,23,-1
 5 829 l 25,0,-1
21.8672920776 809.368227573 m 1,24,-1
 -11.9864669851 515.028600167 l 1,25,-1
 -6.12357567118 43.0658493997 l 1,26,-1
 54.6827530992 1.15878497686 l 1,27,-1
 703 18.4986221897 l 1,28,-1
 703 162.712137608 l 1,29,-1
 589.285681987 161.002147863 l 1,30,-1
 571.480544855 160.73440144 l 1,31,-1
 570.060509708 178.484840777 l 1,32,-1
 568.060509708 203.484840777 l 1,33,-1
 566.425568168 223.921610029 l 1,34,-1
 586.927481444 223.999861606 l 1,35,-1
 829.871680284 224.927129541 l 1,36,-1
 829.04866492 346.733403319 l 1,37,-1
 767.932548411 415.642850121 l 1,38,-1
 690.051464712 503.455078722 l 1,39,-1
 476.562807303 514.971064391 l 1,40,-1
 473.995379065 398.580984285 l 1,41,-1
 473.570045444 379.299193455 l 1,42,-1
 454.29677845 380.013018158 l 1,43,-1
 427.29677845 381.013018158 l 1,44,-1
 409.25086326 381.681385388 l 1,45,-1
 409.001807114 399.73795596 l 1,46,-1
 407.001807114 544.73795596 l 1,47,-1
 406.95742644 547.955554863 l 1,48,-1
 407.975017337 551.008327554 l 1,49,-1
 417.975017337 581.008327554 l 1,50,-1
 422.569760419 594.792556799 l 1,51,-1
 437.076283216 593.969491676 l 1,52,-1
 719.076283216 577.969491676 l 1,53,-1
 727.24062202 577.506266779 l 1,54,-1
 732.516568401 571.258435539 l 1,55,-1
 823.716568401 463.258435539 l 1,56,-1
 878.823691745 398 l 1,57,-1
 1041.15867237 398 l 1,58,-1
 1056.73626304 645.408792946 l 1,59,-1
 999.530151702 769.653315997 l 1,60,-1
 273.416412652 809.347533732 l 1,61,-1
 260.994116629 784.502941686 l 1,62,-1
 247.245587472 757.005883371 l 1,63,-1
 228.8 781.6 l 1,64,-1
 213.240995469 802.345339375 l 1,65,-1
 21.8672920776 809.368227573 l 1,24,-1
EndSplineSet
EndChar

StartChar: g
Encoding: 103 103 36
Width: 1026
VWidth: 0
Flags: W
LayerCount: 2
Fore
SplineSet
2 810 m 1,0,-1
 330 816 l 1,1,-1
 350 762 l 1,2,-1
 373 762 l 1,3,-1
 489 830 l 1,4,-1
 989 800 l 1,5,-1
 1050 637 l 1,6,-1
 1016 492 l 1,7,-1
 969 465 l 1,8,-1
 920 494 l 1,9,-1
 658 451 l 1,10,-1
 623 297 l 1,11,-1
 681 244 l 1,12,-1
 881 203 l 1,13,-1
 839 250 l 1,14,-1
 705 291 l 1,15,-1
 719 381 l 1,16,-1
 911 414 l 1,17,-1
 1026 227 l 1,18,-1
 836 -8 l 1,19,-1
 289 41 l 1,20,-1
 161 8 l 1,21,-1
 61 178 l 1,22,-1
 -23 223 l 1,23,-1
 20 471 l 1,24,-1
 2 810 l 1,0,-1
22.0163413701 791.362973941 m 1,25,-1
 38.9732728845 472.007430419 l 1,26,-1
 39.0869505128 469.866501754 l 1,27,-1
 38.7206829927 467.754075126 l 1,28,-1
 -1.93578528736 233.270258069 l 1,29,-1
 69.9722068378 194.748119431 l 1,30,-1
 74.6729314386 192.229874109 l 1,31,-1
 77.376750088 187.633382405 l 1,32,-1
 170.118634189 29.9721794338 l 1,33,-1
 284.256664952 59.3983904899 l 1,34,-1
 287.430588001 60.2166675261 l 1,35,-1
 290.695222909 59.9242230829 l 1,36,-1
 827.59848884 11.8286837216 l 1,37,-1
 1002.77538742 228.494847757 l 1,38,-1
 901.549413656 393.097083359 l 1,39,-1
 735.675446205 364.587495204 l 1,40,-1
 726.30527732 304.350695227 l 1,41,-1
 844.559041134 268.168573463 l 1,42,-1
 849.632299992 266.616307693 l 1,43,-1
 853.167465912 262.660288687 l 1,44,-1
 895.167465912 215.660288687 l 1,45,-1
 933.414650598 172.859867729 l 1,46,-1
 877.184351216 184.387079102 l 1,47,-1
 677.184351216 225.387079102 l 1,48,-1
 672.051254867 226.439363853 l 1,49,-1
 668.183149102 229.974012225 l 1,50,-1
 610.183149102 282.974012225 l 1,51,-1
 602.022546931 290.431114209 l 1,52,-1
 604.47247574 301.210800968 l 1,53,-1
 639.47247574 455.210800968 l 1,54,-1
 642.306035842 467.678465418 l 1,55,-1
 654.922847217 469.749163468 l 1,56,-1
 916.922847217 512.749163468 l 1,57,-1
 923.735687481 513.867301374 l 1,58,-1
 929.677096984 510.350956974 l 1,59,-1
 969.142533624 486.99386182 l 1,60,-1
 999.38448223 504.366896126 l 1,61,-1
 1030.1874482 635.732486293 l 1,62,-1
 975.533952845 781.773793554 l 1,63,-1
 493.626631321 810.688232845 l 1,64,-1
 382.608670495 745.608738568 l 1,65,-1
 378.158469408 743 l 1,66,-1
 373 743 l 1,67,-1
 350 743 l 1,68,-1
 336.775746598 743 l 1,69,-1
 332.182773546 755.401027239 l 1,70,-1
 316.865908236 796.756563578 l 1,71,-1
 22.0163413701 791.362973941 l 1,25,-1
EndSplineSet
EndChar

StartChar: h
Encoding: 104 104 37
Width: 1024
VWidth: 0
Flags: W
LayerCount: 2
Fore
SplineSet
-24 736 m 25,0,-1
 83 809 l 1,1,-1
 439 805 l 1,2,-1
 463 598 l 1,3,-1
 414 584 l 1,4,-1
 410 557 l 1,5,-1
 560 592 l 1,6,-1
 562 637 l 1,7,-1
 511 641 l 1,8,-1
 498 739 l 1,9,-1
 561 815 l 1,10,-1
 935 788 l 1,11,-1
 1035 692 l 1,12,-1
 1066 126 l 1,13,-1
 933 18 l 1,14,-1
 624 20 l 1,15,-1
 557 143 l 1,16,-1
 557 217 l 1,17,-1
 381 180 l 1,18,-1
 383 139 l 1,19,-1
 477 156 l 1,20,-1
 481 102 l 1,21,-1
 441 -14 l 1,22,-1
 48 14 l 1,23,-1
 -7 74 l 1,24,-1
 -24 736 l 25,0,-1
-4.7405084999 726.1390132 m 1,25,-1
 11.8111830347 81.5966722645 l 1,26,-1
 56.8949067786 32.4144281802 l 1,27,-1
 427.794866041 5.98898579001 l 1,28,-1
 461.763011261 104.496606929 l 1,29,-1
 459.611131255 133.546987019 l 1,30,-1
 386.38131854 120.303297485 l 1,31,-1
 365.077385473 116.450458526 l 1,32,-1
 364.022565329 138.074271479 l 1,33,-1
 362.022565329 179.074271479 l 1,34,-1
 361.233029217 195.259761763 l 1,35,-1
 377.091125318 198.593566057 l 1,36,-1
 553.091125318 235.593566057 l 1,37,-1
 576 240.409636303 l 1,38,-1
 576 217 l 1,39,-1
 576 147.839121616 l 1,40,-1
 635.326065942 38.9270901106 l 1,41,-1
 926.311062688 37.0436920734 l 1,42,-1
 1046.49834191 134.639377453 l 1,43,-1
 1016.43809591 683.481288284 l 1,44,-1
 926.790233369 769.54323632 l 1,45,-1
 569.386332425 795.345122217 l 1,46,-1
 517.926926493 733.267108712 l 1,47,-1
 527.813219974 658.739665546 l 1,48,-1
 563.485633661 655.941829178 l 1,49,-1
 581.796785526 654.505660405 l 1,50,-1
 580.981262323 636.156388341 l 1,51,-1
 578.981262323 591.156388341 l 1,52,-1
 578.341840403 576.769395146 l 1,53,-1
 564.317362697 573.497017015 l 1,54,-1
 414.317362697 538.497017015 l 1,55,-1
 387.110976539 532.148860245 l 1,56,-1
 391.205134215 559.784424561 l 1,57,-1
 395.205134215 586.784424561 l 1,58,-1
 397.000523926 598.903305107 l 1,59,-1
 408.78029857 602.268955005 l 1,60,-1
 442.268432954 611.836993401 l 1,61,-1
 422.053683348 786.189208747 l 1,62,-1
 88.7672126875 789.934000552 l 1,63,-1
 -4.7405084999 726.1390132 l 1,25,-1
EndSplineSet
EndChar

StartChar: i
Encoding: 105 105 38
Width: 1024
VWidth: 0
Flags: W
LayerCount: 2
Fore
SplineSet
-18 782 m 1,0,-1
 461 827 l 1,1,-1
 1033 844 l 1,2,-1
 1068 655 l 1,3,-1
 1035 621 l 1,4,-1
 876 629 l 1,5,-1
 880 586 l 1,6,-1
 950 582 l 1,7,-1
 933 203 l 1,8,-1
 788 199 l 1,9,-1
 795 172 l 1,10,-1
 1055 176 l 1,11,-1
 1022 102 l 1,12,-1
 948 23 l 1,13,-1
 532 -16 l 1,14,-1
 -20 -12 l 1,15,-1
 -43 45 l 1,16,-1
 150 43 l 1,17,-1
 154 80 l 1,18,-1
 121 102 l 1,19,-1
 100 78 l 1,20,-1
 14 86 l 1,21,-1
 23 500 l 1,22,-1
 129 498 l 1,23,-1
 174 522 l 1,24,-1
 172 569 l 1,25,-1
 129 569 l 1,26,-1
 96 537 l 1,27,-1
 -35 559 l 1,28,-1
 -18 782 l 1,0,-1
-0.272720072549 764.581741185 m 1,29,-1
 -14.7355923526 574.862887159 l 1,30,-1
 89.6710884445 557.328940765 l 1,31,-1
 115.773229115 582.640107476 l 1,32,-1
 121.30061828 588 l 1,33,-1
 129 588 l 1,34,-1
 172 588 l 1,35,-1
 190.208683935 588 l 1,36,-1
 190.982820973 569.807779616 l 1,37,-1
 192.982820973 522.807779616 l 1,38,-1
 193.491154195 510.861948904 l 1,39,-1
 182.941176471 505.235294118 l 1,40,-1
 137.941176471 481.235294118 l 1,41,-1
 133.581575308 478.910173497 l 1,42,-1
 128.641573228 479.003381084 l 1,43,-1
 98.641573228 479.56941882 l 1,44,-1
 41.5837495408 480.645981531 l 1,45,-1
 33.3801244477 103.279227249 l 1,46,-1
 89.7598440097 98.0346021736 l 1,47,-1
 92.0937144019 97.8174979511 l 1,48,-1
 106.701042801 114.51158755 l 1,49,-1
 117.674210745 127.052350915 l 1,50,-1
 131.539303728 117.808955592 l 1,51,-1
 164.539303728 95.8089555924 l 1,52,-1
 174.128658995 89.416052081 l 1,53,-1
 172.889933904 77.9578449834 l 1,54,-1
 168.889933904 40.9578449834 l 1,55,-1
 167.037456167 23.8224259159 l 1,56,-1
 149.803119379 24.0010200795 l 1,57,-1
 83.8031193791 24.6849579033 l 1,58,-1
 -14.7262174827 25.7059873008 l 1,59,-1
 -7.14078877193 6.90731614817 l 1,60,-1
 531.180024107 3.00644069253 l 1,61,-1
 939.056491808 41.2448595395 l 1,62,-1
 1005.94874942 112.65686429 l 1,63,-1
 1025.52013566 156.544215238 l 1,64,-1
 795.292273106 153.002248122 l 1,65,-1
 780.356752886 152.772470887 l 1,66,-1
 776.608058935 167.231718983 l 1,67,-1
 769.608058935 194.231718983 l 1,68,-1
 763.618414649 217.334632656 l 1,69,-1
 787.476061389 217.992774635 l 1,70,-1
 914.810956254 221.50546139 l 1,71,-1
 930.17806926 564.10168663 l 1,72,-1
 878.91605398 567.030944646 l 1,73,-1
 862.595781486 567.963531646 l 1,74,-1
 861.081676896 584.24015599 l 1,75,-1
 857.081676896 627.24015599 l 1,76,-1
 855.050239268 649.078110492 l 1,77,-1
 876.954767089 647.975995884 l 1,78,-1
 1027.35975414 640.408449366 l 1,79,-1
 1047.53056849 661.190500511 l 1,80,-1
 1017.2835292 824.524512641 l 1,81,-1
 462.171988002 808.026442361 l 1,82,-1
 -0.272720072549 764.581741185 l 1,29,-1
EndSplineSet
EndChar

StartChar: j
Encoding: 106 106 39
Width: 1024
VWidth: 0
Flags: W
LayerCount: 2
Fore
SplineSet
56 800 m 25,0,-1
 105 832 l 1,1,-1
 532 808 l 1,2,-1
 902 786 l 1,3,-1
 1035 680 l 1,4,-1
 1043 111 l 1,5,-1
 953 -2 l 1,6,-1
 328 31 l 1,7,-1
 270 10 l 1,8,-1
 68 35 l 1,9,-1
 -22 227 l 1,10,-1
 -22 408 l 1,11,-1
 390 383 l 1,12,-1
 703 174 l 1,13,-1
 753 199 l 1,14,-1
 759 528 l 1,15,-1
 690 547 l 1,16,-1
 687 297 l 1,17,-1
 657 281 l 1,18,-1
 455 467 l 1,19,-1
 104 524 l 1,20,-1
 56 577 l 1,21,-1
 56 800 l 25,0,-1
75 789.715377724 m 1,22,-1
 75 584.324992639 l 1,23,-1
 113.615114387 541.687470504 l 1,24,-1
 458.045573183 485.754319076 l 1,25,-1
 463.674761581 484.84017737 l 1,26,-1
 467.87006891 480.977171612 l 1,27,-1
 659.953318711 304.108436646 l 1,28,-1
 668.136304397 308.472695679 l 1,29,-1
 671.001367852 547.227983586 l 1,30,-1
 671.296919591 571.857295148 l 1,31,-1
 695.044143286 565.318204566 l 1,32,-1
 764.044143286 546.318204566 l 1,33,-1
 778.265811506 542.402093027 l 1,34,-1
 777.996841172 527.653553049 l 1,35,-1
 771.996841172 198.653553049 l 1,36,-1
 771.787066112 187.15088727 l 1,37,-1
 761.497058314 182.005883371 l 1,38,-1
 711.497058314 157.005883371 l 1,39,-1
 701.626617263 152.070662845 l 1,40,-1
 692.449049206 158.198815318 l 1,41,-1
 383.721392682 364.346036448 l 1,42,-1
 -3 387.812140373 l 1,43,-1
 -3 231.232179186 l 1,44,-1
 80.7492650688 52.5670803726 l 1,45,-1
 267.813868284 29.4155205687 l 1,46,-1
 321.531619412 48.8650511492 l 1,47,-1
 325.154318427 50.1767180341 l 1,48,-1
 329.001804537 49.9735707675 l 1,49,-1
 944.232604654 17.4893845213 l 1,50,-1
 1023.90639279 117.524251845 l 1,51,-1
 1016.12825329 670.744424022 l 1,52,-1
 894.864510286 767.390715435 l 1,53,-1
 530.872262029 789.033497764 l 1,54,-1
 110.164198962 812.679752557 l 1,55,-1
 75 789.715377724 l 1,22,-1
EndSplineSet
EndChar

StartChar: k
Encoding: 107 107 40
Width: 1024
VWidth: 0
Flags: W
LayerCount: 2
Fore
SplineSet
39 842 m 1,0,-1
 521 815 l 1,1,-1
 544 745 l 1,2,-1
 325 569 l 1,3,-1
 366 565 l 1,4,-1
 689 817 l 1,5,-1
 965 788 l 1,6,-1
 1034 510 l 1,7,-1
 901 393 l 1,8,-1
 680 461 l 1,9,-1
 637 395 l 1,10,-1
 325 475 l 1,11,-1
 316 444 l 1,12,-1
 649 350 l 1,13,-1
 694 416 l 1,14,-1
 1040 315 l 1,15,-1
 1040 145 l 1,16,-1
 918 2 l 1,17,-1
 577 12 l 1,18,-1
 521 68 l 1,19,-1
 362 262 l 1,20,-1
 336 250 l 1,21,-1
 478 49 l 1,22,-1
 472 14 l 1,23,-1
 49 18 l 1,24,-1
 -8 96 l 1,25,-1
 -16 147 l 1,26,-1
 37 207 l 1,27,-1
 49 481 l 1,28,-1
 -12 553 l 1,29,-1
 -22 707 l 1,30,-1
 39 842 l 1,0,-1
50.9485145678 822.300898554 m 1,31,-1
 -2.73260895271 703.498412074 l 1,32,-1
 6.55341300781 560.493673882 l 1,33,-1
 63.4966994637 493.281925934 l 1,34,-1
 68.3074255869 487.603691822 l 1,35,-1
 67.9818046351 480.168680089 l 1,36,-1
 55.9818046351 206.168680089 l 1,37,-1
 55.6878471149 199.456650045 l 1,38,-1
 51.2399910239 194.421341262 l 1,39,-1
 4.15505826541 141.1176438 l 1,40,-1
 10.0569719994 103.492943745 l 1,41,-1
 58.7144790021 36.9089867944 l 1,42,-1
 456.006053727 33.1520924707 l 1,43,-1
 457.944487189 44.4596209967 l 1,44,-1
 320.481891016 239.036957832 l 1,45,-1
 307.30849182 257.683811625 l 1,46,-1
 328.037894628 267.251228306 l 1,47,-1
 354.037894628 279.251228306 l 1,48,-1
 367.380183574 285.409207819 l 1,49,-1
 376.695058782 274.043888383 l 1,50,-1
 535.099442421 80.7706152636 l 1,51,-1
 585.099408899 30.7706487861 l 1,52,-1
 909.455402229 21.2587428233 l 1,53,-1
 1021 152.00364021 l 1,54,-1
 1021 300.75329431 l 1,55,-1
 822.27039619 358.763959006 l 1,56,-1
 701.923835859 393.894024305 l 1,57,-1
 696.027433437 385.24596742 l 1,58,-1
 664.698319513 339.296600332 l 1,59,-1
 656.99629848 328.000302816 l 1,60,-1
 643.838344307 331.71456015 l 1,61,-1
 310.838344307 425.71456015 l 1,62,-1
 292.416515288 430.914716089 l 1,63,-1
 297.753421692 449.297393702 l 1,64,-1
 301.972171692 463.828643702 l 1,65,-1
 306.753421692 480.297393702 l 1,66,-1
 311.886253123 497.977146412 l 1,67,-1
 329.719131655 493.404613455 l 1,68,-1
 628.519255325 416.789197129 l 1,69,-1
 650.298550611 450.217882916 l 1,70,-1
 664.080601893 471.37172907 l 1,71,-1
 671.898797359 483.371750018 l 1,72,-1
 685.587631128 479.159801166 l 1,73,-1
 845.358193898 429.999628006 l 1,74,-1
 896.429975679 414.285233612 l 1,75,-1
 1012.77661999 516.63528913 l 1,76,-1
 949.76806023 770.495863218 l 1,77,-1
 694.641169531 797.302674197 l 1,78,-1
 377.687334201 550.019805766 l 1,79,-1
 371.705834628 545.353124985 l 1,80,-1
 364.155100679 546.089781955 l 1,81,-1
 323.155100679 550.089781955 l 1,82,-1
 276.770055586 554.615152208 l 1,83,-1
 313.097835174 583.810080096 l 1,84,-1
 521.84249714 751.568347247 l 1,85,-1
 506.995554279 796.754695085 l 1,86,-1
 50.9485145678 822.300898554 l 1,31,-1
EndSplineSet
EndChar

StartChar: l
Encoding: 108 108 41
Width: 1024
VWidth: 0
Flags: W
LayerCount: 2
Fore
SplineSet
94 821 m 25,0,-1
 390 795 l 1,1,-1
 667 842 l 1,2,-1
 703 776 l 1,3,-1
 599 160 l 1,4,-1
 560 156 l 1,5,-1
 556 137 l 1,6,-1
 669 135 l 1,7,-1
 775 326 l 1,8,-1
 755 360 l 1,9,-1
 687 395 l 1,10,-1
 720 516 l 1,11,-1
 877 539 l 1,12,-1
 1038 416 l 1,13,-1
 1024 86 l 1,14,-1
 981 41 l 1,15,-1
 472 0 l 1,16,-1
 72 35 l 1,17,-1
 -18 150 l 1,18,-1
 15 459 l 1,19,-1
 -16 702 l 1,20,-1
 94 821 l 25,0,-1
101.624227242 801.257148087 m 1,21,-1
 3.96893111965 695.611873191 l 1,22,-1
 33.8472530317 461.404382074 l 1,23,-1
 34.1289783115 459.196019397 l 1,24,-1
 33.8925667222 456.982347243 l 1,25,-1
 1.71067971951 155.642859854 l 1,26,-1
 81.8767975989 53.2083758974 l 1,27,-1
 472.06579183 19.0668389021 l 1,28,-1
 972.262070823 59.3576983102 l 1,29,-1
 1005.32033293 93.9535540081 l 1,30,-1
 1018.59739392 406.91284861 l 1,31,-1
 871.829648424 519.039759763 l 1,32,-1
 735.058452375 499.003215119 l 1,33,-1
 709.380252684 404.849816253 l 1,34,-1
 763.695225205 376.893580397 l 1,35,-1
 768.587170776 374.375667236 l 1,36,-1
 771.376750088 369.633382405 l 1,37,-1
 791.376750088 335.633382405 l 1,38,-1
 796.882087633 326.274308578 l 1,39,-1
 791.613089412 316.780170274 l 1,40,-1
 685.613089412 125.780170274 l 1,41,-1
 680.074915624 115.80100807 l 1,42,-1
 668.663769474 116.002975258 l 1,43,-1
 555.663769474 118.002975258 l 1,44,-1
 532.669816976 118.409947869 l 1,45,-1
 537.407554085 140.91419914 l 1,46,-1
 541.407554085 159.91419914 l 1,47,-1
 544.264733063 173.485799283 l 1,48,-1
 558.061451556 174.900847334 l 1,49,-1
 582.673016716 177.425110427 l 1,50,-1
 683.170039637 772.676707726 l 1,51,-1
 656.811995553 820.999788548 l 1,52,-1
 393.178398884 776.267734239 l 1,53,-1
 390.770464625 775.859167776 l 1,54,-1
 388.337482323 776.072875681 l 1,55,-1
 101.624227242 801.257148087 l 1,21,-1
EndSplineSet
EndChar

StartChar: m
Encoding: 109 109 42
Width: 1024
VWidth: 0
Flags: W
LayerCount: 2
Fore
SplineSet
27 823 m 1,0,-1
 345 806 l 1,1,-1
 540 539 l 1,2,-1
 509 489 l 1,3,-1
 560 430 l 1,4,-1
 606 514 l 1,5,-1
 442 741 l 1,6,-1
 686 850 l 1,7,-1
 870 819 l 1,8,-1
 989 694 l 1,9,-1
 924 223 l 1,10,-1
 946 219 l 1,11,-1
 985 518 l 1,12,-1
 987 553 l 1,13,-1
 1047 600 l 1,14,-1
 1081 512 l 1,15,-1
 1016 436 l 1,16,-1
 1051 125 l 1,17,-1
 953 23 l 1,18,-1
 520 15 l 1,19,-1
 713 508 l 1,20,-1
 676 516 l 1,21,-1
 582 293 l 1,22,-1
 520 287 l 1,23,-1
 419 476 l 1,24,-1
 384 457 l 1,25,-1
 461 289 l 1,26,-1
 417 53 l 1,27,-1
 378 14 l 1,28,-1
 117 41 l 1,29,-1
 -23 141 l 1,30,-1
 -23 354 l 1,31,-1
 2 379 l 1,32,-1
 60 668 l 1,33,-1
 27 700 l 1,34,-1
 27 823 l 1,0,-1
46 802.957146264 m 1,35,-1
 46 708.041824698 l 1,36,-1
 73.2267708854 681.640107476 l 1,37,-1
 80.6681482424 674.424226402 l 1,38,-1
 78.6285495356 664.261398363 l 1,39,-1
 20.6285495356 375.261398363 l 1,40,-1
 19.497949632 369.627891947 l 1,41,-1
 15.4350288425 365.564971157 l 1,42,-1
 -4 346.129942315 l 1,43,-1
 -4 150.777740011 l 1,44,-1
 123.954017839 59.3820129825 l 1,45,-1
 370.959648661 33.8297063458 l 1,46,-1
 399.401125247 62.2711829317 l 1,47,-1
 441.217698597 286.560076358 l 1,48,-1
 366.727768365 449.083560501 l 1,49,-1
 359.329029151 465.226264241 l 1,50,-1
 374.935254605 473.698215202 l 1,51,-1
 409.935254605 492.698215202 l 1,52,-1
 426.743402789 501.822638502 l 1,53,-1
 435.757337167 484.954979121 l 1,54,-1
 530.784219855 307.132396666 l 1,55,-1
 568.892691442 310.820313271 l 1,56,-1
 658.491885015 523.380102281 l 1,57,-1
 664.612857197 537.901132032 l 1,58,-1
 680.015323058 534.570869143 l 1,59,-1
 717.015323058 526.570869143 l 1,60,-1
 738.827888313 521.854638818 l 1,61,-1
 730.692553631 501.073706185 l 1,62,-1
 548.046323738 34.5214194622 l 1,63,-1
 944.763344854 41.8510641941 l 1,64,-1
 1031.12213367 131.73470153 l 1,65,-1
 997.119189314 433.875149923 l 1,66,-1
 996.196155329 442.076966194 l 1,67,-1
 1001.56072195 448.349382546 l 1,68,-1
 1059.18968005 515.730933555 l 1,69,-1
 1038.52205079 569.223621038 l 1,70,-1
 1005.47898879 543.339889138 l 1,71,-1
 1003.96905535 516.91605398 l 1,72,-1
 1003.84040781 515.542555503 l 1,73,-1
 964.840407813 216.542555503 l 1,74,-1
 962.256523056 196.732772366 l 1,75,-1
 942.601176674 200.306471708 l 1,76,-1
 920.601176674 204.306471708 l 1,77,-1
 902.689570251 207.563127421 l 1,78,-1
 905.178385109 225.597462777 l 1,79,-1
 968.926948026 687.529357145 l 1,80,-1
 860.602542531 801.315497371 l 1,81,-1
 688.506293206 830.309974159 l 1,82,-1
 471.086666292 733.183993283 l 1,83,-1
 621.401116089 525.126797527 l 1,84,-1
 628.42877517 515.399488922 l 1,85,-1
 622.664829089 504.874022166 l 1,86,-1
 576.664829089 420.874022166 l 1,87,-1
 563.521131447 396.872487341 l 1,88,-1
 545.625842318 417.574880647 l 1,89,-1
 494.625842318 476.574880647 l 1,90,-1
 485.492127375 487.141335189 l 1,91,-1
 492.851848857 499.011853708 l 1,92,-1
 517.106271567 538.131890336 l 1,93,-1
 334.977154019 787.508682055 l 1,94,-1
 46 802.957146264 l 1,35,-1
EndSplineSet
EndChar

StartChar: n
Encoding: 110 110 43
Width: 1024
VWidth: 0
Flags: W
LayerCount: 2
Fore
SplineSet
-28 776 m 25,0,-1
 14 807 l 1,1,-1
 725 412 l 1,2,-1
 702 377 l 1,3,-1
 823 313 l 1,4,-1
 786 418 l 1,5,-1
 268 696 l 1,6,-1
 289 803 l 1,7,-1
 705 834 l 1,8,-1
 1038 774 l 1,9,-1
 1044 600 l 1,10,-1
 1016 551 l 1,11,-1
 1036 80 l 1,12,-1
 989 33 l 1,13,-1
 725 -27 l 1,14,-1
 726 158 l 1,15,-1
 526 362 l 1,16,-1
 449 365 l 1,17,-1
 660 156 l 1,18,-1
 662 -33 l 1,19,-1
 111 25 l 1,20,-1
 -6 96 l 1,21,-1
 -16 383 l 1,22,-1
 12 403 l 1,23,-1
 18 569 l 1,24,-1
 -28 610 l 1,25,-1
 -28 776 l 25,0,-1
-9 766.408830516 m 1,26,-1
 -9 618.516874744 l 1,27,-1
 30.6420399703 583.183752162 l 1,28,-1
 37.3102508984 577.240346769 l 1,29,-1
 36.9876010573 568.313701167 l 1,30,-1
 30.9876010573 402.313701167 l 1,31,-1
 30.6499575081 392.972229638 l 1,32,-1
 23.0435256807 387.539064047 l 1,33,-1
 3.34366464503 373.467734736 l 1,34,-1
 12.6310877305 106.918692182 l 1,35,-1
 117.219941436 43.4502424971 l 1,36,-1
 642.775352947 -11.8713797672 l 1,37,-1
 641.08365551 147.994028003 l 1,38,-1
 435.629099082 351.501147877 l 1,39,-1
 400.913262466 385.887924431 l 1,40,-1
 449.739698536 383.985595752 l 1,41,-1
 526.739698536 380.985595752 l 1,42,-1
 534.282722274 380.691711711 l 1,43,-1
 539.567383944 375.301356808 l 1,44,-1
 739.567383944 171.301356808 l 1,45,-1
 745.041992471 165.71725611 l 1,46,-1
 744.999722431 157.897298798 l 1,47,-1
 744.129099449 -3.16795291788 l 1,48,-1
 979.442251146 50.3123088315 l 1,49,-1
 1016.66300313 87.5330608201 l 1,50,-1
 997.017106256 550.193932325 l 1,51,-1
 996.784626891 555.668821364 l 1,52,-1
 999.5033803 560.426639829 l 1,53,-1
 1024.82526136 604.739931684 l 1,54,-1
 1019.53973415 758.020220854 l 1,55,-1
 704.00560583 814.873216947 l 1,56,-1
 304.855042612 785.128824015 l 1,57,-1
 289.34614287 706.107287234 l 1,58,-1
 509.952392497 587.712427395 l 1,59,-1
 794.98476047 434.741388213 l 1,60,-1
 801.472765761 431.25940854 l 1,61,-1
 803.919964877 424.31465429 l 1,62,-1
 840.919964877 319.31465429 l 1,63,-1
 857.069142286 273.48590759 l 1,64,-1
 814.116511458 296.204654475 l 1,65,-1
 693.116511458 360.204654475 l 1,66,-1
 674.64729941 369.973493905 l 1,67,-1
 686.121595886 387.434379847 l 1,68,-1
 697.881850475 405.330419439 l 1,69,-1
 484.02001678 524.142549269 l 1,70,-1
 15.4530658745 784.457521994 l 1,71,-1
 -9 766.408830516 l 1,26,-1
EndSplineSet
EndChar

StartChar: o
Encoding: 111 111 44
Width: 1024
VWidth: 0
Flags: W
LayerCount: 2
Fore
SplineSet
-40 698 m 25,0,-1
 157 805 l 1,1,-1
 381 844 l 1,2,-1
 428 549 l 1,3,-1
 392 430 l 1,4,-1
 408 127 l 1,5,-1
 451 111 l 1,6,-1
 492 143 l 1,7,-1
 566 506 l 1,8,-1
 514 526 l 1,9,-1
 480 526 l 1,10,-1
 447 496 l 1,11,-1
 449 571 l 1,12,-1
 410 854 l 1,13,-1
 684 827 l 1,14,-1
 872 776 l 1,15,-1
 1042 612 l 1,16,-1
 1024 53 l 1,17,-1
 969 -2 l 1,18,-1
 328 -37 l 1,19,-1
 -30 127 l 1,20,-1
 -40 698 l 25,0,-1
-20.8010470884 686.806150775 m 1,21,-1
 -11.2123601937 139.292129088 l 1,22,-1
 331.648225407 -17.7724967182 l 1,23,-1
 960.705337852 16.5753955369 l 1,24,-1
 1005.25167505 61.1217327382 l 1,25,-1
 1022.73839841 604.181641425 l 1,26,-1
 862.318502246 758.939658901 l 1,27,-1
 680.557291875 808.247221289 l 1,28,-1
 432.110885766 832.729166417 l 1,29,-1
 454.137901223 672.892105537 l 1,30,-1
 467.822111749 573.593859923 l 1,31,-1
 468.034773077 572.050702082 l 1,32,-1
 467.993248045 570.493513385 l 2,33,34
 467.857322309 565.396298289 467.857322309 565.396298289 467.596803144 554.922587286 c 128,-1,35
 467.336283978 544.448876283 467.336283978 544.448876283 467.219216914 540.058861395 c 2,36,-1
 472.65446938 545 l 1,37,-1
 480 545 l 1,38,-1
 514 545 l 1,39,-1
 517.527875453 545 l 1,40,-1
 520.820602507 543.733566518 l 1,41,-1
 572.820602507 523.733566518 l 1,42,-1
 587.829121019 517.961059398 l 1,43,-1
 584.617096943 502.204779136 l 1,44,-1
 510.617096943 139.204779136 l 1,45,-1
 509.216734792 132.335435072 l 1,46,-1
 503.690146253 128.022000114 l 1,47,-1
 462.690146253 96.0220001138 l 1,48,-1
 454.322400449 89.4910765594 l 1,49,-1
 444.374059472 93.1927848299 l 1,50,-1
 401.374059472 109.19278483 l 1,51,-1
 389.684154839 113.542516786 l 1,52,-1
 389.026434508 125.998095552 l 1,53,-1
 373.026434508 428.998095552 l 1,54,-1
 372.851084198 432.318792041 l 1,55,-1
 373.813967667 435.50165684 l 1,56,-1
 408.549671486 550.322455574 l 1,57,-1
 389.36416433 670.742128149 l 1,58,-1
 365.269378241 821.975359981 l 1,59,-1
 163.329612171 786.816204281 l 1,60,-1
 -20.8010470884 686.806150775 l 1,21,-1
EndSplineSet
EndChar

StartChar: p
Encoding: 112 112 45
Width: 1024
VWidth: 0
Flags: W
LayerCount: 2
Fore
SplineSet
-24 688 m 25,0,-1
 55 788 l 1,1,-1
 485 842 l 1,2,-1
 487 784 l 1,3,-1
 715 526 l 1,4,-1
 735 414 l 1,5,-1
 809 367 l 1,6,-1
 840 496 l 1,7,-1
 791 612 l 1,8,-1
 741 618 l 1,9,-1
 721 547 l 1,10,-1
 508 795 l 1,11,-1
 510 846 l 1,12,-1
 920 801 l 1,13,-1
 967 766 l 1,14,-1
 1047 418 l 1,15,-1
 1016 332 l 1,16,-1
 769 184 l 1,17,-1
 637 276 l 1,18,-1
 557 303 l 1,19,-1
 561 276 l 1,20,-1
 631 250 l 1,21,-1
 876 63 l 1,22,-1
 853 -12 l 1,23,-1
 430 -27 l 1,24,-1
 -18 27 l 1,25,-1
 0 82 l 1,26,-1
 8 295 l 1,27,-1
 27 311 l 1,28,-1
 29 360 l 1,29,-1
 -24 385 l 1,30,-1
 -24 688 l 25,0,-1
-5 681.400462546 m 1,31,-1
 -5 397.04540537 l 1,32,-1
 37.1057548385 377.184200258 l 1,33,-1
 48.4978836062 371.810554613 l 1,34,-1
 47.9841930089 359.225134979 l 1,35,-1
 45.9841930089 310.225134979 l 1,36,-1
 45.6427454323 301.859669351 l 1,37,-1
 39.2385791699 296.466687236 l 1,38,-1
 26.6709910576 285.883455141 l 1,39,-1
 18.9866129406 81.2868877769 l 1,40,-1
 18.8865761068 78.6234070755 l 1,41,-1
 18.0575454518 76.0902578521 l 1,42,-1
 7.25843720724 43.0929826603 l 1,43,-1
 430.805043305 -7.95951003903 l 1,44,-1
 838.802586194 6.50848793575 l 1,45,-1
 853.956385577 55.9230511412 l 1,46,-1
 621.726258161 233.176250435 l 1,47,-1
 554.384455938 258.188919832 l 1,48,-1
 543.851726663 262.10107642 l 1,49,-1
 542.205134215 273.215575439 l 1,50,-1
 538.205134215 300.215575439 l 1,51,-1
 533.654549323 330.93202346 l 1,52,-1
 563.075794239 321.002353301 l 1,53,-1
 643.075794239 294.002353301 l 1,54,-1
 645.642042273 293.136244589 l 1,55,-1
 647.864060572 291.587565169 l 1,56,-1
 769.779055347 206.616508204 l 1,57,-1
 1000.42308508 344.816169746 l 1,58,-1
 1027.23139903 419.187621354 l 1,59,-1
 950.048298737 754.934107651 l 1,60,-1
 912.793789456 782.676827328 l 1,61,-1
 528.186752966 824.889794748 l 1,62,-1
 527.277963788 801.715670687 l 1,63,-1
 619.112947207 694.790431776 l 1,64,-1
 712.321418737 586.26601422 l 1,65,-1
 722.711731605 623.1516249 l 1,66,-1
 727.120254314 638.801880517 l 1,67,-1
 743.263759192 636.864659931 l 1,68,-1
 793.263759192 630.864659931 l 1,69,-1
 804.211839727 629.550890267 l 1,70,-1
 808.502539929 619.39331428 l 1,71,-1
 857.502539929 503.39331428 l 1,72,-1
 859.934224326 497.636673665 l 1,73,-1
 858.474058006 491.560497688 l 1,74,-1
 827.474058006 362.560497688 l 1,75,-1
 821.260601874 336.704502813 l 1,76,-1
 798.813393666 350.961513432 l 1,77,-1
 724.813393666 397.961513432 l 1,78,-1
 717.763930069 402.438875446 l 1,79,-1
 716.295876065 410.659977869 l 1,80,-1
 697.232922601 517.41251727 l 1,81,-1
 556.937165981 676.168241867 l 1,82,-1
 472.762747376 771.418241867 l 1,83,-1
 468.246330589 776.52892402 l 1,84,-1
 468.011286012 783.345216759 l 1,85,-1
 466.728150033 820.556160145 l 1,86,-1
 65.086403661 770.117429205 l 1,87,-1
 -5 681.400462546 l 1,31,-1
EndSplineSet
EndChar

StartChar: r
Encoding: 114 114 46
Width: 1024
VWidth: 0
Flags: W
LayerCount: 2
Fore
SplineSet
45 776 m 1,0,-1
 180 838 l 1,1,-1
 756 856 l 1,2,-1
 1004 705 l 1,3,-1
 1040 352 l 1,4,-1
 738 302 l 1,5,-1
 740 284 l 1,6,-1
 782 254 l 1,7,-1
 833 274 l 1,8,-1
 850 309 l 1,9,-1
 932 324 l 1,10,-1
 1032 260 l 1,11,-1
 1006 -23 l 1,12,-1
 506 2 l 1,13,-1
 551 45 l 1,14,-1
 477 414 l 1,15,-1
 743 463 l 1,16,-1
 750 441 l 1,17,-1
 784 449 l 1,18,-1
 766 535 l 1,19,-1
 502 498 l 1,20,-1
 514 455 l 1,21,-1
 446 434 l 1,22,-1
 479 264 l 1,23,-1
 444 231 l 1,24,-1
 493 18 l 1,25,-1
 324 -23 l 1,26,-1
 16 12 l 1,27,-1
 -23 53 l 1,28,-1
 -33 254 l 1,29,-1
 -2 348 l 1,30,-1
 20 350 l 1,31,-1
 66 309 l 1,32,-1
 94 313 l 1,33,-1
 -6 407 l 1,34,-1
 45 776 l 1,0,-1
62.3950476531 763.080900808 m 1,35,-1
 14.1648774033 414.121433707 l 1,36,-1
 107.013290167 326.843925709 l 1,37,-1
 135.805437689 299.779307038 l 1,38,-1
 96.6870057685 294.19095962 l 1,39,-1
 68.6870057685 290.19095962 l 1,40,-1
 59.9479867867 288.942528337 l 1,41,-1
 53.3579600297 294.816247838 l 1,42,-1
 12.482265996 331.248931651 l 1,43,-1
 -13.8476379745 251.409867998 l 1,44,-1
 -4.37382781925 60.9862838782 l 1,45,-1
 25.006986717 30.0987609042 l 1,46,-1
 322.796146079 -3.7409162961 l 1,47,-1
 470.274367541 32.0378238218 l 1,48,-1
 425.483641369 226.740368202 l 1,49,-1
 423.042152084 237.353372645 l 1,50,-1
 430.965755495 244.824198718 l 1,51,-1
 458.354808642 270.648163114 l 1,52,-1
 433.642964177 397.951604301 l 1,53,-1
 427.348166489 430.379349965 l 1,54,-1
 424.098197987 447.121611944 l 1,55,-1
 440.393611739 452.154019132 l 1,56,-1
 490.730074821 467.69910332 l 1,57,-1
 483.699270275 492.892819612 l 1,58,-1
 477.863876262 513.802981491 l 1,59,-1
 499.362894862 516.816101522 l 1,60,-1
 763.362894862 553.816101522 l 1,61,-1
 780.957340298 556.281989708 l 1,62,-1
 784.59702188 538.892399928 l 1,63,-1
 802.59702188 452.892399928 l 1,64,-1
 806.394193997 434.750355368 l 1,65,-1
 788.351747341 430.505073802 l 1,66,-1
 771.351747341 426.505073802 l 1,67,-1
 754.351747341 422.505073802 l 1,68,-1
 737.228137018 418.47598902 l 1,69,-1
 731.89441018 435.239130512 l 1,70,-1
 729.972169789 441.280457454 l 1,71,-1
 499.424306039 398.811114131 l 1,72,-1
 501.336535373 389.275808397 l 1,73,-1
 569.629088565 48.7359147799 l 1,74,-1
 571.684697631 38.4856479518 l 1,75,-1
 564.126297659 31.2631768681 l 1,76,-1
 551.053169572 18.7710766962 l 1,77,-1
 988.747000418 -3.11361484612 l 1,78,-1
 1012.02217933 250.227755665 l 1,79,-1
 928.059462322 303.963894553 l 1,80,-1
 897.876710117 298.442659393 l 1,81,-1
 862.885860175 292.04189416 l 1,82,-1
 850.090655013 265.698824708 l 1,83,-1
 846.847440305 259.021617957 l 1,84,-1
 839.936663048 256.311509229 l 1,85,-1
 788.936663048 236.311509229 l 1,86,-1
 779.342457844 232.549075815 l 1,87,-1
 770.956474319 238.539064047 l 1,88,-1
 728.956474319 268.539064047 l 1,89,-1
 722.053068219 273.470068404 l 1,90,-1
 721.116209041 281.901801005 l 1,91,-1
 719.116209041 299.901801005 l 1,92,-1
 717.127199909 317.80288319 l 1,93,-1
 734.89655152 320.744828821 l 1,94,-1
 890.831192043 346.561822285 l 1,95,-1
 1019.28712477 367.829360816 l 1,96,-1
 986.055806931 693.680894047 l 1,97,-1
 750.945441197 836.832769958 l 1,98,-1
 184.436027425 819.129350777 l 1,99,-1
 62.3950476531 763.080900808 l 1,35,-1
EndSplineSet
EndChar

StartChar: s
Encoding: 115 115 47
Width: 1024
VWidth: 0
Flags: W
LayerCount: 2
Fore
SplineSet
346 295 m 1,0,-1
 501 420 l 1,1,-1
 715 291 l 1,2,-1
 719 319 l 1,3,-1
 492 454 l 1,4,-1
 337 343 l 1,5,-1
 109 401 l 1,6,-1
 -46 625 l 1,7,-1
 42 809 l 1,8,-1
 465 838 l 1,9,-1
 948 774 l 1,10,-1
 1034 743 l 1,11,-1
 1034 561 l 1,12,-1
 930 449 l 1,13,-1
 594 551 l 1,14,-1
 563 608 l 1,15,-1
 513 606 l 1,16,-1
 524 526 l 1,17,-1
 950 395 l 1,18,-1
 1075 162 l 1,19,-1
 618 -23 l 1,20,-1
 22 12 l 1,21,-1
 -52 266 l 1,22,-1
 29 373 l 1,23,-1
 172 340 l 1,24,-1
 346 295 l 1,0,-1
357.927296573 280.21015225 m 1,25,-1
 350.491258098 274.213347029 l 1,26,-1
 341.242726383 276.605208679 l 1,27,-1
 167.484418454 321.542702109 l 1,28,-1
 36.7202633416 351.719045597 l 1,29,-1
 -31.0872896094 262.146105279 l 1,30,-1
 36.4929089619 30.1816399121 l 1,31,-1
 614.839448677 -3.78166359461 l 1,32,-1
 1048.25101119 171.669406568 l 1,33,-1
 936.94969601 379.135058059 l 1,34,-1
 518.415364626 507.839277334 l 1,35,-1
 506.828400989 511.40240465 l 1,36,-1
 505.177102043 523.411851531 l 1,37,-1
 494.177102043 603.411851531 l 1,38,-1
 491.325850287 624.148227936 l 1,39,-1
 512.240607271 624.984818216 l 1,40,-1
 562.240607271 626.984818216 l 1,41,-1
 574.046269425 627.457044702 l 1,42,-1
 579.691194145 617.077666991 l 1,43,-1
 606.970649295 566.918668813 l 1,44,-1
 924.156828788 470.630007181 l 1,45,-1
 1015 568.46111464 l 1,46,-1
 1015 729.652140174 l 1,47,-1
 943.478918745 755.432995045 l 1,48,-1
 464.395850455 818.91398132 l 1,49,-1
 54.358084797 790.80264514 l 1,50,-1
 -24.1034382517 626.746733311 l 1,51,-1
 120.577051298 417.660090349 l 1,52,-1
 333.121221222 363.591836596 l 1,53,-1
 480.937627745 469.447456752 l 1,54,-1
 491.036166623 476.679313626 l 1,55,-1
 501.711868893 470.330327694 l 1,56,-1
 728.711868893 335.330327694 l 1,57,-1
 739.600697308 328.854592734 l 1,58,-1
 737.80904038 316.312994231 l 1,59,-1
 735.380468951 299.312994231 l 1,60,-1
 733.80904038 288.312994231 l 1,61,-1
 729.753138492 259.921681019 l 1,62,-1
 705.191055045 274.727796742 l 1,63,-1
 502.577828575 396.863807091 l 1,64,-1
 357.927296573 280.21015225 l 1,25,-1
EndSplineSet
EndChar

StartChar: t
Encoding: 116 116 48
Width: 1024
VWidth: 0
Flags: W
LayerCount: 2
Fore
SplineSet
-19 840 m 1,0,-1
 483 868 l 1,1,-1
 1022 831 l 1,2,-1
 1047 366 l 1,3,-1
 822 319 l 1,4,-1
 766 495 l 1,5,-1
 733 493 l 1,6,-1
 783 275 l 1,7,-1
 886 303 l 1,8,-1
 1000 214 l 1,9,-1
 974 44 l 1,10,-1
 524 0 l 1,11,-1
 116 10 l 1,12,-1
 61 38 l 1,13,-1
 -12 242 l 1,14,-1
 4 334 l 1,15,-1
 214 399 l 1,16,-1
 340 665 l 1,17,-1
 307 677 l 1,18,-1
 195 432 l 1,19,-1
 4 420 l 1,20,-1
 -38 529 l 1,21,-1
 -19 840 l 1,0,-1
-1.06603967473 821.970768441 m 1,22,-1
 -18.7830713291 531.970934519 l 1,23,-1
 16.7182645138 439.836515308 l 1,24,-1
 182.451241146 450.249058343 l 1,25,-1
 289.719984964 684.899435445 l 1,26,-1
 297.011408342 700.849424085 l 1,27,-1
 313.493118199 694.856075046 l 1,28,-1
 346.493118199 682.856075046 l 1,29,-1
 366.10398799 675.724849668 l 1,30,-1
 357.171018939 656.86635945 l 1,31,-1
 231.171018939 390.86635945 l 1,32,-1
 227.595919305 383.31892689 l 1,33,-1
 219.617990833 380.849568077 l 1,34,-1
 20.7265749358 319.287939347 l 1,35,-1
 7.57779764741 243.682469938 l 1,36,-1
 76.3461632046 51.5078593402 l 1,37,-1
 120.776796721 28.8886277318 l 1,38,-1
 523.305713984 19.0227228969 l 1,39,-1
 957.451337276 61.4725171743 l 1,40,-1
 979.535935502 205.871813268 l 1,41,-1
 881.805425488 282.170193893 l 1,42,-1
 866.691714149 278.06161217 l 1,43,-1
 787.984166979 256.665385755 l 1,44,-1
 768.901634229 251.477901124 l 1,45,-1
 764.480856936 270.752490123 l 1,46,-1
 714.480856936 488.752490123 l 1,47,-1
 709.467969634 510.608678756 l 1,48,-1
 731.850593852 511.965201436 l 1,49,-1
 764.850593852 513.965201436 l 1,50,-1
 779.619413302 514.860281403 l 1,51,-1
 784.10558982 500.760869488 l 1,52,-1
 834.904930407 341.105799073 l 1,53,-1
 843.660818521 342.934806812 l 1,54,-1
 1027.15191175 381.264057397 l 1,55,-1
 1003.9297789 813.19572838 l 1,56,-1
 482.877985294 848.963662264 l 1,57,-1
 -1.06603967473 821.970768441 l 1,22,-1
EndSplineSet
EndChar

StartChar: u
Encoding: 117 117 49
Width: 1024
VWidth: 0
Flags: W
LayerCount: 2
Fore
SplineSet
3 807 m 25,0,-1
 115 809 l 1,1,-1
 156 764 l 1,2,-1
 203 854 l 1,3,-1
 565 803 l 1,4,-1
 575 766 l 1,5,-1
 485 318 l 1,6,-1
 426 306 l 1,7,-1
 411 274 l 1,8,-1
 528 212 l 1,9,-1
 586 228 l 1,10,-1
 604 274 l 1,11,-1
 546 318 l 1,12,-1
 640 733 l 1,13,-1
 703 801 l 1,14,-1
 930 799 l 1,15,-1
 1049 700 l 1,16,-1
 1044 266 l 1,17,-1
 930 12 l 1,18,-1
 561 -20 l 1,19,-1
 211 14 l 1,20,-1
 160 70 l 1,21,-1
 72 0 l 1,22,-1
 0 49 l 1,23,-1
 -43 709 l 1,24,-1
 3 807 l 25,0,-1
15.1712088565 788.21431392 m 1,25,-1
 -23.7222037688 705.354434849 l 1,26,-1
 18.35686082 59.4897225545 l 1,27,-1
 71.1223443106 23.5798796234 l 1,28,-1
 148.172052249 84.8694200293 l 1,29,-1
 162.080788753 95.9331877027 l 1,30,-1
 174.047505248 82.7932637081 l 1,31,-1
 220.120361766 32.2034604732 l 1,32,-1
 561.098591836 -0.920139019406 l 1,33,-1
 917.236871066 29.9644814016 l 1,34,-1
 1025.04681047 270.172591998 l 1,35,-1
 1029.89709059 691.17690636 l 1,36,-1
 923.05729744 780.060431751 l 1,37,-1
 711.230227963 781.926749544 l 1,38,-1
 657.40389886 723.828489559 l 1,39,-1
 567.234406974 325.739775381 l 1,40,-1
 615.483343146 289.137134147 l 1,41,-1
 626.928543436 280.45456841 l 1,42,-1
 621.693612814 267.076412377 l 1,43,-1
 603.693612814 221.076412377 l 1,44,-1
 600.225993031 212.214717376 l 1,45,-1
 591.052650964 209.684140254 l 1,46,-1
 533.052650964 193.684140254 l 1,47,-1
 525.774634927 191.676411692 l 1,48,-1
 519.103541155 195.211521212 l 1,49,-1
 402.103541155 257.211521212 l 1,50,-1
 386.117466523 265.682774436 l 1,51,-1
 393.796280217 282.064243648 l 1,52,-1
 408.796280217 314.064243648 l 1,53,-1
 412.851167269 322.71466936 l 1,54,-1
 422.213126119 324.618796583 l 1,55,-1
 468.855862578 334.105454846 l 1,56,-1
 555.491583711 765.358822262 l 1,57,-1
 549.930335134 785.935441998 l 1,58,-1
 213.632338051 833.314441587 l 1,59,-1
 172.841774207 755.204851248 l 1,60,-1
 160.260345293 731.112753328 l 1,61,-1
 141.955269592 751.203690073 l 1,62,-1
 106.744594526 789.84955295 l 1,63,-1
 15.1712088565 788.21431392 l 1,25,-1
EndSplineSet
EndChar

StartChar: v
Encoding: 118 118 50
Width: 1024
VWidth: 0
Flags: W
LayerCount: 2
Fore
SplineSet
66 817 m 25,0,-1
 131 831 l 1,1,-1
 428 778 l 1,2,-1
 506 629 l 1,3,-1
 514 500 l 1,4,-1
 465 299 l 1,5,-1
 514 236 l 1,6,-1
 538 375 l 1,7,-1
 526 612 l 1,8,-1
 637 819 l 1,9,-1
 989 815 l 1,10,-1
 1048 614 l 1,11,-1
 991 205 l 1,12,-1
 508 -59 l 1,13,-1
 487 -57 l 1,14,-1
 -16 215 l 1,15,-1
 -33 635 l 1,16,-1
 66 817 l 25,0,-1
78.524204745 800.26180693 m 1,17,-1
 -13.8034392008 630.528158465 l 1,18,-1
 2.54722629547 226.570540322 l 1,19,-1
 492.643059532 -38.4514609514 l 1,20,-1
 504.000487682 -39.5331207752 l 1,21,-1
 973.501052799 217.088306121 l 1,22,-1
 1028.61742038 612.572417384 l 1,23,-1
 974.728248449 796.160952278 l 1,24,-1
 648.301375518 799.870348562 l 1,25,-1
 545.243048565 607.680495596 l 1,26,-1
 548.67189419 539.960794514 l 1,27,-1
 556.975691658 375.960794514 l 1,28,-1
 557.082568861 373.849969761 l 1,29,-1
 556.722963956 371.767258022 l 1,30,-1
 532.722963956 232.767258022 l 1,31,-1
 525.405672534 190.387945203 l 1,32,-1
 499.00230787 224.335128343 l 1,33,-1
 450.00230787 287.335128343 l 1,34,-1
 444.366379853 294.581321507 l 1,35,-1
 446.540598031 303.500053216 l 1,36,-1
 494.858057341 501.700243449 l 1,37,-1
 492.86588858 533.823964727 l 1,38,-1
 487.287294839 623.778788794 l 1,39,-1
 415.488707827 760.932499881 l 1,40,-1
 131.344202184 811.638421764 l 1,41,-1
 78.524204745 800.26180693 l 1,17,-1
EndSplineSet
EndChar

StartChar: w
Encoding: 119 119 51
Width: 1024
VWidth: 0
Flags: W
LayerCount: 2
Fore
SplineSet
-25 596 m 25,0,-1
 199 805 l 1,1,-1
 412 848 l 1,2,-1
 401 580 l 1,3,-1
 307 569 l 1,4,-1
 170 172 l 1,5,-1
 197 172 l 1,6,-1
 317 463 l 1,7,-1
 387 451 l 1,8,-1
 496 242 l 1,9,-1
 514 260 l 1,10,-1
 446 563 l 1,11,-1
 483 842 l 1,12,-1
 900 821 l 1,13,-1
 1046 518 l 1,14,-1
 989 29 l 1,15,-1
 727 -53 l 1,16,-1
 350 -55 l 1,17,-1
 373 334 l 1,18,-1
 338 348 l 1,19,-1
 301 -20 l 1,20,-1
 49 39 l 1,21,-1
 -23 524 l 1,22,-1
 -25 596 l 25,0,-1
-5.76925458958 587.957003229 m 1,23,-1
 -4.0389143587 525.664754917 l 1,24,-1
 65.8986778221 54.5573631439 l 1,25,-1
 284.260244228 3.43302815199 l 1,26,-1
 319.095313379 349.900742948 l 1,27,-1
 321.620433663 375.015452802 l 1,28,-1
 345.056422851 365.641057127 l 1,29,-1
 380.056422851 351.641057127 l 1,30,-1
 392.775417268 346.55345936 l 1,31,-1
 391.966875967 332.878565174 l 1,32,-1
 370.162915419 -35.8927675706 l 1,33,-1
 724.046967138 -34.015398596 l 1,34,-1
 971.55561198 43.4491391028 l 1,35,-1
 1026.48917561 514.7212902 l 1,36,-1
 887.779513448 802.591342486 l 1,37,-1
 499.533026899 822.143323823 l 1,38,-1
 465.280099264 563.857734362 l 1,39,-1
 532.538875615 264.160539742 l 1,40,-1
 534.82846344 253.958405755 l 1,41,-1
 527.435028843 246.564971157 l 1,42,-1
 509.435028843 228.564971157 l 1,43,-1
 491.126520767 210.256463082 l 1,44,-1
 479.153450903 233.21400071 l 1,45,-1
 374.508073798 433.864310938 l 1,46,-1
 328.770643181 441.70501333 l 1,47,-1
 214.565131253 164.756646906 l 1,48,-1
 209.717029437 153 l 1,49,-1
 197 153 l 1,50,-1
 170 153 l 1,51,-1
 143.343822757 153 l 1,52,-1
 152.039356161 178.198005557 l 1,53,-1
 289.039356161 575.198005557 l 1,54,-1
 292.933886688 586.483615917 l 1,55,-1
 304.79166478 587.871228247 l 1,56,-1
 382.681187244 596.985959599 l 1,57,-1
 392.022887949 824.583758586 l 1,58,-1
 208.030425349 787.439740315 l 1,59,-1
 -5.76925458958 587.957003229 l 1,23,-1
EndSplineSet
EndChar

StartChar: x
Encoding: 120 120 52
Width: 1024
VWidth: 0
Flags: W
LayerCount: 2
Fore
SplineSet
75 881 m 1,0,-1
 400 858 l 1,1,-1
 587 766 l 1,2,-1
 527 596 l 1,3,-1
 447 565 l 1,4,-1
 493 504 l 1,5,-1
 519 506 l 1,6,-1
 640 821 l 1,7,-1
 945 809 l 1,8,-1
 1039 774 l 1,9,-1
 1039 598 l 1,10,-1
 948 504 l 1,11,-1
 665 535 l 1,12,-1
 658 508 l 1,13,-1
 1048 455 l 1,14,-1
 1057 193 l 1,15,-1
 930 43 l 1,16,-1
 609 2 l 1,17,-1
 456 133 l 1,18,-1
 538 330 l 1,19,-1
 560 399 l 1,20,-1
 522 398 l 1,21,-1
 422 160 l 1,22,-1
 379 20 l 1,23,-1
 261 -20 l 1,24,-1
 24 18 l 1,25,-1
 -20 98 l 1,26,-1
 5 336 l 1,27,-1
 114 455 l 1,28,-1
 417 418 l 1,29,-1
 450 436 l 1,30,-1
 445 461 l 1,31,-1
 19 528 l 1,32,-1
 -5 674 l 1,33,-1
 75 881 l 1,0,-1
87.6619061619 861.056407366 m 1,34,-1
 14.5876031719 671.976648379 l 1,35,-1
 35.520431984 544.635273106 l 1,36,-1
 447.951975824 479.769279121 l 1,37,-1
 461.033915975 477.711790882 l 1,38,-1
 463.631032838 464.726206568 l 1,39,-1
 466.231032838 451.726206568 l 1,40,-1
 468.631032838 439.726206568 l 1,41,-1
 471.373186819 426.015436662 l 1,42,-1
 459.098190483 419.319984115 l 1,43,-1
 426.098190483 401.319984115 l 1,44,-1
 420.747237514 398.401282495 l 1,45,-1
 414.696975104 399.140093417 l 1,46,-1
 121.404928706 434.954633736 l 1,47,-1
 23.2416741123 327.785575968 l 1,48,-1
 -0.481800502028 101.93809764 l 1,49,-1
 36.1742772028 35.2906836312 l 1,50,-1
 259.359200716 -0.494240813905 l 1,51,-1
 363.692081075 34.8728372739 l 1,52,-1
 404.115922304 166.485343603 l 1,53,-1
 404.483391232 167.359919651 l 1,54,-1
 504.483391232 405.359919651 l 1,55,-1
 509.235810745 416.670678092 l 1,56,-1
 521.50017304 416.993424468 l 1,57,-1
 559.50017304 417.993424468 l 1,58,-1
 586.222481462 418.69664311 l 1,59,-1
 578.102141087 393.228302842 l 1,60,-1
 556.102141087 324.228302842 l 1,61,-1
 555.541094751 322.698630611 l 1,62,-1
 478.848651366 138.449711749 l 1,63,-1
 614.954235867 21.9148648885 l 1,64,-1
 920.269710413 60.911545438 l 1,65,-1
 1037.75936693 199.678856288 l 1,66,-1
 1029.56138856 438.331115591 l 1,67,-1
 655.441466279 489.173053747 l 1,68,-1
 634.237838192 492.054572436 l 1,69,-1
 639.608058935 512.768281017 l 1,70,-1
 646.608058935 539.768281017 l 1,71,-1
 650.732420244 555.67653178 l 1,72,-1
 667.068896597 553.88702377 l 1,73,-1
 940.820258561 523.900125463 l 1,74,-1
 1020 605.690188048 l 1,75,-1
 1020 760.80014692 l 1,76,-1
 941.21731039 790.134127095 l 1,77,-1
 652.855203286 801.479521472 l 1,78,-1
 599.570295189 662.762611964 l 1,79,-1
 536.736467296 499.186944308 l 1,80,-1
 532.430417091 487.9769789 l 1,81,-1
 520.457233479 487.055964775 l 1,82,-1
 494.457233479 485.055964775 l 1,83,-1
 484.090227824 484.258502802 l 1,84,-1
 477.829894911 492.560248622 l 1,85,-1
 431.829894911 553.560248622 l 1,86,-1
 416.693254335 573.632750255 l 1,87,-1
 440.134899713 582.716387838 l 1,88,-1
 511.990276936 610.560346512 l 1,89,-1
 538.416516995 685.434693348 l 1,90,-1
 563.464517349 756.404027685 l 1,91,-1
 394.949288457 839.309915696 l 1,92,-1
 87.6619061619 861.056407366 l 1,34,-1
EndSplineSet
EndChar

StartChar: y
Encoding: 121 121 53
Width: 1024
VWidth: 0
Flags: W
LayerCount: 2
Fore
SplineSet
113 827 m 1,0,-1
 498 907 l 1,1,-1
 422 510 l 1,2,-1
 475 440 l 1,3,-1
 555 465 l 1,4,-1
 553 881 l 1,5,-1
 1013 813 l 1,6,-1
 1034 776 l 1,7,-1
 1034 520 l 1,8,-1
 973 422 l 1,9,-1
 625 279 l 1,10,-1
 625 270 l 1,11,-1
 973 391 l 1,12,-1
 844 168 l 1,13,-1
 862 70 l 1,14,-1
 784 10 l 1,15,-1
 199 14 l 1,16,-1
 184 127 l 1,17,-1
 207 217 l 1,18,-1
 15 393 l 1,19,-1
 48 410 l 1,20,-1
 349 322 l 1,21,-1
 350 329 l 1,22,-1
 78 442 l 1,23,-1
 -29 750 l 1,24,-1
 113 827 l 1,0,-1
119.60092811 808.96576885 m 1,25,-1
 -5.75616644863 740.990442927 l 1,26,-1
 93.1532988981 456.279084733 l 1,27,-1
 357.289366615 346.546086012 l 1,28,-1
 370.89217267 340.894920262 l 1,29,-1
 368.80904038 326.312994231 l 1,30,-1
 367.80904038 319.312994231 l 1,31,-1
 364.708900048 297.612011907 l 1,32,-1
 343.668368431 303.763396566 l 1,33,-1
 49.9536435159 389.633482255 l 1,34,-1
 47.9285799257 388.590267679 l 1,35,-1
 219.838767942 231.005928664 l 1,36,-1
 228.225292035 223.318281579 l 1,37,-1
 225.408392932 212.295632917 l 1,38,-1
 203.318435964 125.856670867 l 1,39,-1
 215.659604798 32.8865323194 l 1,40,-1
 777.595192031 29.0442377058 l 1,41,-1
 841.215862158 77.9832147266 l 1,42,-1
 825.312603842 164.567621114 l 1,43,-1
 824.047828363 171.453620943 l 1,44,-1
 827.553535377 177.513874154 l 1,45,-1
 930.957179955 356.265910904 l 1,46,-1
 631.239891675 252.053865266 l 1,47,-1
 606 243.277925919 l 1,48,-1
 606 270 l 1,49,-1
 606 279 l 1,50,-1
 606 291.734111137 l 1,51,-1
 617.778455373 296.574108603 l 1,52,-1
 960.108756256 437.244318449 l 1,53,-1
 1015 525.430251022 l 1,54,-1
 1015 770.983914254 l 1,55,-1
 1001.05151248 795.559820829 l 1,56,-1
 572.106137191 858.969137176 l 1,57,-1
 573.999780422 465.091345098 l 1,58,-1
 574.067275368 451.052396198 l 1,59,-1
 560.66722487 446.864880417 l 1,60,-1
 480.66722487 421.864880417 l 1,61,-1
 467.916187007 417.880181085 l 1,62,-1
 459.852093418 428.530870731 l 1,63,-1
 406.852093418 498.530870731 l 1,64,-1
 401.749513154 505.270127683 l 1,65,-1
 403.338866642 513.572408401 l 1,66,-1
 473.984704498 882.603956151 l 1,67,-1
 119.60092811 808.96576885 l 1,25,-1
EndSplineSet
EndChar

StartChar: z
Encoding: 122 122 54
Width: 1024
VWidth: 0
Flags: W
LayerCount: 2
Fore
SplineSet
114 813 m 1,0,-1
 639 836 l 1,1,-1
 849 805 l 1,2,-1
 999 641 l 1,3,-1
 999 508 l 1,4,-1
 439 348 l 1,5,-1
 452 319 l 1,6,-1
 556 272 l 1,7,-1
 550 344 l 1,8,-1
 882 444 l 1,9,-1
 1021 337 l 1,10,-1
 1036 79 l 1,11,-1
 1002 15 l 1,12,-1
 516 -20 l 1,13,-1
 191 14 l 1,14,-1
 -13 150 l 1,15,-1
 -11 287 l 1,16,-1
 569 532 l 1,17,-1
 517 551 l 1,18,-1
 271 457 l 1,19,-1
 241 408 l 1,20,-1
 58 334 l 1,21,-1
 -44 488 l 1,22,-1
 -69 660 l 1,23,-1
 114 813 l 1,0,-1
121.254597383 794.29959609 m 1,24,-1
 -48.6710747656 652.230591507 l 1,25,-1
 -25.8096557983 494.944029012 l 1,26,-1
 65.2685408743 357.433810506 l 1,27,-1
 147.48638248 390.680369407 l 1,28,-1
 228.067845651 423.265223367 l 1,29,-1
 254.795825223 466.920923333 l 1,30,-1
 258.174208363 472.43894913 l 1,31,-1
 264.218090977 474.74840021 l 1,32,-1
 510.218090977 568.74840021 l 1,33,-1
 516.851134469 571.282977804 l 1,34,-1
 523.520666106 568.846033552 l 1,35,-1
 575.520666106 549.846033552 l 1,36,-1
 620.858650698 533.280231489 l 1,37,-1
 576.39331428 514.497460071 l 1,38,-1
 171.59204242 343.503819372 l 1,39,-1
 7.81695830097 274.322964873 l 1,40,-1
 6.14901932753 160.069145193 l 1,41,-1
 197.63901948 32.4091450913 l 1,42,-1
 516.308448712 -0.928579812981 l 1,43,-1
 990.151861993 33.1959458348 l 1,44,-1
 1016.72301754 83.2122386349 l 1,45,-1
 1002.53557827 327.236194188 l 1,46,-1
 878.139780029 422.994110817 l 1,47,-1
 722.439253113 376.096361746 l 1,48,-1
 570.212123363 330.244816641 l 1,49,-1
 574.934369407 273.577864117 l 1,50,-1
 577.617490598 241.380409826 l 1,51,-1
 548.175391936 254.685973645 l 1,52,-1
 444.175391936 301.685973645 l 1,53,-1
 437.609620276 304.653197375 l 1,54,-1
 434.662322834 311.227937822 l 1,55,-1
 421.662322834 340.227937822 l 1,56,-1
 412.68998574 360.24315134 l 1,57,-1
 433.78029857 366.268955005 l 1,58,-1
 702.233906817 442.969985933 l 1,59,-1
 980 522.331726842 l 1,60,-1
 980 633.621399514 l 1,61,-1
 839.540450225 787.190507268 l 1,62,-1
 638.019592043 816.938824428 l 1,63,-1
 121.254597383 794.29959609 l 1,24,-1
EndSplineSet
EndChar

StartChar: exclam
Encoding: 33 33 55
Width: 763
VWidth: 0
Flags: W
LayerCount: 2
Fore
SplineSet
101 722 m 1,0,-1
 450 830 l 1,1,-1
 716 786 l 1,2,-1
 603 284 l 1,3,-1
 401 242 l 1,4,-1
 413 179 l 1,5,-1
 640 218 l 1,6,-1
 693 124 l 1,7,-1
 502 -53 l 1,8,-1
 208 -51 l 1,9,-1
 23 110 l 1,10,-1
 79 194 l 1,11,-1
 376 183 l 1,12,-1
 370 234 l 1,13,-1
 113 267 l 1,14,-1
 101 722 l 1,0,-1
396.663800184 163.221646983 m 1,15,-1
 375.29677845 164.013018158 l 1,16,-1
 88.9149920695 174.619750987 l 1,17,-1
 48.0774135491 113.363383207 l 1,18,-1
 215.165377614 -32.0483044389 l 1,19,-1
 494.604665232 -33.9492519737 l 1,20,-1
 669.080519113 127.737795864 l 1,21,-1
 630.024083572 197.007700409 l 1,22,-1
 416.217181138 160.274355938 l 1,23,-1
 397.82700711 157.114810621 l 1,24,-1
 396.663800184 163.221646983 l 1,15,-1
379.772463729 251.901163372 m 1,25,-1
 378.839591958 256.79874017 l 1,26,-1
 397.132224408 260.602158799 l 1,27,-1
 587.151175344 300.111049587 l 1,28,-1
 693.044319304 770.538998861 l 1,29,-1
 451.328301172 810.522099604 l 1,30,-1
 120.373038109 708.106144273 l 1,31,-1
 131.564261549 283.772255481 l 1,32,-1
 372.419821555 252.845276958 l 1,33,-1
 379.772463729 251.901163372 l 1,25,-1
EndSplineSet
EndChar

StartChar: quotedbl
Encoding: 34 34 56
Width: 563
VWidth: 0
Flags: W
LayerCount: 2
Fore
SplineSet
47 609 m 25,0,-1
 307 858 l 1,1,-1
 377 849 l 1,2,-1
 377 759 l 1,3,-1
 247 613 l 1,4,-1
 277 584 l 1,5,-1
 461 753 l 1,6,-1
 516 722 l 1,7,-1
 520 596 l 1,8,-1
 199 271 l 1,9,-1
 101 357 l 1,10,-1
 237 543 l 1,11,-1
 230 573 l 1,12,-1
 100 417 l 1,13,-1
 80 432 l 1,14,-1
 47 609 l 25,0,-1
246.151785797 587.393922072 m 1,15,-1
 248.502982985 577.317362697 l 1,16,-1
 255.502982985 547.317362697 l 1,17,-1
 257.484534119 538.825000693 l 1,18,-1
 252.337409117 531.785550323 l 1,19,-1
 126.596473031 359.816328911 l 1,20,-1
 198.069079631 297.095470058 l 1,21,-1
 500.750780419 603.548905436 l 1,22,-1
 497.349090584 710.702135254 l 1,23,-1
 463.690665633 729.673247499 l 1,24,-1
 289.85253692 570.006705366 l 1,25,-1
 276.666896734 557.8959815 l 1,26,-1
 263.79458016 570.339220855 l 1,27,-1
 246.151785797 587.393922072 l 1,15,-1
230.15155365 602.860813148 m 1,28,-1
 220.682174768 612.014546067 l 1,29,-1
 232.809952716 625.634973609 l 1,30,-1
 358 766.233026712 l 1,31,-1
 358 832.286460012 l 1,32,-1
 313.583481004 837.997155312 l 1,33,-1
 67.5610162165 602.383333266 l 1,34,-1
 97.2139637984 443.335705327 l 1,35,-1
 215.403795688 585.163503594 l 1,36,-1
 230.15155365 602.860813148 l 1,28,-1
EndSplineSet
EndChar

StartChar: numbersign
Encoding: 35 35 57
Width: 1024
VWidth: 0
Flags: W
LayerCount: 2
Fore
SplineSet
349 779 m 1,0,-1
 563 793 l 1,1,-1
 572 723 l 1,2,-1
 560 656 l 1,3,-1
 668 650 l 1,4,-1
 707 803 l 1,5,-1
 838 812 l 1,6,-1
 846 738 l 1,7,-1
 833 640 l 1,8,-1
 893 636 l 1,9,-1
 982 493 l 1,10,-1
 909 476 l 1,11,-1
 812 474 l 1,12,-1
 800 378 l 1,13,-1
 993 384 l 1,14,-1
 1063 278 l 1,15,-1
 987 262 l 1,16,-1
 780 237 l 1,17,-1
 749 43 l 1,18,-1
 655 24 l 1,19,-1
 528 97 l 1,20,-1
 557 211 l 1,21,-1
 500 205 l 1,22,-1
 460 204 l 1,23,-1
 409 60 l 1,24,-1
 284 42 l 1,25,-1
 148 113 l 1,26,-1
 175 201 l 1,27,-1
 107 200 l 1,28,-1
 54 261 l 1,29,-1
 91 358 l 1,30,-1
 223 362 l 1,31,-1
 254 465 l 1,32,-1
 145 465 l 1,33,-1
 82 547 l 1,34,-1
 142 681 l 1,35,-1
 317 671 l 1,36,-1
 349 779 l 1,0,-1
622 469 m 1,37,-1
 526 467 l 1,38,-1
 509 370 l 1,39,-1
 598 373 l 1,40,-1
 622 469 l 1,37,-1
363.455006431 760.905039464 m 1,41,-1
 335.217164141 665.602321736 l 1,42,-1
 330.941614352 651.172341196 l 1,43,-1
 315.91605398 652.030944646 l 1,44,-1
 153.989595776 661.283885115 l 1,45,-1
 103.974780695 549.584131433 l 1,46,-1
 154.362588991 484 l 1,47,-1
 254 484 l 1,48,-1
 279.560337428 484 l 1,49,-1
 272.193830576 459.524186914 l 1,50,-1
 241.193830576 356.524186914 l 1,51,-1
 237.250791188 343.423120559 l 1,52,-1
 223.575493406 343.008717596 l 1,53,-1
 104.237579666 339.39241718 l 1,54,-1
 75.8102437149 264.866698605 l 1,55,-1
 115.550599545 219.127798498 l 1,56,-1
 174.720618444 219.997945835 l 1,57,-1
 200.820874722 220.381773133 l 1,58,-1
 193.164258336 195.426875283 l 1,59,-1
 170.798534636 122.531183224 l 1,60,-1
 287.359129957 61.67969596 l 1,61,-1
 394.924284881 77.1690782689 l 1,62,-1
 442.090082722 210.343095703 l 1,63,-1
 446.454908365 222.667309282 l 1,64,-1
 459.525148368 222.994065282 l 1,65,-1
 498.766101352 223.975089106 l 1,66,-1
 555.010989094 229.895603606 l 1,67,-1
 582.138307011 232.751110755 l 1,68,-1
 575.413548151 206.315851786 l 1,69,-1
 549.967856299 106.287959679 l 1,70,-1
 658.257574365 44.0426886651 l 1,71,-1
 732.317617407 59.0122718333 l 1,72,-1
 761.238024871 239.998047572 l 1,73,-1
 763.498644168 254.145148984 l 1,74,-1
 777.721868395 255.862929687 l 1,75,-1
 983.897927202 280.763419881 l 1,76,-1
 1031.75288729 290.83814832 l 1,77,-1
 982.989652428 364.679618248 l 1,78,-1
 800.590388348 359.009174805 l 1,79,-1
 778.392021615 358.319070139 l 1,80,-1
 781.146720342 380.356659957 l 1,81,-1
 793.146720342 476.356659957 l 1,82,-1
 795.184303205 492.657322859 l 1,83,-1
 811.608330668 492.995962601 l 1,84,-1
 906.623837884 494.955045224 l 1,85,-1
 951.849065493 505.486947544 l 1,86,-1
 882.016354392 617.690067628 l 1,87,-1
 831.7361388 621.042082001 l 1,88,-1
 811.497712509 622.39131042 l 1,89,-1
 814.164995545 642.498520999 l 1,90,-1
 826.864266773 738.23148872 l 1,91,-1
 821.073903269 791.792351135 l 1,92,-1
 722.015960129 784.986843591 l 1,93,-1
 686.411276171 645.306929603 l 1,94,-1
 682.550885255 630.162319088 l 1,95,-1
 666.946069627 631.029253289 l 1,96,-1
 558.946069627 637.029253289 l 1,97,-1
 537.5131775 638.219969518 l 1,98,-1
 541.297603778 659.349682905 l 1,99,-1
 552.782616587 723.474337754 l 1,100,-1
 546.431046987 772.87543464 l 1,101,-1
 363.455006431 760.905039464 l 1,41,-1
621.60425254 487.995878078 m 1,102,-1
 646.463194899 488.51377271 l 1,103,-1
 640.432707503 464.391823124 l 1,104,-1
 616.432707503 368.391823124 l 1,105,-1
 612.958105415 354.493414773 l 1,106,-1
 598.640085902 354.010784902 l 1,107,-1
 509.640085902 351.010784902 l 1,108,-1
 486.244192279 350.222159274 l 1,109,-1
 490.28524072 373.279906265 l 1,110,-1
 507.28524072 470.279906265 l 1,111,-1
 509.982548286 485.670425906 l 1,112,-1
 525.60425254 485.995878078 l 1,113,-1
 621.60425254 487.995878078 l 1,102,-1
EndSplineSet
EndChar

StartChar: dollar
Encoding: 36 36 58
Width: 1024
VWidth: 0
Flags: W
LayerCount: 2
Fore
SplineSet
648 917 m 1,0,-1
 717 851 l 1,1,-1
 684 710 l 1,2,-1
 956 571 l 1,3,-1
 998 353 l 1,4,-1
 870 202 l 1,5,-1
 689 248 l 1,6,-1
 663 488 l 1,7,-1
 633 495 l 1,8,-1
 600 355 l 1,9,-1
 658 331 l 1,10,-1
 672 225 l 1,11,-1
 872 178 l 1,12,-1
 918 229 l 1,13,-1
 958 164 l 1,14,-1
 863 -29 l 1,15,-1
 504 -54 l 1,16,-1
 459 -246 l 1,17,-1
 301 -178 l 1,18,-1
 298 -68 l 1,19,-1
 251 -71 l 1,20,-1
 11 327 l 1,21,-1
 81 382 l 1,22,-1
 260 364 l 1,23,-1
 314 181 l 1,24,-1
 356 169 l 1,25,-1
 392 261 l 1,26,-1
 301 285 l 1,27,-1
 217 575 l 1,28,-1
 525 791 l 1,29,-1
 587 760 l 1,30,-1
 648 917 l 1,0,-1
496 528 m 1,31,-1
 364 560 l 1,32,-1
 305 512 l 1,33,-1
 310 444 l 1,34,-1
 448 403 l 1,35,-1
 496 528 l 1,31,-1
544 117 m 1,36,-1
 616 97 l 1,37,-1
 683 157 l 1,38,-1
 676 187 l 1,39,-1
 568 215 l 1,40,-1
 544 117 l 1,36,-1
655.413160298 883.616735472 m 1,41,-1
 604.710204885 753.118964981 l 1,42,-1
 597.157034187 733.67883712 l 1,43,-1
 578.502941686 743.005883371 l 1,44,-1
 526.63487154 768.939918444 l 1,45,-1
 239.028217993 567.241745827 l 1,46,-1
 309.482394262 324.007089661 l 1,47,-1
 316.254714333 300.626460845 l 1,48,-1
 396.845309466 279.371798393 l 1,49,-1
 417.463940932 273.933917566 l 1,50,-1
 409.693612814 254.076412377 l 1,51,-1
 373.693612814 162.076412377 l 1,52,-1
 367.396418393 145.983582188 l 1,53,-1
 350.78029857 150.731044995 l 1,54,-1
 308.78029857 162.731044995 l 1,55,-1
 298.733902195 165.601443959 l 1,56,-1
 295.776819663 175.622668097 l 1,57,-1
 252.00839861 323.948983887 l 1,58,-1
 245.391417793 346.373196654 l 1,59,-1
 86.7176729235 362.329215691 l 1,60,-1
 35.9409723432 322.433236664 l 1,61,-1
 261.309718227 -51.3032669262 l 1,62,-1
 296.78969707 -49.0385874256 l 1,63,-1
 316.455700546 -47.783310608 l 1,64,-1
 316.992937824 -67.4820107866 l 1,65,-1
 319.661977381 -165.346794552 l 1,66,-1
 445.677048514 -219.581128963 l 1,67,-1
 485.501290099 -49.664364867 l 1,68,-1
 488.699306714 -36.0194939768 l 1,69,-1
 502.680076793 -35.0459027457 l 1,70,-1
 850.779056576 -10.8050267162 l 1,71,-1
 936.319738909 162.977622656 l 1,72,-1
 915.115698553 197.434188236 l 1,73,-1
 886.108824748 165.274393365 l 1,74,-1
 878.586619295 156.934556884 l 1,75,-1
 867.65340749 159.503861658 l 1,76,-1
 754.482675782 186.09898361 l 1,77,-1
 667.65340749 206.503861658 l 1,78,-1
 654.881473397 209.50526617 l 1,79,-1
 653.163580309 222.512170984 l 1,80,-1
 640.599834844 317.637672361 l 1,81,-1
 592.735315938 337.443680184 l 1,82,-1
 577.79797087 343.624650557 l 1,83,-1
 581.506807651 359.359109625 l 1,84,-1
 614.506807651 499.359109625 l 1,85,-1
 618.856090621 517.810613136 l 1,86,-1
 637.317362697 513.502982985 l 1,87,-1
 667.317362697 506.502982985 l 1,88,-1
 680.438347348 503.4414199 l 1,89,-1
 681.889478815 490.046360205 l 1,90,-1
 706.468344134 263.164526491 l 1,91,-1
 765.690709788 248.113538535 l 1,92,-1
 863.179457014 223.337392831 l 1,93,-1
 977.621222422 358.342912961 l 1,94,-1
 939.097262566 558.300609355 l 1,95,-1
 675.353985837 693.081180919 l 1,96,-1
 662.110766267 699.848855626 l 1,97,-1
 665.499924603 714.32980488 l 1,98,-1
 696.027964269 844.767792543 l 1,99,-1
 655.413160298 883.616735472 l 1,41,-1
500.476400487 546.465152008 m 1,100,-1
 521.487369016 541.37158388 l 1,101,-1
 513.737221128 521.188907087 l 1,102,-1
 465.737221128 396.188907087 l 1,103,-1
 459.436704228 379.781310995 l 1,104,-1
 442.588842336 384.786835181 l 1,105,-1
 304.588842336 425.786835181 l 1,106,-1
 292.013186128 429.523080866 l 1,107,-1
 291.051155119 442.606702582 l 1,108,-1
 286.051155119 510.606702582 l 1,109,-1
 285.324691625 520.486606104 l 1,110,-1
 293.009338119 526.738521895 l 1,111,-1
 352.009338119 574.738521895 l 1,112,-1
 359.318775019 580.685182424 l 1,113,-1
 368.476400487 578.465152008 l 1,114,-1
 500.476400487 546.465152008 l 1,100,-1
538.914766588 98.693159717 m 1,115,-1
 521.162839576 103.624250554 l 1,116,-1
 525.545351079 121.519505858 l 1,117,-1
 549.545351079 219.519505858 l 1,118,-1
 554.126299993 238.225047257 l 1,119,-1
 572.768281017 233.391941065 l 1,120,-1
 680.768281017 205.391941065 l 1,121,-1
 691.891820153 202.508060548 l 1,122,-1
 694.502982985 191.317362697 l 1,123,-1
 701.502982985 161.317362697 l 1,124,-1
 704.060785336 150.355352623 l 1,125,-1
 695.67527626 142.84594151 l 1,126,-1
 628.67527626 82.84594151 l 1,127,-1
 620.931088569 75.9108480556 l 1,128,-1
 610.914766588 78.693159717 l 1,129,-1
 538.914766588 98.693159717 l 1,115,-1
EndSplineSet
EndChar

StartChar: percent
Encoding: 37 37 59
Width: 839
VWidth: 0
Flags: W
LayerCount: 2
Fore
SplineSet
630 329 m 29,0,-1
 755 271 l 1,1,-1
 763 93 l 1,2,-1
 734 6 l 1,3,-1
 560 1 l 1,4,-1
 508 118 l 1,5,-1
 630 329 l 29,0,-1
134 691 m 5,6,-1
 260 675 l 1,7,-1
 286 570 l 1,8,-1
 149 388 l 1,9,-1
 96 401 l 1,10,-1
 39 608 l 1,11,-1
 134 691 l 5,6,-1
427 689 m 29,12,-1
 690 684 l 1,13,-1
 742 617 l 1,14,-1
 389 1 l 1,15,-1
 217 10 l 1,16,-1
 90 192 l 1,17,-1
 427 689 l 29,12,-1
637.75583247 304.45560549 m 1,18,-1
 529.294150108 116.870236815 l 1,19,-1
 572.188439628 20.3580853966 l 1,20,-1
 720.175773146 24.6105949805 l 1,21,-1
 743.860989052 95.6662426988 l 1,22,-1
 736.537176964 258.621061645 l 1,23,-1
 637.75583247 304.45560549 l 1,18,-1
140.073506957 671.076186426 m 1,24,-1
 60.4856017624 601.541490308 l 1,25,-1
 111.357470873 416.796281435 l 1,26,-1
 141.356130347 409.438119677 l 1,27,-1
 265.384688774 574.205985616 l 1,28,-1
 244.687223017 657.791905022 l 1,29,-1
 140.073506957 671.076186426 l 1,24,-1
436.942238628 669.807550748 m 1,30,-1
 113.060759234 192.154449089 l 1,31,-1
 227.267033719 28.4887643931 l 1,32,-1
 378.32440264 20.5845997403 l 1,33,-1
 719.187171088 615.404614935 l 1,34,-1
 680.558585883 665.176061256 l 1,35,-1
 436.942238628 669.807550748 l 1,30,-1
EndSplineSet
EndChar

StartChar: asciicircum
Encoding: 94 94 60
Width: 827
VWidth: 0
Flags: W
LayerCount: 2
Fore
SplineSet
13 524 m 25,0,-1
 392 838 l 1,1,-1
 781 514 l 1,2,-1
 536 514 l 1,3,-1
 402 778 l 1,4,-1
 286 510 l 1,5,-1
 13 524 l 25,0,-1
415.220611771 793.932192383 m 1,6,-1
 418.942465611 786.599584818 l 1,7,-1
 547.663466995 533 l 1,8,-1
 728.500311884 533 l 1,9,-1
 415.220611771 793.932192383 l 1,6,-1
395.354530854 810.47874821 m 1,10,-1
 391.967782169 813.299587732 l 1,11,-1
 62.6701240965 540.477781308 l 1,12,-1
 273.80200777 529.650505222 l 1,13,-1
 384.563279781 785.54723711 l 1,14,-1
 395.354530854 810.47874821 l 1,10,-1
EndSplineSet
EndChar

StartChar: underscore
Encoding: 95 95 61
Width: 983
VWidth: 0
Flags: W
LayerCount: 2
Fore
SplineSet
65 -63 m 25,0,-1
 97 -37 l 1,1,-1
 804 -33 l 1,2,-1
 845 -55 l 1,3,-1
 790 -246 l 1,4,-1
 101 -229 l 1,5,-1
 65 -63 l 25,0,-1
86.0429211771 -70.3835661957 m 1,6,-1
 116.402345785 -210.374246334 l 1,7,-1
 775.801694214 -226.64389644 l 1,8,-1
 822.496036184 -64.4871815973 l 1,9,-1
 799.274858665 -52.0270375623 l 1,10,-1
 103.792697435 -55.9618729865 l 1,11,-1
 86.0429211771 -70.3835661957 l 1,6,-1
EndSplineSet
EndChar

StartChar: grave
Encoding: 96 96 62
Width: 591
VWidth: 0
Flags: W
LayerCount: 2
Fore
SplineSet
228 838 m 25,0,-1
 366 827 l 1,1,-1
 521 465 l 1,2,-1
 437 418 l 1,3,-1
 351 432 l 1,4,-1
 261 588 l 1,5,-1
 83 623 l 1,6,-1
 40 768 l 1,7,-1
 228 838 l 25,0,-1
230.685665277 818.725660587 m 1,8,-1
 63.2617229194 756.386958646 l 1,9,-1
 97.9470563389 639.424787813 l 1,10,-1
 264.665762317 606.643019783 l 1,11,-1
 273.141107234 604.976519378 l 1,12,-1
 277.457526135 597.494726616 l 1,13,-1
 362.951916058 449.304450749 l 1,14,-1
 433.508690668 437.818464185 l 1,15,-1
 496.805686399 473.234640367 l 1,16,-1
 353.050773827 808.971920051 l 1,17,-1
 230.685665277 818.725660587 l 1,8,-1
EndSplineSet
EndChar

StartChar: ampersand
Encoding: 38 38 63
Width: 991
VWidth: 0
Flags: W
LayerCount: 2
Fore
SplineSet
73 760 m 25,0,-1
 374 580 l 1,1,-1
 443 395 l 1,2,-1
 509 567 l 1,3,-1
 853 756 l 1,4,-1
 974 559 l 1,5,-1
 650 426 l 1,6,-1
 701 371 l 1,7,-1
 822 164 l 1,8,-1
 591 -96 l 1,9,-1
 265 -72 l 1,10,-1
 163 172 l 1,11,-1
 392 260 l 1,12,-1
 402 238 l 1,13,-1
 355 70 l 1,14,-1
 478 16 l 1,15,-1
 566 184 l 1,16,-1
 462 311 l 1,17,-1
 419 268 l 1,18,-1
 402 295 l 1,19,-1
 171 201 l 1,20,-1
 239 434 l 1,21,-1
 15 571 l 1,22,-1
 73 760 l 25,0,-1
84.0525062472 731.25237269 m 1,23,-1
 37.488453227 579.517786124 l 1,24,-1
 248.913403426 450.208776404 l 1,25,-1
 261.310295938 442.626748395 l 1,26,-1
 257.239123022 428.67699414 l 1,27,-1
 200.253319374 233.416813992 l 1,28,-1
 306.706089603 276.735257289 l 1,29,-1
 394.838619724 312.598711104 l 1,30,-1
 409.591819088 318.602177512 l 1,31,-1
 418.078423962 305.123452124 l 1,32,-1
 422.396026192 298.266083877 l 1,33,-1
 448.564971157 324.435028843 l 1,34,-1
 463.404117419 339.274175104 l 1,35,-1
 476.700030233 323.037820033 l 1,36,-1
 580.700030233 196.037820033 l 1,37,-1
 588.661639145 186.315470689 l 1,38,-1
 582.83079917 175.183867101 l 1,39,-1
 494.83079917 7.18386710126 l 1,40,-1
 486.601467153 -8.52667584114 l 1,41,-1
 470.362188821 -1.39723657363 l 1,42,-1
 347.362188821 52.6027634264 l 1,43,-1
 332.258462103 59.2336678395 l 1,44,-1
 336.702552924 75.1189286464 l 1,45,-1
 381.614258774 235.654387857 l 1,46,-1
 310.019494042 208.141989183 l 1,47,-1
 188.074251031 161.2809351 l 1,48,-1
 278.030223271 -53.9078612406 l 1,49,-1
 583.031882895 -76.3619711515 l 1,50,-1
 798.639716244 166.313512272 l 1,51,-1
 685.649537316 359.610760521 l 1,52,-1
 636.06790502 413.081148291 l 1,53,-1
 617.438142972 433.172068147 l 1,54,-1
 642.784857542 443.576738017 l 1,55,-1
 946.11730175 568.092833942 l 1,56,-1
 846.284035455 730.631292291 l 1,57,-1
 524.246472581 553.697863852 l 1,58,-1
 460.738877266 388.193221514 l 1,59,-1
 442.74758536 341.306824427 l 1,60,-1
 425.19791009 388.360301601 l 1,61,-1
 358.52740255 567.114560947 l 1,62,-1
 84.0525062472 731.25237269 l 1,23,-1
EndSplineSet
EndChar

StartChar: quotesingle
Encoding: 39 39 64
Width: 483
VWidth: 0
Flags: W
LayerCount: 2
Fore
SplineSet
36 811 m 25,0,-1
 91 967 l 1,1,-1
 298 918 l 1,2,-1
 423 770 l 1,3,-1
 376 600 l 1,4,-1
 155 422 l 1,5,-1
 44 524 l 1,6,-1
 138 735 l 1,7,-1
 36 811 l 25,0,-1
58.5707920156 817.876781926 m 1,8,-1
 149.352145128 750.235773725 l 1,9,-1
 161.541531561 741.153485794 l 1,10,-1
 155.355628866 727.268108467 l 1,11,-1
 66.9148689087 528.746828138 l 1,12,-1
 155.816123413 447.053783459 l 1,13,-1
 359.317254682 610.959671992 l 1,14,-1
 402.015387853 765.399728144 l 1,15,-1
 287.526927233 900.954065518 l 1,16,-1
 103.240859701 944.577337542 l 1,17,-1
 58.5707920156 817.876781926 l 1,8,-1
EndSplineSet
EndChar

StartChar: parenleft
Encoding: 40 40 65
Width: 525
VWidth: 0
Flags: W
LayerCount: 2
Fore
SplineSet
91 511 m 25,0,-1
 162 689 l 1,1,-1
 404 805 l 1,2,-1
 447 808 l 1,3,-1
 462 642 l 1,4,-1
 279 571 l 1,5,-1
 172 382 l 1,6,-1
 187 183 l 1,7,-1
 312 7 l 1,8,-1
 379 -23 l 1,9,-1
 331 -161 l 1,10,-1
 136 -97 l 1,11,-1
 52 296 l 1,12,-1
 91 511 l 25,0,-1
109.354506277 505.732200239 m 1,13,-1
 71.3647359412 296.301415053 l 1,14,-1
 152.298295416 -82.3520239173 l 1,15,-1
 319.187497316 -137.125915823 l 1,16,-1
 355.329103502 -33.2187980391 l 1,17,-1
 304.23537003 -10.3410069325 l 1,18,-1
 299.508382865 -8.22444551508 l 1,19,-1
 296.509385341 -4.00185700199 l 1,20,-1
 171.509385341 171.998142998 l 1,21,-1
 168.450773805 176.304668041 l 1,22,-1
 168.053746988 181.571890476 l 1,23,-1
 153.053746988 380.571890476 l 1,24,-1
 152.619493967 386.332980553 l 1,25,-1
 155.465827396 391.360616236 l 1,26,-1
 262.465827396 580.360616236 l 1,27,-1
 265.806266664 586.261018307 l 1,28,-1
 272.127536449 588.713532814 l 1,29,-1
 441.789573791 654.538694843 l 1,30,-1
 429.752363256 787.750491428 l 1,31,-1
 408.941329955 786.298558872 l 1,32,-1
 176.900260991 675.072261352 l 1,33,-1
 109.354506277 505.732200239 l 1,13,-1
EndSplineSet
EndChar

StartChar: parenright
Encoding: 41 41 66
Width: 583
VWidth: 0
Flags: W
LayerCount: 2
Fore
SplineSet
62 879 m 25,0,-1
 374 799 l 1,1,2
 491 537 491 537 493 535 c 2,3,4
 546 201 l 1,5,-1
 470 -4 l 1,6,-1
 267 -152 l 1,7,-1
 28 -145 l 1,8,-1
 62 53 l 1,9,-1
 261 72 l 1,10,-1
 355 137 l 1,11,12
 370 445 370 445 370 449 c 0,13,14
 370 451 370 451 319 509.5 c 128,-1,15
 268 568 268 568 216.5 626 c 2,16,-1
 165 684 l 1,17,-1
 56 715 l 1,18,-1
 62 879 l 25,0,-1
80.1250735168 854.73789804 m 1,19,-1
 75.532166947 729.198451801 l 1,20,-1
 170.197553424 702.275268491 l 1,21,-1
 175.527974526 700.759277168 l 1,22,-1
 179.207532467 696.615309001 l 1,23,-1
 230.707532467 638.615309001 l 2,24,25
 282.26493635 580.550659255 282.26493635 580.550659255 333.321681868 521.985568808 c 0,26,27
 342.796524497 511.11736697 342.796524497 511.11736697 355.418512374 498.176319271 c 128,-1,28
 368.040500251 485.235271572 368.040500251 485.235271572 373.968773542 478.964657769 c 128,-1,29
 379.897046834 472.694043966 379.897046834 472.694043966 384.448523417 464.676055007 c 128,-1,30
 389 456.658066048 389 456.658066048 389 449 c 0,31,32
 389 444.537611675 389 444.537611675 373.977507746 136.075770727 c 2,33,-1
 373.521243124 126.707137153 l 1,34,-1
 365.806342867 121.372365699 l 1,35,-1
 271.806342867 56.3723656994 l 1,36,-1
 267.734261596 53.5565648202 l 1,37,-1
 262.805857986 53.0860137218 l 1,38,-1
 78.2673305377 35.4667573322 l 1,39,-1
 50.4293093605 -126.648777759 l 1,40,-1
 261.059049724 -132.817849652 l 1,41,-1
 454.176677021 7.97726778612 l 1,42,-1
 526.454764604 202.937898767 l 1,43,-1
 474.722225594 528.950503094 l 1,44,45
 463.868404128 551.198793954 463.868404128 551.198793954 360.393019002 782.874322274 c 1,46,-1
 80.1250735168 854.73789804 l 1,19,-1
EndSplineSet
EndChar

StartChar: asterisk
Encoding: 42 42 67
Width: 802
VWidth: 0
Flags: W
LayerCount: 2
Fore
SplineSet
333 336 m 25,0,-1
 284 520 l 1,1,-1
 544 532 l 1,2,-1
 503 336 l 1,3,-1
 636 461 l 1,4,-1
 742 336 l 1,5,-1
 570 266 l 1,6,-1
 773 256 l 1,7,-1
 767 76 l 1,8,-1
 564 121 l 1,9,-1
 685 -35 l 1,10,-1
 523 -102 l 1,11,-1
 445 72 l 1,12,-1
 439 -139 l 1,13,-1
 212 -129 l 1,14,-1
 302 92 l 1,15,-1
 126 -37 l 1,16,-1
 15 129 l 1,17,-1
 249 197 l 1,18,-1
 38 322 l 1,19,-1
 159 502 l 1,20,-1
 333 336 l 25,0,-1
351.360118956 340.889379504 m 1,21,-1
 368.733772267 275.6495385 l 1,22,-1
 319.884719508 322.252657798 l 1,23,-1
 162.193522148 472.693685165 l 1,24,-1
 64.990526724 328.09418784 l 1,25,-1
 258.684121709 213.346797445 l 1,26,-1
 296.416875336 190.993270416 l 1,27,-1
 254.302032885 178.754769191 l 1,28,-1
 45.2154072178 117.994553185 l 1,29,-1
 130.767641958 -9.94842849923 l 1,30,-1
 290.767865478 107.324462603 l 1,31,-1
 344.919457926 147.015118432 l 1,32,-1
 319.596785075 84.8338884309 l 1,33,-1
 239.762117329 -111.204573479 l 1,34,-1
 420.55623243 -119.169071942 l 1,35,-1
 426.007677113 72.5400660537 l 1,36,-1
 428.368155586 155.550225702 l 1,37,-1
 462.337677166 79.7720621778 l 1,38,-1
 532.789768397 -77.3902951853 l 1,39,-1
 654.720159059 -26.9622941094 l 1,40,-1
 548.98677495 109.355126724 l 1,41,-1
 516.732410055 150.939266589 l 1,42,-1
 568.112002837 139.549701687 l 1,43,-1
 748.772838481 99.5017331942 l 1,44,-1
 753.387550417 237.943091273 l 1,45,-1
 569.065172973 247.023011345 l 1,46,-1
 483.342859404 251.245785412 l 1,47,-1
 562.837859724 283.598401821 l 1,48,-1
 710.547707129 343.712874603 l 1,49,-1
 634.441489463 433.460772794 l 1,50,-1
 516.012184822 322.15503535 l 1,51,-1
 472.049493106 280.836716068 l 1,52,-1
 484.402535771 339.890285885 l 1,53,-1
 520.382007749 511.889712898 l 1,54,-1
 308.427117865 502.107179519 l 1,55,-1
 351.360118956 340.889379504 l 1,21,-1
EndSplineSet
EndChar

StartChar: plus
Encoding: 43 43 68
Width: 731
VWidth: 0
Flags: W
LayerCount: 2
Fore
SplineSet
263 336 m 25,0,-1
 259 510 l 1,1,-1
 472 512 l 1,2,3
 476 303 476 303 476 301 c 0,4,5
 476 300 476 300 588.5 299 c 128,-1,6
 701 298 701 298 701 297 c 2,7,-1
 710 80 l 1,8,-1
 490 88 l 1,9,-1
 488 -84 l 1,10,-1
 251 -82 l 1,11,-1
 261 82 l 1,12,-1
 32 100 l 1,13,-1
 22 336 l 1,14,-1
 263 336 l 25,0,-1
462.603894948 287.517225296 m 1,15,-1
 457.000118765 300.907041164 l 2,16,17
 456.930090141 306.378027434 456.930090141 306.378027434 453.363440931 492.824171277 c 1,18,-1
 278.437624979 491.181675353 l 1,19,-1
 282.441801424 317 l 1,20,-1
 41.8221339766 317 l 1,21,-1
 50.2703327848 117.622508126 l 1,22,-1
 281.101057271 99.4786083847 l 1,23,-1
 271.183480649 -63.1696482135 l 1,24,-1
 469.22149632 -64.8408550968 l 1,25,-1
 471.227729354 107.695185857 l 1,26,-1
 690.165212143 99.7338228465 l 1,27,-1
 682.738456847 278.801144994 l 1,28,29
 655.504531718 279.40365356 655.504531718 279.40365356 588.331117783 280.000750573 c 0,30,31
 565.48357647 280.203839829 565.48357647 280.203839829 530.693479374 278.549333327 c 128,-1,32
 495.903382278 276.894826824 495.903382278 276.894826824 483.015581217 278.460803201 c 128,-1,33
 470.127780156 280.026779578 470.127780156 280.026779578 462.603894948 287.517225296 c 1,15,-1
EndSplineSet
EndChar

StartChar: comma
Encoding: 44 44 69
Width: 460
VWidth: 0
Flags: W
LayerCount: 2
Fore
SplineSet
136 57 m 25,0,-1
 50 76 l 1,1,-1
 13 203 l 1,2,-1
 134 305 l 1,3,-1
 353 299 l 1,4,-1
 400 123 l 1,5,-1
 130 -135 l 1,6,-1
 73 -109 l 1,7,-1
 204 76 l 1,8,-1
 191 119 l 1,9,-1
 136 57 l 25,0,-1
129.196199733 77.9613375079 m 1,10,-1
 176.786581871 131.608677373 l 1,11,-1
 199.348291557 157.041877382 l 1,12,-1
 209.187017119 124.498400524 l 1,13,-1
 222.187017119 81.4984005243 l 1,14,-1
 224.876137088 72.6036190879 l 1,15,-1
 219.506112234 65.0199962022 l 1,16,-1
 101.77464303 -101.242002291 l 1,17,-1
 126.177323825 -112.373049672 l 1,18,-1
 378.741087863 128.965658187 l 1,19,-1
 338.302425221 280.395543825 l 1,20,-1
 140.713223994 285.808946599 l 1,21,-1
 34.700318026 196.442695287 l 1,22,-1
 65.0924381564 92.1237964608 l 1,23,-1
 129.196199733 77.9613375079 l 1,10,-1
EndSplineSet
EndChar

StartChar: hyphen
Encoding: 45 45 70
Width: 616
VWidth: 0
Flags: W
LayerCount: 2
Fore
SplineSet
15 231 m 25,0,-1
 546 242 l 1,1,-1
 581 201 l 1,2,-1
 570 43 l 1,3,-1
 58 51 l 1,4,-1
 26 74 l 1,5,-1
 15 231 l 25,0,-1
35.3485393096 212.417456462 m 1,6,-1
 44.3302680526 84.2236916753 l 1,7,-1
 64.2524482044 69.9046246912 l 1,8,-1
 552.296214098 62.2789408491 l 1,9,-1
 561.506443773 194.571330727 l 1,10,-1
 537.393741119 222.81763955 l 1,11,-1
 35.3485393096 212.417456462 l 1,6,-1
EndSplineSet
EndChar

StartChar: period
Encoding: 46 46 71
Width: 339
VWidth: 0
Flags: W
LayerCount: 2
Fore
SplineSet
54 176 m 25,0,-1
 169 190 l 1,1,-1
 318 125 l 1,2,-1
 308 -25 l 1,3,-1
 214 -82 l 1,4,-1
 101 -70 l 1,5,-1
 5 35 l 1,6,-1
 54 176 l 25,0,-1
68.0577572736 158.571103022 m 1,7,-1
 26.6650881825 39.4615858411 l 1,8,-1
 110.164997485 -51.8664399589 l 1,9,-1
 209.630760164 -62.4291758186 l 1,10,-1
 289.699362019 -13.8769385232 l 1,11,-1
 298.153079806 112.928828276 l 1,12,-1
 166.152324594 170.513050348 l 1,13,-1
 68.0577572736 158.571103022 l 1,7,-1
EndSplineSet
EndChar

StartChar: slash
Encoding: 47 47 72
Width: 860
VWidth: 0
Flags: W
LayerCount: 2
Fore
SplineSet
452 760 m 25,0,-1
 828 752 l 1,1,-1
 845 657 l 1,2,-1
 464 90 l 1,3,-1
 388 49 l 1,4,-1
 62 59 l 1,5,-1
 19 88 l 1,6,-1
 452 760 l 25,0,-1
462.217257059 740.77831145 m 1,7,-1
 45.049298268 93.3490543883 l 1,8,-1
 68.071125106 77.8227060558 l 1,9,-1
 383.475663449 68.147720217 l 1,10,-1
 450.847725575 104.493174785 l 1,11,-1
 824.943356421 661.218168721 l 1,12,-1
 812.038183231 733.335313021 l 1,13,-1
 462.217257059 740.77831145 l 1,7,-1
EndSplineSet
EndChar

StartChar: zero
Encoding: 48 48 73
Width: 917
VWidth: 0
Flags: W
LayerCount: 2
Fore
SplineSet
398 786 m 1,0,-1
 710 764 l 1,1,-1
 880 414 l 1,2,-1
 830 104 l 1,3,-1
 544 -82 l 1,4,-1
 214 -57 l 1,5,-1
 133 91 l 1,6,-1
 466 402 l 1,7,-1
 480 389 l 1,8,-1
 496 360 l 1,9,-1
 547 359 l 1,10,-1
 625 407 l 1,11,-1
 605 492 l 1,12,-1
 561 530 l 1,13,-1
 498 513 l 1,14,-1
 485 398 l 1,15,-1
 463 419 l 1,16,-1
 126 102 l 1,17,-1
 34 299 l 1,18,-1
 58 575 l 1,19,-1
 210 733 l 1,20,-1
 398 786 l 1,0,-1
399.967531493 766.814087823 m 1,21,-1
 220.117935405 716.111808075 l 1,22,-1
 76.3469747048 566.665677873 l 1,23,-1
 53.3696448758 302.42638484 l 1,24,-1
 132.105787088 133.828341191 l 1,25,-1
 323.059836221 313.449805805 l 1,26,-1
 449.981914143 432.839416195 l 1,27,-1
 463.095799585 445.175029504 l 1,28,-1
 470.421351264 438.182457447 l 1,29,-1
 479.120247618 515.134232878 l 1,30,-1
 480.572015277 527.976792943 l 1,31,-1
 493.050062746 531.343885117 l 1,32,-1
 556.050062746 548.343885117 l 1,33,-1
 565.786475171 550.971171009 l 1,34,-1
 573.418777537 544.379637148 l 1,35,-1
 617.418777537 506.379637148 l 1,36,-1
 622.083291954 502.351192878 l 1,37,-1
 623.494926198 496.351747341 l 1,38,-1
 643.494926198 411.351747341 l 1,39,-1
 646.635411871 398.004683234 l 1,40,-1
 634.957851088 390.818491983 l 1,41,-1
 556.957851088 342.818491983 l 1,42,-1
 552.205989842 339.894269677 l 1,43,-1
 546.627522576 340.003651389 l 1,44,-1
 495.627522576 341.003651389 l 1,45,-1
 484.662160275 341.218658492 l 1,46,-1
 479.364024003 350.821530485 l 1,47,-1
 465.65097963 375.676423411 l 1,48,-1
 325.276195574 244.575649112 l 1,49,-1
 156.748883906 87.1822739501 l 1,50,-1
 225.716808103 -38.8331924852 l 1,51,-1
 539.02799111 -62.5688881674 l 1,52,-1
 812.583089349 115.337574324 l 1,53,-1
 860.286509605 411.098779907 l 1,54,-1
 697.707835665 745.819579196 l 1,55,-1
 399.967531493 766.814087823 l 1,21,-1
EndSplineSet
EndChar

StartChar: one
Encoding: 49 49 74
Width: 821
VWidth: 0
Flags: W
LayerCount: 2
Fore
SplineSet
-9 545 m 1,0,-1
 219 799 l 1,1,-1
 768 823 l 1,2,-1
 722 184 l 1,3,-1
 793 125 l 1,4,-1
 791 -63 l 1,5,-1
 103 -6 l 1,6,-1
 126 156 l 1,7,-1
 241 160 l 1,8,-1
 304 530 l 1,9,-1
 108 428 l 1,10,-1
 -11 444 l 1,11,-1
 -9 545 l 1,0,-1
9.85646435012 537.563349307 m 1,12,-1
 8.33187774971 460.571725986 l 1,13,-1
 104.567378562 447.632498986 l 1,14,-1
 295.228883384 546.854302516 l 1,15,-1
 329.148896104 564.506554034 l 1,16,-1
 322.730424026 526.810765639 l 1,17,-1
 259.730424026 156.810765639 l 1,18,-1
 257.131904602 141.549619816 l 1,19,-1
 241.660470158 141.011482965 l 1,20,-1
 142.57321692 137.564969809 l 1,21,-1
 124.64273643 11.2720202738 l 1,22,-1
 772.218298691 -42.3788620647 l 1,23,-1
 773.904922882 116.163811897 l 1,24,-1
 709.856752475 169.386939419 l 1,25,-1
 702.348050267 175.626565197 l 1,26,-1
 703.049040354 185.364231837 l 1,27,-1
 747.517305378 803.086435106 l 1,28,-1
 227.806033473 780.366816662 l 1,29,-1
 9.85646435012 537.563349307 l 1,12,-1
EndSplineSet
EndChar

StartChar: two
Encoding: 50 50 75
Width: 800
VWidth: 0
Flags: W
LayerCount: 2
Fore
SplineSet
104 240 m 1,0,-1
 -5 598 l 1,1,-1
 196 825 l 1,2,-1
 505 850 l 1,3,-1
 739 768 l 1,4,-1
 767 477 l 1,5,-1
 379 236 l 1,6,-1
 391 201 l 1,7,-1
 515 219 l 1,8,-1
 531 289 l 1,9,-1
 782 416 l 1,10,-1
 834 305 l 1,11,-1
 741 -27 l 1,12,-1
 369 -45 l 1,13,-1
 36 -37 l 1,14,-1
 27 111 l 1,15,-1
 564 530 l 1,16,-1
 531 618 l 1,17,-1
 395 545 l 1,18,-1
 412 446 l 1,19,-1
 104 240 l 1,0,-1
114.71882589 270.027080885 m 1,20,-1
 353.155960925 429.501268603 l 1,21,-1
 391.187151597 454.937714312 l 1,22,-1
 376.274077898 541.784437619 l 1,23,-1
 373.958424154 555.269715301 l 1,24,-1
 386.014132584 561.74079409 l 1,25,-1
 522.014132584 634.74079409 l 1,26,-1
 541.160334143 645.017799339 l 1,27,-1
 548.790254374 624.67134539 l 1,28,-1
 581.790254374 536.67134539 l 1,29,-1
 586.690175087 523.604890156 l 1,30,-1
 575.688032092 515.020350278 l 1,31,-1
 388.802569537 369.200967018 l 1,32,-1
 46.5719446568 102.171857474 l 1,33,-1
 53.9055179073 -18.4246804228 l 1,34,-1
 368.768719471 -25.9889615415 l 1,35,-1
 726.399249415 -8.68425847967 l 1,36,-1
 813.800813011 303.32992554 l 1,37,-1
 773.102787867 390.204556135 l 1,38,-1
 547.535208611 276.072753085 l 1,39,-1
 533.522311625 214.766328771 l 1,40,-1
 530.619897259 202.068265922 l 1,41,-1
 517.729457145 200.197073002 l 1,42,-1
 393.729457145 182.197073002 l 1,43,-1
 378.137032071 179.933656459 l 1,44,-1
 373.027027027 194.837837838 l 1,45,-1
 361.027027027 229.837837838 l 1,46,-1
 356.118497599 244.154382003 l 1,47,-1
 368.974928732 252.139948763 l 1,48,-1
 511.922297153 340.929422447 l 1,49,-1
 746.95793465 486.918052954 l 1,50,-1
 721.250964172 754.086924711 l 1,51,-1
 502.517607205 830.737075443 l 1,52,-1
 205.155040371 806.678615344 l 1,53,-1
 16.2727372913 593.363775547 l 1,54,-1
 114.71882589 270.027080885 l 1,20,-1
EndSplineSet
EndChar

StartChar: three
Encoding: 51 51 76
Width: 792
VWidth: 0
Flags: W
LayerCount: 2
Fore
SplineSet
28 647 m 1,0,-1
 93 786 l 1,1,-1
 462 838 l 1,2,-1
 738 610 l 1,3,-1
 761 477 l 1,4,-1
 645 381 l 1,5,-1
 734 319 l 1,6,-1
 785 98 l 1,7,-1
 712 -63 l 1,8,-1
 239 -68 l 1,9,-1
 15 90 l 1,10,-1
 15 401 l 1,11,-1
 140 406 l 1,12,-1
 455 281 l 1,13,-1
 497 339 l 1,14,-1
 283 410 l 1,15,-1
 277 428 l 1,16,-1
 496 475 l 1,17,-1
 459 555 l 1,18,-1
 378 545 l 1,19,-1
 390 479 l 1,20,-1
 182 444 l 1,21,-1
 28 647 l 1,0,-1
50.0707160314 649.343621571 m 1,22,-1
 190.18710288 464.644747998 l 1,23,-1
 334.35196988 488.903259272 l 1,24,-1
 367.862671246 494.542079213 l 1,25,-1
 359.306471708 541.601176674 l 1,26,-1
 355.708110678 561.392162338 l 1,27,-1
 375.671995132 563.856839431 l 1,28,-1
 456.671995132 573.856839431 l 1,29,-1
 470.427025143 575.554991284 l 1,30,-1
 476.244913775 562.975772621 l 1,31,-1
 513.244913775 482.975772621 l 1,32,-1
 523.219542002 461.409008886 l 1,33,-1
 499.986845522 456.422996399 l 1,34,-1
 335.000298436 421.01492465 l 1,35,-1
 319.903065114 417.774879143 l 1,36,-1
 502.983041189 357.033391753 l 1,37,-1
 527.60231507 348.865314905 l 1,38,-1
 512.388900309 327.856313569 l 1,39,-1
 470.388900309 269.856313569 l 1,40,-1
 461.723969363 257.890456548 l 1,41,-1
 447.991935114 263.339676488 l 1,42,-1
 136.735291201 386.854217723 l 1,43,-1
 34 382.744806075 l 1,44,-1
 34 99.8491897563 l 1,45,-1
 244.936231216 -48.936187619 l 1,46,-1
 699.694562367 -44.1290170994 l 1,47,-1
 765.041089603 99.9914059819 l 1,48,-1
 717.132689389 307.594473576 l 1,49,-1
 634.139512385 365.409945197 l 1,50,-1
 613.62747753 379.699227905 l 1,51,-1
 632.886213433 395.637492101 l 1,52,-1
 740.401059002 484.615295331 l 1,53,-1
 720.476466033 599.831419894 l 1,54,-1
 456.357017396 818.017051376 l 1,55,-1
 105.848815325 768.622941599 l 1,56,-1
 50.0707160314 649.343621571 l 1,22,-1
EndSplineSet
EndChar

StartChar: four
Encoding: 52 52 77
Width: 796
VWidth: 0
Flags: W
LayerCount: 2
Fore
SplineSet
95 647 m 5,0,-1
 593 854 l 1,1,-1
 677 840 l 1,2,-1
 638 768 l 1,3,-1
 371 438 l 1,4,-1
 378 387 l 1,5,-1
 441 395 l 1,6,-1
 548 610 l 1,7,-1
 724 598 l 1,8,-1
 720 449 l 1,9,-1
 826 442 l 1,10,-1
 810 276 l 1,11,-1
 718 264 l 1,12,-1
 736 -31 l 1,13,-1
 650 -68 l 1,14,-1
 336 -51 l 1,15,-1
 372 238 l 1,16,-1
 82 205 l 1,17,-1
 22 373 l 1,18,-1
 95 647 l 5,0,-1
110.946822819 633.052494814 m 1,19,-1
 41.8817826117 373.822069927 l 1,20,-1
 94.8246726211 225.581977901 l 1,21,-1
 369.851794715 256.878167656 l 1,22,-1
 393.83845927 259.607684657 l 1,23,-1
 390.854281636 235.651369762 l 1,24,-1
 357.372951443 -33.1293087319 l 1,25,-1
 646.581121058 -48.7870758766 l 1,26,-1
 716.221805902 -18.8253858854 l 1,27,-1
 699.035270691 262.842830076 l 1,28,-1
 697.955053729 280.546385842 l 1,29,-1
 715.542555503 282.840407813 l 1,30,-1
 792.539268582 292.883457345 l 1,31,-1
 805.208969878 424.331608291 l 1,32,-1
 718.748010002 430.04129432 l 1,33,-1
 700.516517401 431.245260813 l 1,34,-1
 701.00684284 449.509883414 l 1,35,-1
 704.517563712 580.284235913 l 1,36,-1
 559.359693548 590.181363424 l 1,37,-1
 458.009910336 386.534602763 l 1,38,-1
 453.479862315 377.432169826 l 1,39,-1
 443.393478204 376.151359145 l 1,40,-1
 380.393478204 368.151359145 l 1,41,-1
 361.734150811 365.781920746 l 1,42,-1
 359.176479988 384.416379606 l 1,43,-1
 352.176479988 435.416379606 l 1,44,-1
 351.058680471 443.560347509 l 1,45,-1
 356.229220898 449.950903092 l 1,46,-1
 502.953277501 631.295242715 l 1,47,-1
 622.127608172 778.589359273 l 1,48,-1
 647.611230627 825.636046883 l 1,49,-1
 595.256322055 834.361864978 l 1,50,-1
 110.946822819 633.052494814 l 1,19,-1
EndSplineSet
EndChar

StartChar: five
Encoding: 53 53 78
Width: 790
VWidth: 0
Flags: W
LayerCount: 2
Fore
SplineSet
90 802 m 25,0,-1
 97 828 l 1,1,-1
 607 817 l 1,2,-1
 791 594 l 1,3,-1
 749 475 l 1,4,-1
 551 582 l 1,5,-1
 431 568 l 1,6,-1
 406 512 l 1,7,-1
 434 459 l 1,8,-1
 515 444 l 1,9,-1
 543 477 l 1,10,-1
 748 367 l 1,11,-1
 719 91 l 1,12,-1
 478 -53 l 1,13,-1
 71 -35 l 1,14,-1
 -73 236 l 1,15,-1
 76 276 l 1,16,-1
 199 262 l 1,17,-1
 422 191 l 1,18,-1
 474 227 l 1,19,-1
 470 270 l 1,20,-1
 150 355 l 1,21,-1
 -17 477 l 1,22,-1
 90 802 l 25,0,-1
108.346699412 797.060504004 m 1,23,-1
 108.047071273 796.058348843 l 1,24,-1
 5.36976317036 484.188020494 l 1,25,-1
 158.326571096 372.447118896 l 1,26,-1
 474.877729625 288.363217412 l 1,27,-1
 487.690415789 284.959847649 l 1,28,-1
 488.918323104 271.75984401 l 1,29,-1
 492.918323104 228.75984401 l 1,30,-1
 493.947092461 217.700573418 l 1,31,-1
 484.814989598 211.378348359 l 1,32,-1
 432.814989598 175.378348359 l 1,33,-1
 425.135653179 170.061884684 l 1,34,-1
 416.235779585 172.895476725 l 1,35,-1
 195.005712342 243.331955533 l 1,36,-1
 77.438915137 256.713542207 l 1,37,-1
 -45.0218610671 223.838166045 l 1,38,-1
 82.6845414357 -16.4981886651 l 1,39,-1
 473.146379795 -33.766771197 l 1,40,-1
 701.097025422 102.436104198 l 1,41,-1
 727.770338293 356.292461174 l 1,42,-1
 547.550517145 452.995779838 l 1,43,-1
 529.487673572 431.707428484 l 1,44,-1
 522.365161074 423.313038754 l 1,45,-1
 511.540304057 425.317641905 l 1,46,-1
 430.540304057 440.317641905 l 1,47,-1
 421.496638042 441.992394871 l 1,48,-1
 417.200325703 450.124700371 l 1,49,-1
 389.200325703 503.124700371 l 1,50,-1
 384.880664309 511.301202295 l 1,51,-1
 388.650380234 519.745365967 l 1,52,-1
 413.650380234 575.745365967 l 1,53,-1
 418.058251625 585.618997883 l 1,54,-1
 428.798266708 586.871999643 l 1,55,-1
 548.798266708 600.871999643 l 1,56,-1
 554.756080634 601.567077934 l 1,57,-1
 560.03305787 598.715378115 l 1,58,-1
 738.4802078 502.281817294 l 1,59,-1
 769.507913857 590.193651123 l 1,60,-1
 597.885824733 798.192161311 l 1,61,-1
 111.475928566 808.68335515 l 1,62,-1
 108.346699412 797.060504004 l 1,23,-1
EndSplineSet
EndChar

StartChar: six
Encoding: 54 54 79
Width: 768
VWidth: 0
Flags: W
LayerCount: 2
Fore
SplineSet
60 649 m 1,0,-1
 373 840 l 1,1,-1
 724 774 l 1,2,-1
 739 587 l 1,3,-1
 522 524 l 1,4,-1
 414 557 l 1,5,-1
 300 534 l 1,6,-1
 269 498 l 1,7,-1
 253 458 l 1,8,-1
 304 317 l 1,9,-1
 391 214 l 1,10,-1
 436 187 l 1,11,-1
 487 234 l 1,12,-1
 440 330 l 1,13,-1
 401 326 l 1,14,-1
 323 315 l 1,15,-1
 313 318 l 1,16,-1
 265 456 l 1,17,-1
 660 353 l 1,18,-1
 745 141 l 1,19,-1
 609 -44 l 1,20,-1
 166 -32 l 1,21,-1
 22 286 l 1,22,-1
 60 649 l 1,0,-1
242.603876761 483.168757569 m 1,23,-1
 252.53539643 507.997556742 l 1,24,-1
 289.854572147 551.335954349 l 1,25,-1
 414.954706063 576.575455051 l 1,26,-1
 522.138685193 543.824794762 l 1,27,-1
 718.821884049 600.926368623 l 1,28,-1
 706.221594726 758.009975519 l 1,29,-1
 376.664490661 819.977977993 l 1,30,-1
 77.9183952381 637.676047559 l 1,31,-1
 41.4330605524 289.145087271 l 1,32,-1
 178.402453422 -13.3289886483 l 1,33,-1
 599.578678289 -24.7378254393 l 1,34,-1
 723.431662273 143.738660126 l 1,35,-1
 645.931510101 337.033157307 l 1,36,-1
 294.633985168 428.637322037 l 1,37,-1
 327.276164368 334.791056835 l 1,38,-1
 398.703284829 344.864112285 l 1,39,-1
 451.239611732 350.252453506 l 1,40,-1
 510.294516275 229.629669759 l 1,41,-1
 438.418693685 163.391166588 l 1,42,-1
 378.520122814 199.330309111 l 1,43,-1
 287.289907781 307.338494725 l 1,44,-1
 232.672357091 458.339958396 l 1,45,-1
 242.603876761 483.168757569 l 1,23,-1
EndSplineSet
EndChar

StartChar: seven
Encoding: 55 55 80
Width: 905
VWidth: 0
Flags: W
LayerCount: 2
Fore
SplineSet
9 627 m 1,0,-1
 93 778 l 1,1,-1
 712 823 l 1,2,-1
 888 674 l 1,3,-1
 694 315 l 1,4,-1
 787 303 l 1,5,-1
 757 119 l 1,6,-1
 636 152 l 1,7,-1
 481 -106 l 1,8,-1
 191 14 l 1,9,-1
 433 199 l 1,10,-1
 339 251 l 1,11,-1
 430 367 l 1,12,-1
 529 345 l 1,13,-1
 527 465 l 1,14,-1
 330 499 l 1,15,-1
 266 415 l 1,16,-1
 32 483 l 1,17,-1
 9 627 l 1,0,-1
28.7987724625 623.506794998 m 1,18,-1
 48.8632763577 497.885553219 l 1,19,-1
 258.785902665 436.882396856 l 1,20,-1
 314.886797319 510.51482109 l 1,21,-1
 321.872539759 519.683608042 l 1,22,-1
 333.231414053 517.72319319 l 1,23,-1
 530.231414053 483.72319319 l 1,24,-1
 545.735181772 481.04741602 l 1,25,-1
 545.997361661 465.316622694 l 1,26,-1
 547.997361661 345.316622694 l 1,27,-1
 548.39887778 321.225655528 l 1,28,-1
 524.878321301 326.452445857 l 1,29,-1
 437.561783597 345.856120902 l 1,30,-1
 367.719314654 256.826160492 l 1,31,-1
 442.197166318 215.625646806 l 1,32,-1
 467.629209937 201.556856719 l 1,33,-1
 444.539236707 183.905430903 l 1,34,-1
 228.749254546 18.9420147882 l 1,35,-1
 473.141720582 -82.1859021925 l 1,36,-1
 619.713207095 161.784701164 l 1,37,-1
 627.121202701 174.115429333 l 1,38,-1
 640.99923071 170.330512604 l 1,39,-1
 741.642957022 142.882223609 l 1,40,-1
 765.086619049 286.670017377 l 1,41,-1
 691.568544585 296.156220534 l 1,42,-1
 664.133258951 299.69625739 l 1,43,-1
 677.28452353 324.032875864 l 1,44,-1
 863.952156653 669.464217572 l 1,45,-1
 705.642556356 803.487686006 l 1,46,-1
 104.61427833 759.79419245 l 1,47,-1
 28.7987724625 623.506794998 l 1,18,-1
EndSplineSet
EndChar

StartChar: eight
Encoding: 56 56 81
Width: 780
VWidth: 0
Flags: W
LayerCount: 2
Fore
SplineSet
424 805 m 1,0,-1
 388 566 l 1,1,-1
 310 559 l 1,2,-1
 242 511 l 1,3,-1
 318 402 l 1,4,-1
 405 404 l 1,5,-1
 364 236 l 1,6,-1
 296 219 l 1,7,-1
 249 163 l 1,8,-1
 350 92 l 1,9,-1
 452 171 l 1,10,-1
 374 236 l 1,11,-1
 417 406 l 1,12,-1
 504 444 l 1,13,-1
 489 519 l 1,14,-1
 399 587 l 1,15,-1
 433 809 l 1,16,-1
 642 821 l 1,17,-1
 830 632 l 1,18,-1
 737 375 l 1,19,-1
 485 306 l 1,20,-1
 675 180 l 1,21,-1
 615 -16 l 1,22,-1
 445 -139 l 1,23,-1
 -51 44 l 1,24,-1
 -29 266 l 1,25,-1
 152 348 l 1,26,-1
 47 596 l 1,27,-1
 118 780 l 1,28,-1
 424 805 l 1,0,-1
401.639028216 784.109818241 m 1,29,-1
 131.432970696 762.034159947 l 1,30,-1
 67.4929142196 596.330351613 l 1,31,-1
 169.496429734 355.407762589 l 1,32,-1
 176.722183674 338.34121995 l 1,33,-1
 159.840637623 330.693226711 l 1,34,-1
 -11.1737042241 253.21711604 l 1,35,-1
 -30.6442453715 56.7416553714 l 1,36,-1
 442.071122407 -117.667442015 l 1,37,-1
 598.698076882 -4.34323377696 l 1,38,-1
 652.681456449 172.002472808 l 1,39,-1
 474.499191966 290.165448202 l 1,40,-1
 439.643454748 313.280305516 l 1,41,-1
 479.982312104 324.325468839 l 1,42,-1
 722.484584128 390.724900465 l 1,43,-1
 808.035478786 627.139738391 l 1,44,-1
 634.556639159 801.541337804 l 1,45,-1
 449.451502963 790.913291706 l 1,46,-1
 432.048871144 677.284342772 l 1,47,-1
 419.496842577 595.326979776 l 1,48,-1
 500.453828695 534.159479155 l 1,49,-1
 506.214947364 529.806633937 l 1,50,-1
 507.631032838 522.726206568 l 1,51,-1
 522.631032838 447.726206568 l 1,52,-1
 525.633147689 432.715632314 l 1,53,-1
 511.605057676 426.588420584 l 1,54,-1
 433.136869857 392.314959238 l 1,55,-1
 412.322746793 310.026565727 l 1,56,-1
 395.353296968 242.938043167 l 1,57,-1
 464.163503594 185.596204312 l 1,58,-1
 482.329300008 170.458040634 l 1,59,-1
 463.634260734 155.978549432 l 1,60,-1
 361.634260734 76.9785494319 l 1,61,-1
 350.546494103 68.3909654726 l 1,62,-1
 339.073250897 76.4563146568 l 1,63,-1
 238.073250897 147.456314657 l 1,64,-1
 221.1399333 159.359933958 l 1,65,-1
 234.446489177 175.214553726 l 1,66,-1
 281.446489177 231.214553726 l 1,67,-1
 285.410230502 235.937309347 l 1,68,-1
 291.391823124 237.432707503 l 1,69,-1
 348.261762307 251.650192299 l 1,70,-1
 368.425451571 334.272138549 l 1,71,-1
 380.667729206 384.435617638 l 1,72,-1
 318.436666242 383.005018489 l 1,73,-1
 308.245058451 382.770728655 l 1,74,-1
 302.414467669 391.133023329 l 1,75,-1
 226.414467669 500.133023329 l 1,76,-1
 215.610192107 515.628629069 l 1,77,-1
 231.043019246 526.522389402 l 1,78,-1
 299.043019246 574.522389402 l 1,79,-1
 303.215213385 577.467467618 l 1,80,-1
 308.301697071 577.923946923 l 1,81,-1
 371.435171815 583.58977158 l 1,82,-1
 401.639028216 784.109818241 l 1,29,-1
EndSplineSet
EndChar

StartChar: nine
Encoding: 57 57 82
Width: 835
VWidth: 0
Flags: W
LayerCount: 2
Fore
SplineSet
153 788 m 1,0,-1
 464 850 l 1,1,-1
 603 816 l 1,2,-1
 662 763 l 1,3,-1
 382 560 l 1,4,-1
 306 572 l 1,5,-1
 271 468 l 1,6,-1
 343 407 l 1,7,-1
 424 431 l 1,8,-1
 388 556 l 1,9,-1
 673 760 l 1,10,-1
 839 535 l 1,11,-1
 779 143 l 1,12,-1
 640 -70 l 1,13,-1
 116 -63 l 1,14,-1
 22 96 l 1,15,-1
 91 166 l 1,16,-1
 204 127 l 1,17,-1
 550 137 l 1,18,-1
 574 283 l 1,19,-1
 536 399 l 1,20,-1
 499 399 l 1,21,-1
 523 328 l 1,22,-1
 472 217 l 1,23,-1
 194 221 l 1,24,-1
 1 555 l 1,25,-1
 153 788 l 1,0,-1
164.548690188 770.928429645 m 1,26,-1
 23.2922996304 554.397252014 l 1,27,-1
 205.055747667 239.842891164 l 1,28,-1
 459.901094626 236.17605164 l 1,29,-1
 502.582136398 329.070083733 l 1,30,-1
 481.000529155 392.915671827 l 1,31,-1
 472.521319632 418 l 1,32,-1
 499 418 l 1,33,-1
 536 418 l 1,34,-1
 549.769358336 418 l 1,35,-1
 554.055871528 404.914854466 l 1,36,-1
 592.055871528 288.914854466 l 1,37,-1
 593.5017546 284.501106142 l 1,38,-1
 592.748379551 279.918074594 l 1,39,-1
 568.748379551 133.918074594 l 1,40,-1
 566.207406472 118.460488362 l 1,41,-1
 550.548903743 118.007930479 l 1,42,-1
 204.548903743 108.007930479 l 1,43,-1
 201.080898176 107.907699104 l 1,44,-1
 197.801278942 109.039603088 l 1,45,-1
 96.1232417572 144.132023001 l 1,46,-1
 45.7991371969 93.0785835921 l 1,47,-1
 126.924582328 -44.1442438114 l 1,48,-1
 629.801267012 -50.8620621182 l 1,49,-1
 760.840926824 149.939718744 l 1,50,-1
 819.024427592 530.071923765 l 1,51,-1
 668.82968 733.649141888 l 1,52,-1
 530.158904222 634.390060278 l 1,53,-1
 409.972124177 548.361628246 l 1,54,-1
 442.257890631 436.258272502 l 1,55,-1
 447.476122478 418.139411922 l 1,56,-1
 429.397678264 412.782835859 l 1,57,-1
 348.397678264 388.782835859 l 1,58,-1
 338.552547908 385.865760197 l 1,59,-1
 330.718074066 392.503300536 l 1,60,-1
 258.718074066 453.503300536 l 1,61,-1
 248.879427052 461.838820923 l 1,62,-1
 252.992407179 474.060247584 l 1,63,-1
 287.992407179 578.060247584 l 1,64,-1
 293.111226498 593.270453562 l 1,65,-1
 308.963288896 590.767496341 l 1,66,-1
 377.205892069 579.992348472 l 1,67,-1
 524.23892049 686.591294077 l 1,68,-1
 631.809476262 764.579947011 l 1,69,-1
 593.851756718 798.677559482 l 1,70,-1
 463.580461719 830.542480561 l 1,71,-1
 164.548690188 770.928429645 l 1,26,-1
EndSplineSet
EndChar

StartChar: colon
Encoding: 58 58 83
Width: 303
VWidth: 0
Flags: W
LayerCount: 2
Fore
SplineSet
50 437 m 1,0,-1
 134 454 l 1,1,-1
 200 436 l 1,2,-1
 249 399 l 1,3,-1
 241 290 l 1,4,-1
 170 248 l 1,5,-1
 86 257 l 1,6,-1
 13 333 l 1,7,-1
 50 437 l 1,0,-1
80 161 m 1,8,-1
 164 179 l 1,9,-1
 229 160 l 1,10,-1
 278 124 l 1,11,-1
 270 15 l 1,12,-1
 200 -27 l 1,13,-1
 115 -18 l 1,14,-1
 43 58 l 1,15,-1
 80 161 l 1,8,-1
64.299539346 420.508757565 m 1,16,-1
 34.8365315252 337.693816663 l 1,17,-1
 94.9072947701 275.154391915 l 1,18,-1
 165.753934774 267.563680486 l 1,19,-1
 222.777974286 301.296210902 l 1,20,-1
 229.293630739 390.072030076 l 1,21,-1
 191.470635114 418.632251263 l 1,22,-1
 133.350164199 434.483288785 l 1,23,-1
 64.299539346 420.508757565 l 1,16,-1
94.31005935 144.635112703 m 1,24,-1
 64.8338426859 62.5796987468 l 1,25,-1
 123.971848765 0.156247885108 l 1,26,-1
 195.677170785 -7.43608032871 l 1,27,-1
 251.772461109 26.221093866 l 1,28,-1
 258.281754486 114.91021612 l 1,29,-1
 220.451862908 142.703605851 l 1,30,-1
 163.281965013 159.414806774 l 1,31,-1
 94.31005935 144.635112703 l 1,24,-1
EndSplineSet
EndChar

StartChar: semicolon
Encoding: 59 59 84
Width: 303
VWidth: 0
Flags: W
LayerCount: 2
Fore
SplineSet
50 437 m 1,0,-1
 134 454 l 1,1,-1
 200 436 l 1,2,-1
 249 399 l 1,3,-1
 241 290 l 1,4,-1
 170 248 l 1,5,-1
 86 257 l 1,6,-1
 13 333 l 1,7,-1
 50 437 l 1,0,-1
80 161 m 1,8,-1
 164 179 l 1,9,-1
 229 160 l 1,10,-1
 278 124 l 1,11,-1
 270 15 l 1,12,-1
 200 -27 l 1,13,-1
 85 -135 l 1,14,-1
 13 -59 l 1,15,-1
 80 161 l 1,8,-1
64.299539346 420.508757565 m 1,16,-1
 34.8365315252 337.693816663 l 1,17,-1
 94.9072947701 275.154391915 l 1,18,-1
 165.753934774 267.563680486 l 1,19,-1
 222.777974286 301.296210902 l 1,20,-1
 229.293630739 390.072030076 l 1,21,-1
 191.470635114 418.632251263 l 1,22,-1
 133.350164199 434.483288785 l 1,23,-1
 64.299539346 420.508757565 l 1,16,-1
94.9173506725 144.765246558 m 1,24,-1
 34.396793377 -53.9589714271 l 1,25,-1
 85.7827935622 -108.1997494 l 1,26,-1
 186.993105053 -13.1500655656 l 1,27,-1
 188.477919585 -11.7556310486 l 1,28,-1
 190.224580647 -10.7076344115 l 1,29,-1
 251.772461109 26.221093866 l 1,30,-1
 258.281754486 114.91021612 l 1,31,-1
 220.451862908 142.703605851 l 1,32,-1
 163.281965013 159.414806774 l 1,33,-1
 94.9173506725 144.765246558 l 1,24,-1
EndSplineSet
EndChar

StartChar: less
Encoding: 60 60 85
Width: 782
VWidth: 0
Flags: W
LayerCount: 2
Fore
SplineSet
246 533 m 1,0,-1
 500 823 l 1,1,-1
 673 853 l 1,2,-1
 727 694 l 1,3,-1
 183 342 l 1,4,-1
 163 318 l 1,5,-1
 759 -4 l 1,6,-1
 761 -49 l 1,7,-1
 605 -171 l 1,8,-1
 35 307 l 1,9,-1
 246 533 l 1,0,-1
260.093983637 520.254384083 m 1,10,-1
 62.5637572988 308.681724592 l 1,11,-1
 605.417295875 -146.553348108 l 1,12,-1
 741.584085416 -40.0639357746 l 1,13,-1
 740.496751968 -15.5989332135 l 1,14,-1
 153.968696361 301.283674011 l 1,15,-1
 133.536383024 312.322608397 l 1,16,-1
 148.403795688 330.163503594 l 1,17,-1
 168.403795688 354.163503594 l 1,18,-1
 170.25303711 356.3825933 l 1,19,-1
 172.678225715 357.951832986 l 1,20,-1
 704.248117974 701.908822095 l 1,21,-1
 660.235047069 831.502864204 l 1,22,-1
 509.866153088 805.427333456 l 1,23,-1
 260.093983637 520.254384083 l 1,10,-1
EndSplineSet
EndChar

StartChar: equal
Encoding: 61 61 86
Width: 600
VWidth: 0
Flags: W
LayerCount: 2
Fore
SplineSet
31 81 m 25,0,-1
 526 112 l 1,1,-1
 583 38 l 1,2,-1
 563 -72 l 1,3,-1
 37 -58 l 1,4,-1
 9 44 l 1,5,-1
 31 81 l 25,0,-1
10 335 m 25,6,-1
 590 358 l 1,7,-1
 570 216 l 1,8,-1
 528 185 l 1,9,-1
 37 198 l 1,10,-1
 10 335 l 25,6,-1
42.2026794673 62.664358945 m 1,11,-1
 29.461581712 41.2361490838 l 1,12,-1
 51.5919580435 -39.3816504094 l 1,13,-1
 547.220633257 -52.5732881528 l 1,14,-1
 562.796385781 33.093350727 l 1,15,-1
 517.109611399 92.4060051872 l 1,16,-1
 42.2026794673 62.664358945 l 1,11,-1
32.9337069808 316.894506912 m 1,17,-1
 52.7015642736 216.590934723 l 1,18,-1
 521.972677925 204.166241286 l 1,19,-1
 552.298308029 226.549444458 l 1,20,-1
 568.011500226 338.113109058 l 1,21,-1
 32.9337069808 316.894506912 l 1,17,-1
EndSplineSet
EndChar

StartChar: greater
Encoding: 62 62 87
Width: 978
VWidth: 0
Flags: W
LayerCount: 2
Fore
SplineSet
81 657 m 25,0,-1
 200 850 l 1,1,-1
 953 408 l 1,2,-1
 282 -139 l 1,3,-1
 101 53 l 1,4,-1
 118 106 l 1,5,-1
 855 389 l 1,6,-1
 103 627 l 1,7,-1
 81 657 l 25,0,-1
904.753219402 393.182502635 m 1,8,-1
 919.80559451 405.453216769 l 1,9,-1
 206.415334011 824.20287831 l 1,10,-1
 103.887721983 657.918599979 l 1,11,-1
 114.650955069 643.241463953 l 1,12,-1
 860.733023254 407.114426416 l 1,13,-1
 904.753219402 393.182502635 l 1,8,-1
892.159848327 382.91637152 m 1,14,-1
 861.81092512 371.262714441 l 1,15,-1
 133.311085849 91.5266838929 l 1,16,-1
 122.516854276 57.8740795785 l 1,17,-1
 283.697918595 -113.102519036 l 1,18,-1
 892.159848327 382.91637152 l 1,14,-1
EndSplineSet
EndChar

StartChar: question
Encoding: 63 63 88
Width: 759
VWidth: 0
Flags: W
LayerCount: 2
Fore
SplineSet
375 92 m 25,0,-1
 510 88 l 1,1,-1
 526 0 l 1,2,-1
 483 -84 l 1,3,-1
 367 -72 l 1,4,-1
 317 16 l 1,5,-1
 375 92 l 25,0,-1
28 715 m 25,6,-1
 222 852 l 1,7,-1
 677 821 l 1,8,-1
 751 598 l 1,9,-1
 718 346 l 1,10,-1
 513 127 l 1,11,-1
 380 137 l 1,12,-1
 337 231 l 1,13,-1
 529 387 l 1,14,-1
 526 648 l 1,15,-1
 456 715 l 1,16,-1
 318 725 l 1,17,-1
 294 633 l 1,18,-1
 402 588 l 1,19,-1
 445 500 l 1,20,-1
 429 397 l 1,21,-1
 239 326 l 1,22,-1
 56 412 l 1,23,-1
 28 715 l 25,6,-1
384.186741922 72.719461877 m 1,24,-1
 339.726810122 14.4616202084 l 1,25,-1
 378.686572537 -54.1075616414 l 1,26,-1
 472.015049915 -63.762231715 l 1,27,-1
 506.155604719 2.93094511203 l 1,28,-1
 494.05868622 69.4639968608 l 1,29,-1
 384.186741922 72.719461877 l 1,24,-1
47.9298148965 705.814096088 m 1,30,-1
 73.9191403643 424.572466918 l 1,31,-1
 239.841885365 346.597843584 l 1,32,-1
 411.932168332 410.905265114 l 1,33,-1
 425.309202888 497.019925067 l 1,34,-1
 388.075861575 573.21839101 l 1,35,-1
 286.692307692 615.461538462 l 1,36,-1
 271.446084537 621.814131443 l 1,37,-1
 275.615271824 637.796016046 l 1,38,-1
 299.615271824 729.796016046 l 1,39,-1
 303.605758118 745.09288017 l 1,40,-1
 319.373210951 743.950311124 l 1,41,-1
 457.373210951 733.950311124 l 1,42,-1
 464.195915493 733.455912244 l 1,43,-1
 469.137681656 728.725936059 l 1,44,-1
 539.137681656 661.725936059 l 1,45,-1
 544.906957202 656.203915179 l 1,46,-1
 544.998745005 648.218376379 l 1,47,-1
 547.998745005 387.218376379 l 1,48,-1
 548.104229255 378.041246618 l 1,49,-1
 540.981259877 372.253833998 l 1,50,-1
 360.396433192 225.528662316 l 1,51,-1
 392.611325178 155.105410066 l 1,52,-1
 505.348724627 146.628913867 l 1,53,-1
 699.954069309 354.52437965 l 1,54,-1
 731.595402493 596.149105782 l 1,55,-1
 662.983866093 802.910897906 l 1,56,-1
 227.444800636 832.58498808 l 1,57,-1
 47.9298148965 705.814096088 l 1,30,-1
EndSplineSet
EndChar

StartChar: Ccedilla
Encoding: 199 199 89
Width: 1026
VWidth: 0
Flags: W
LayerCount: 2
Fore
SplineSet
209 844 m 1,0,-1
 798 813 l 1,1,-1
 1061 623 l 1,2,-1
 1027 477 l 1,3,-1
 934 344 l 1,4,-1
 840 332 l 1,5,-1
 569 372 l 1,6,-1
 526 427 l 1,7,-1
 256 434 l 1,8,-1
 262 305 l 1,9,-1
 295 266 l 1,10,-1
 332 252 l 1,11,-1
 360 356 l 1,12,-1
 537 367 l 1,13,-1
 610 274 l 1,14,-1
 795 309 l 1,15,-1
 1037 213 l 1,16,-1
 845 8 l 1,17,-1
 647 0 l 1,18,-1
 707 -100 l 1,19,-1
 408 -123 l 1,20,-1
 379 1 l 1,21,-1
 322 -27 l 1,22,-1
 185 8 l 1,23,-1
 14 96 l 1,24,-1
 -36 223 l 1,25,-1
 27 752 l 1,26,-1
 209 844 l 1,0,-1
213.055069562 824.760277696 m 1,27,-1
 44.6621083727 739.638561051 l 1,28,-1
 -16.5672535332 225.506299968 l 1,29,-1
 29.0574993372 109.619427677 l 1,30,-1
 191.784135175 25.8770653744 l 1,31,-1
 319.912962073 -6.856576534 l 1,32,-1
 370.622826287 18.0535322023 l 1,33,-1
 392.061414773 28.5847686519 l 1,34,-1
 397.500779529 5.32679521248 l 1,35,-1
 422.789943538 -102.806181928 l 1,36,-1
 674.890673644 -83.4138180737 l 1,37,-1
 630.707634411 -9.77541935312 l 1,38,-1
 614.227564701 17.6913634974 l 1,39,-1
 646.232949077 18.9845103408 l 1,40,-1
 836.454227727 26.6702185691 l 1,41,-1
 1004.0616571 205.626067636 l 1,42,-1
 793.116788119 289.306676818 l 1,43,-1
 613.531941694 255.331165332 l 1,44,-1
 602.184879648 253.184423864 l 1,45,-1
 595.054376712 262.268489247 l 1,46,-1
 528.216976096 347.417506471 l 1,47,-1
 374.798923666 337.883051235 l 1,48,-1
 350.346699412 247.060504004 l 1,49,-1
 344.893739187 226.806651742 l 1,50,-1
 325.276050149 234.229561108 l 1,51,-1
 288.276050149 248.229561108 l 1,52,-1
 283.674000889 249.970877045 l 1,53,-1
 280.495660578 253.727097412 l 1,54,-1
 247.495660578 292.727097412 l 1,55,-1
 243.320807614 297.661014552 l 1,56,-1
 243.020518365 304.117233412 l 1,57,-1
 237.020518365 433.117233412 l 1,58,-1
 236.071410546 453.523051521 l 1,59,-1
 256.492427127 452.993617758 l 1,60,-1
 526.492427127 445.993617758 l 1,61,-1
 535.449577003 445.761395353 l 1,62,-1
 540.96833616 438.702517362 l 1,63,-1
 579.289470764 389.687112636 l 1,64,-1
 807.038105664 356.071077964 l 1,65,-1
 840.187669896 351.178153354 l 1,66,-1
 923.249629341 361.781807752 l 1,67,-1
 1009.32710066 484.881847378 l 1,68,-1
 1039.6285755 614.999945218 l 1,69,-1
 791.41120193 794.320481255 l 1,70,-1
 213.055069562 824.760277696 l 1,27,-1
EndSplineSet
EndChar

StartChar: glyph92
Encoding: 256 287 90
Width: 1026
VWidth: 0
Flags: W
LayerCount: 2
Fore
SplineSet
-20 696 m 1,0,-1
 397 684 l 1,1,-1
 412 713 l 1,2,-1
 125 737 l 1,3,-1
 188 909 l 1,4,-1
 514 811 l 1,5,-1
 897 872 l 1,6,-1
 856 748 l 1,7,-1
 705 725 l 1,8,-1
 700 702 l 1,9,-1
 967 686 l 1,10,-1
 1039 592 l 1,11,-1
 1006 446 l 1,12,-1
 958 420 l 1,13,-1
 909 449 l 1,14,-1
 559 406 l 1,15,-1
 523 252 l 1,16,-1
 582 199 l 1,17,-1
 870 158 l 1,18,-1
 828 205 l 1,19,-1
 605 246 l 1,20,-1
 620 336 l 1,21,-1
 901 369 l 1,22,-1
 1016 182 l 1,23,-1
 825 -53 l 1,24,-1
 279 -4 l 1,25,-1
 151 -37 l 1,26,-1
 51 133 l 1,27,-1
 -33 178 l 1,28,-1
 10 426 l 1,29,-1
 -20 696 l 1,0,-1
1.29700517137 676.379271082 m 1,30,-1
 28.8837909588 428.098198995 l 1,31,-1
 29.1819745033 425.414547095 l 1,32,-1
 28.7206829927 422.754075126 l 1,33,-1
 -11.9357852874 188.270258069 l 1,34,-1
 59.9722068378 149.748119431 l 1,35,-1
 64.6729314386 147.229874109 l 1,36,-1
 67.376750088 142.633382405 l 1,37,-1
 160.118634189 -15.0278205662 l 1,38,-1
 274.256664952 14.3983904899 l 1,39,-1
 277.43212981 15.2170650238 l 1,40,-1
 280.698302929 14.9239469234 l 1,41,-1
 816.630932733 -33.1725711359 l 1,42,-1
 992.756197215 183.526052703 l 1,43,-1
 891.169442215 348.714949964 l 1,44,-1
 636.394542345 318.794765993 l 1,45,-1
 626.81340231 261.307925787 l 1,46,-1
 831.435687507 223.68678815 l 1,47,-1
 837.833173007 222.510568843 l 1,48,-1
 842.167465912 217.660288687 l 1,49,-1
 884.167465912 170.660288687 l 1,50,-1
 918.844665172 131.85485142 l 1,51,-1
 867.322138466 139.189655569 l 1,52,-1
 579.322138466 180.189655569 l 1,53,-1
 573.601512253 181.004050273 l 1,54,-1
 569.302911466 184.865505217 l 1,55,-1
 510.302911466 237.865505217 l 1,56,-1
 501.939793656 245.378136471 l 1,57,-1
 504.49879089 256.324957974 l 1,58,-1
 540.49879089 410.324957974 l 1,59,-1
 543.518076271 423.240789882 l 1,60,-1
 556.683134044 424.858211266 l 1,61,-1
 906.683134044 467.858211266 l 1,62,-1
 913.10716217 468.647449007 l 1,63,-1
 918.677096984 465.350956974 l 1,64,-1
 958.414576335 441.83285695 l 1,65,-1
 989.368560065 458.599598137 l 1,66,-1
 1018.50587965 587.510163552 l 1,67,-1
 957.196157353 667.5534121 l 1,68,-1
 698.863462056 683.034023054 l 1,69,-1
 676.721629778 684.360874427 l 1,70,-1
 681.433649085 706.036163242 l 1,71,-1
 686.433649085 729.036163242 l 1,72,-1
 689.211498855 741.814272181 l 1,73,-1
 702.138959092 743.783355529 l 1,74,-1
 841.618766437 765.028624197 l 1,75,-1
 869.160843676 848.326613897 l 1,76,-1
 516.988443713 792.236492754 l 1,77,-1
 512.694315219 791.552571506 l 1,78,-1
 508.530149791 792.804375837 l 1,79,-1
 199.681264701 885.648519207 l 1,80,-1
 151.40911536 753.857889259 l 1,81,-1
 413.583323789 731.933913641 l 1,82,-1
 441.957280419 729.561178592 l 1,83,-1
 428.87613522 704.270964541 l 1,84,-1
 413.87613522 675.270964541 l 1,85,-1
 408.389963461 664.664365808 l 1,86,-1
 396.453463661 665.007862205 l 1,87,-1
 1.29700517137 676.379271082 l 1,30,-1
EndSplineSet
EndChar

StartChar: glyph93
Encoding: 257 286 91
Width: 1026
VWidth: 0
Flags: W
LayerCount: 2
Fore
SplineSet
12 694 m 1,0,-1
 526 733 l 1,1,-1
 537 762 l 1,2,-1
 102 739 l 1,3,-1
 156 866 l 1,4,-1
 563 881 l 1,5,-1
 963 786 l 1,6,-1
 954 698 l 1,7,-1
 565 762 l 1,8,-1
 555 737 l 1,9,-1
 991 672 l 1,10,-1
 1052 509 l 1,11,-1
 1026 444 l 1,12,-1
 979 418 l 1,13,-1
 930 446 l 1,14,-1
 669 403 l 1,15,-1
 633 250 l 1,16,-1
 691 197 l 1,17,-1
 903 106 l 1,18,-1
 911 154 l 1,19,-1
 715 244 l 1,20,-1
 729 334 l 1,21,-1
 922 367 l 1,22,-1
 1036 180 l 1,23,-1
 995 -14 l 1,24,-1
 846 -55 l 1,25,-1
 299 -6 l 1,26,-1
 171 -39 l 1,27,-1
 72 131 l 1,28,-1
 -12 176 l 1,29,-1
 31 424 l 1,30,-1
 12 694 l 1,0,-1
564.646739344 781.313551732 m 1,31,-1
 568.08449673 780.747956687 l 1,32,-1
 937.153659368 720.027066176 l 1,33,-1
 942.403931211 771.36305753 l 1,34,-1
 561.120649062 861.91783704 l 1,35,-1
 168.761974773 847.457443639 l 1,36,-1
 131.397132845 759.580870956 l 1,37,-1
 535.996803595 780.973497226 l 1,38,-1
 552.474261386 781.844719132 l 1,39,-1
 553.026518473 783.22536185 l 1,40,-1
 559.242964863 782.202604603 l 1,41,-1
 565.101461309 782.512364185 l 1,42,-1
 564.646739344 781.313551732 l 1,31,-1
541.324912029 719.828734265 m 1,43,-1
 539.481293667 714.968285856 l 1,44,-1
 527.437502265 714.054457325 l 1,45,-1
 32.2795854973 676.484109555 l 1,46,-1
 49.953130107 425.333738785 l 1,47,-1
 50.1152606306 423.029778712 l 1,48,-1
 49.7206829927 420.754075126 l 1,49,-1
 9.06421471264 186.270258069 l 1,50,-1
 80.9722068378 147.748119431 l 1,51,-1
 85.7125364206 145.208657154 l 1,52,-1
 88.4188006113 140.561536827 l 1,53,-1
 180.181924165 -17.0115036192 l 1,54,-1
 294.256664952 12.3983904899 l 1,55,-1
 297.430588001 13.2166675261 l 1,56,-1
 300.695222909 12.9242230829 l 1,57,-1
 844.2724745 -35.7691687416 l 1,58,-1
 978.803117133 1.24933023808 l 1,59,-1
 1015.85113168 176.549691777 l 1,60,-1
 912.490008364 346.098201084 l 1,61,-1
 745.673529927 317.575176274 l 1,62,-1
 735.98203787 255.272727338 l 1,63,-1
 918.92857118 171.266666124 l 1,64,-1
 932.129577906 165.204979362 l 1,65,-1
 929.741484553 150.876419241 l 1,66,-1
 921.741484553 102.876419241 l 1,67,-1
 917.760061712 78.9878821984 l 1,68,-1
 895.50559501 88.5405070564 l 1,69,-1
 683.50559501 179.540507056 l 1,70,-1
 680.554164552 180.807394659 l 1,71,-1
 678.183149102 182.974012225 l 1,72,-1
 620.183149102 235.974012225 l 1,73,-1
 611.950914717 243.496571232 l 1,74,-1
 614.505073802 254.351747341 l 1,75,-1
 650.505073802 407.351747341 l 1,76,-1
 653.407547231 419.687259417 l 1,77,-1
 665.911368335 421.74727592 l 1,78,-1
 926.911368335 464.74727592 l 1,79,-1
 933.568613335 465.844063411 l 1,80,-1
 939.426639829 462.4966197 l 1,81,-1
 979.151011082 439.796978985 l 1,82,-1
 1010.874925 457.346378175 l 1,83,-1
 1031.62767897 509.228263091 l 1,84,-1
 977.128183262 654.858063094 l 1,85,-1
 552.198393804 718.20768767 l 1,86,-1
 541.324912029 719.828734265 l 1,43,-1
EndSplineSet
EndChar

StartChar: glyph95
Encoding: 258 305 92
Width: 998
VWidth: 0
Flags: W
LayerCount: 2
Fore
SplineSet
-47 764 m 1,0,-1
 465 858 l 1,1,-1
 1005 825 l 1,2,-1
 1039 637 l 1,3,-1
 1007 602 l 1,4,-1
 847 610 l 1,5,-1
 851 567 l 1,6,-1
 922 563 l 1,7,-1
 904 184 l 1,8,-1
 852 170 l 1,9,-1
 858 143 l 1,10,-1
 1032 135 l 1,11,-1
 1040 47 l 1,12,-1
 1014 -33 l 1,13,-1
 707 -63 l 1,14,-1
 -23 -37 l 1,15,-1
 -34 21 l 1,16,-1
 129 20 l 1,17,-1
 131 57 l 1,18,-1
 114 80 l 1,19,-1
 103 55 l 1,20,-1
 58 63 l 1,21,-1
 63 481 l 1,22,-1
 118 479 l 1,23,-1
 141 504 l 1,24,-1
 140 552 l 1,25,-1
 118 552 l 1,26,-1
 101 518 l 1,27,-1
 33 541 l 1,28,-1
 -47 764 l 1,0,-1
-21.5598691514 749.353089496 m 1,29,-1
 47.7840486287 556.056918684 l 1,30,-1
 91.4081997612 541.301691095 l 1,31,-1
 101.005883371 560.497058314 l 1,32,-1
 106.257354214 571 l 1,33,-1
 118 571 l 1,34,-1
 140 571 l 1,35,-1
 158.608289483 571 l 1,36,-1
 158.995878078 552.39574746 l 1,37,-1
 159.995878078 504.39574746 l 1,38,-1
 160.154997807 496.758000462 l 1,39,-1
 154.982689223 491.135925914 l 1,40,-1
 131.982689223 466.135925914 l 1,41,-1
 126.056555764 459.694476502 l 1,42,-1
 117.309547256 460.012549539 l 1,43,-1
 81.7657737164 461.305050395 l 1,44,-1
 77.1913844733 78.8861096722 l 1,45,-1
 91.6231250092 76.3204669102 l 1,46,-1
 96.609014384 87.6520336711 l 1,47,-1
 109.804494054 117.641760194 l 1,48,-1
 129.279346688 91.2934301606 l 1,49,-1
 136.565060974 81.4362873034 l 1,50,-1
 146.279346688 68.2934301606 l 1,51,-1
 150.341145626 62.7980551263 l 1,52,-1
 149.972303192 55.9744700977 l 1,53,-1
 147.972303192 18.9744700977 l 1,54,-1
 146.994723477 0.889245367256 l 1,55,-1
 128.883437776 1.00035754947 l 1,56,-1
 -11.0310712689 1.85872877061 l 1,57,-1
 -7.16004909621 -18.5521154128 l 1,58,-1
 706.411605276 -43.9669962535 l 1,59,-1
 999.774367973 -15.2996253058 l 1,60,-1
 1020.72494905 49.1637010933 l 1,61,-1
 1014.57792701 116.780943538 l 1,62,-1
 857.127358627 124.020050131 l 1,63,-1
 842.605916671 124.687702635 l 1,64,-1
 839.452445857 138.878321301 l 1,65,-1
 833.452445857 165.878321301 l 1,66,-1
 829.509531148 183.621437489 l 1,67,-1
 847.060504004 188.346699412 l 1,68,-1
 885.678823508 198.743939278 l 1,69,-1
 902.127949398 545.089423287 l 1,70,-1
 849.931272178 548.030081159 l 1,71,-1
 833.597010359 548.950321261 l 1,72,-1
 832.081676896 565.24015599 l 1,73,-1
 828.081676896 608.24015599 l 1,74,-1
 826.050882939 630.071191028 l 1,75,-1
 847.948814722 628.976294439 l 1,76,-1
 999.013953341 621.423037508 l 1,77,-1
 1018.62893461 642.876923265 l 1,78,-1
 988.957056202 806.944956788 l 1,79,-1
 466.152875317 838.894101176 l 1,80,-1
 -21.5598691514 749.353089496 l 1,29,-1
EndSplineSet
EndChar

StartChar: Odieresis
Encoding: 214 214 94
Width: 1024
VWidth: 0
Flags: W
LayerCount: 2
Fore
SplineSet
461 934 m 25,0,-1
 715 954 l 1,1,-1
 872 817 l 1,2,-1
 868 737 l 1,3,-1
 680 737 l 1,4,-1
 422 815 l 1,5,-1
 461 934 l 25,0,-1
172 711 m 1,6,-1
 -12 696 l 1,7,-1
 -68 780 l 1,8,-1
 -35 877 l 1,9,-1
 242 922 l 1,10,-1
 311 836 l 1,11,-1
 319 772 l 1,12,-1
 172 711 l 1,6,-1
390 360 m 1,13,-1
 408 127 l 1,14,-1
 451 111 l 1,15,-1
 492 143 l 1,16,-1
 564 436 l 1,17,-1
 512 457 l 1,18,-1
 478 457 l 1,19,-1
 390 360 l 1,13,-1
408 784 m 5,20,-1
 678 698 l 1,21,-1
 870 707 l 1,22,-1
 1040 543 l 1,23,-1
 1024 53 l 1,24,-1
 969 -2 l 1,25,-1
 328 -37 l 1,26,-1
 -30 127 l 1,27,-1
 -31 668 l 1,28,-1
 168 688 l 1,29,-1
 408 784 l 5,20,-1
475.112367158 916.052400908 m 1,30,-1
 446.110672688 827.560051116 l 1,31,-1
 682.809303301 756 l 1,32,-1
 849.926264825 756 l 1,33,-1
 852.563455644 808.743816376 l 1,34,-1
 708.527181939 934.431520182 l 1,35,-1
 475.112367158 916.052400908 l 1,30,-1
167.477815473 729.694374147 m 1,36,-1
 298.351809097 784.002630004 l 1,37,-1
 292.813942136 828.305565693 l 1,38,-1
 234.112593774 901.469565101 l 1,39,-1
 -20.6882387496 860.075928049 l 1,40,-1
 -46.9960713956 782.74684421 l 1,41,-1
 -2.39551196354 715.846005062 l 1,42,-1
 167.477815473 729.694374147 l 1,36,-1
371.056444048 358.536549326 m 1,43,-1
 370.425692892 366.701272616 l 1,44,-1
 375.928017336 372.766334788 l 1,45,-1
 463.928017336 469.766334788 l 1,46,-1
 469.58330124 476 l 1,47,-1
 478 476 l 1,48,-1
 512 476 l 1,49,-1
 515.691699612 476 l 1,50,-1
 519.114797942 474.617594905 l 1,51,-1
 571.114797942 453.617594905 l 1,52,-1
 586.379627618 447.452952151 l 1,53,-1
 582.451080079 431.465946192 l 1,54,-1
 510.451080079 138.465946192 l 1,55,-1
 508.880028756 132.072640117 l 1,56,-1
 503.690146253 128.022000114 l 1,57,-1
 462.690146253 96.0220001138 l 1,58,-1
 454.322400449 89.4910765594 l 1,59,-1
 444.374059472 93.1927848299 l 1,60,-1
 401.374059472 109.19278483 l 1,61,-1
 389.991866972 113.428019248 l 1,62,-1
 389.056444048 125.536549326 l 1,63,-1
 371.056444048 358.536549326 l 1,43,-1
408.7280145 763.827579533 m 1,64,-1
 175.056422851 670.358942873 l 1,65,-1
 172.567351132 669.363314186 l 1,66,-1
 169.89997625 669.095236308 l 1,67,-1
 -11.9682060388 650.817027033 l 1,68,-1
 -11.0225279238 139.205166819 l 1,69,-1
 331.648225407 -17.7724967182 l 1,70,-1
 960.705337852 16.5753955369 l 1,71,-1
 1005.25518772 61.1252454065 l 1,72,-1
 1020.73469685 535.185212346 l 1,73,-1
 862.705203814 687.637193859 l 1,74,-1
 678.88964814 679.020839687 l 1,75,-1
 675.483064831 678.861156094 l 1,76,-1
 672.233595596 679.896172221 l 1,77,-1
 408.7280145 763.827579533 l 1,64,-1
EndSplineSet
EndChar

StartChar: odieresis
Encoding: 246 246 95
Width: 1024
VWidth: 0
Flags: W
LayerCount: 2
Fore
SplineSet
473 891 m 25,0,-1
 727 911 l 1,1,-1
 973 821 l 1,2,-1
 969 741 l 1,3,-1
 719 780 l 1,4,-1
 434 772 l 1,5,-1
 473 891 l 25,0,-1
182 725 m 1,6,-1
 0 653 l 1,7,-1
 -55 737 l 1,8,-1
 -23 834 l 1,9,-1
 254 879 l 1,10,-1
 324 793 l 1,11,-1
 334 750 l 1,12,-1
 182 725 l 1,6,-1
414 403 m 1,13,-1
 420 84 l 1,14,-1
 463 68 l 1,15,-1
 504 100 l 1,16,-1
 588 479 l 1,17,-1
 536 500 l 1,18,-1
 502 500 l 1,19,-1
 414 403 l 1,13,-1
420 741 m 1,20,-1
 717 741 l 1,21,-1
 971 711 l 1,22,-1
 1053 500 l 1,23,-1
 1036 10 l 1,24,-1
 981 -45 l 1,25,-1
 340 -80 l 1,26,-1
 -17 84 l 1,27,-1
 -18 625 l 1,28,-1
 178 702 l 1,29,-1
 420 741 l 1,20,-1
487.112367158 873.052400908 m 1,30,-1
 460.467180897 791.750422317 l 1,31,-1
 718.466876659 798.99251904 l 1,32,-1
 720.207791433 799.041386824 l 1,33,-1
 721.928579252 798.772943924 l 1,34,-1
 951.077550049 763.025704479 l 1,35,-1
 953.324598465 807.9666728 l 1,36,-1
 724.3620062 891.733474848 l 1,37,-1
 487.112367158 873.052400908 l 1,30,-1
175.010576465 742.667709491 m 1,38,-1
 176.90556272 743.417374383 l 1,39,-1
 178.916429434 743.74810904 l 1,40,-1
 310.898623499 765.455706748 l 1,41,-1
 306.489508927 784.414899405 l 1,42,-1
 246.20079283 858.483893468 l 1,43,-1
 -8.56963541802 817.095195738 l 1,44,-1
 -34.0871003466 739.745380173 l 1,45,-1
 7.41197923083 676.364967728 l 1,46,-1
 175.010576465 742.667709491 l 1,38,-1
395.003359925 402.642696425 m 1,47,-1
 394.86156016 410.181717219 l 1,48,-1
 399.928017336 415.766334788 l 1,49,-1
 487.928017336 512.766334788 l 1,50,-1
 493.58330124 519 l 1,51,-1
 502 519 l 1,52,-1
 536 519 l 1,53,-1
 539.691699612 519 l 1,54,-1
 543.114797942 517.617594905 l 1,55,-1
 595.114797942 496.617594905 l 1,56,-1
 610.03068683 490.593870547 l 1,57,-1
 606.549854504 474.888686601 l 1,58,-1
 522.549854504 95.8886866006 l 1,59,-1
 521.072461891 89.2228318311 l 1,60,-1
 515.690146253 85.0220001138 l 1,61,-1
 474.690146253 53.0220001138 l 1,62,-1
 466.322400449 46.4910765594 l 1,63,-1
 456.374059472 50.1927848299 l 1,64,-1
 413.374059472 66.1927848299 l 1,65,-1
 401.246696687 70.7052919127 l 1,66,-1
 401.003359925 83.6426964249 l 1,67,-1
 395.003359925 402.642696425 l 1,47,-1
421.521178193 722 m 1,68,-1
 183.042999604 683.56756626 l 1,69,-1
 1.02395097447 612.06008287 l 1,70,-1
 1.97749832028 96.1909687877 l 1,71,-1
 343.658895807 -60.7719140911 l 1,72,-1
 972.705337852 -26.4246044631 l 1,73,-1
 1017.27101396 18.141071648 l 1,74,-1
 1033.8760486 496.756775967 l 1,75,-1
 957.427890544 693.470938776 l 1,76,-1
 715.881838845 722 l 1,77,-1
 421.521178193 722 l 1,68,-1
EndSplineSet
EndChar

StartChar: glyph100
Encoding: 259 350 96
Width: 1024
VWidth: 0
Flags: W
LayerCount: 2
Fore
SplineSet
345 280 m 1,0,-1
 494 401 l 1,1,-1
 699 277 l 1,2,-1
 703 304 l 1,3,-1
 485 435 l 1,4,-1
 337 327 l 1,5,-1
 117 384 l 1,6,-1
 -31 600 l 1,7,-1
 53 779 l 1,8,-1
 459 807 l 1,9,-1
 923 745 l 1,10,-1
 1006 716 l 1,11,-1
 1006 539 l 1,12,-1
 906 429 l 1,13,-1
 583 529 l 1,14,-1
 554 584 l 1,15,-1
 506 582 l 1,16,-1
 516 505 l 1,17,-1
 925 378 l 1,18,-1
 1045 151 l 1,19,-1
 731 23 l 1,20,-1
 756 -105 l 1,21,-1
 547 -174 l 1,22,-1
 332 -111 l 1,23,-1
 375 0 l 1,24,-1
 34 6 l 1,25,-1
 -37 253 l 1,26,-1
 40 356 l 1,27,-1
 178 324 l 1,28,-1
 345 280 l 1,0,-1
356.977532892 265.250806604 m 1,29,-1
 349.488393055 259.169021905 l 1,30,-1
 340.159212135 261.627009692 l 1,31,-1
 173.432635188 305.554970086 l 1,32,-1
 47.7910260827 334.689256255 l 1,33,-1
 -16.1327868719 249.180779186 l 1,34,-1
 48.3797258065 24.7499252202 l 1,35,-1
 375.334259112 18.9970595316 l 1,36,-1
 402.549557534 18.5181979758 l 1,37,-1
 392.717059946 -6.86336556462 l 1,38,-1
 357.186658885 -98.5813776062 l 1,39,-1
 546.663370029 -154.102460406 l 1,40,-1
 734.142451074 -92.2074527887 l 1,41,-1
 712.352346962 19.3578802659 l 1,42,-1
 709.356760685 34.6952819997 l 1,43,-1
 723.827799556 40.5943042144 l 1,44,-1
 1018.39519717 160.672733813 l 1,45,-1
 911.870479789 362.18199085 l 1,46,-1
 510.365624117 486.854647746 l 1,47,-1
 498.727662503 490.468391328 l 1,48,-1
 497.158230603 502.553016961 l 1,49,-1
 487.158230603 579.553016961 l 1,50,-1
 484.487178476 600.12011834 l 1,51,-1
 505.20901965 600.983528389 l 1,52,-1
 553.20901965 602.983528389 l 1,53,-1
 565.206311053 603.483415531 l 1,54,-1
 570.806812909 592.861774079 l 1,55,-1
 596.136495087 544.822721673 l 1,56,-1
 900.072220995 450.724973714 l 1,57,-1
 987 546.34553062 l 1,58,-1
 987 702.512193341 l 1,59,-1
 918.562575724 726.424064474 l 1,60,-1
 458.38921551 787.912746227 l 1,61,-1
 65.4537285616 760.813747127 l 1,62,-1
 -9.1810254699 601.770640322 l 1,63,-1
 128.652412518 400.60832542 l 1,64,-1
 333.062402743 347.647555226 l 1,65,-1
 473.800087669 450.348028009 l 1,66,-1
 483.982189619 457.778210514 l 1,67,-1
 494.786403214 451.285770234 l 1,68,-1
 712.786403214 320.285770234 l 1,69,-1
 723.652709072 313.756017632 l 1,70,-1
 721.794865785 301.215575439 l 1,71,-1
 719.424495414 285.215575439 l 1,72,-1
 717.794865785 274.215575439 l 1,73,-1
 713.608579979 245.95814625 l 1,74,-1
 689.166331657 260.742725723 l 1,75,-1
 495.602354764 377.82532638 l 1,76,-1
 356.977532892 265.250806604 l 1,29,-1
EndSplineSet
EndChar

StartChar: glyph101
Encoding: 260 351 97
Width: 1024
VWidth: 0
Flags: W
LayerCount: 2
Fore
SplineSet
46 817 m 5,0,-1
 452 845 l 1,1,-1
 916 783 l 1,2,-1
 998 754 l 1,3,-1
 1006 539 l 1,4,-1
 906 429 l 1,5,-1
 583 529 l 1,6,-1
 554 584 l 1,7,-1
 506 582 l 1,8,-1
 516 505 l 1,9,-1
 925 378 l 1,10,-1
 1045 151 l 1,11,-1
 798 12 l 1,12,-1
 753 63 l 1,13,-1
 722 55 l 1,14,-1
 778 -63 l 1,15,-1
 592 -181 l 1,16,-1
 410 -157 l 1,17,-1
 424 -39 l 1,18,-1
 35 -54 l 1,19,-1
 -36 193 l 1,20,-1
 42 296 l 1,21,-1
 179 264 l 1,22,-1
 327 225 l 1,23,-1
 399 364 l 1,24,-1
 629 294 l 1,25,-1
 626 321 l 1,26,-1
 383 394 l 1,27,-1
 307 268 l 1,28,-1
 118 324 l 1,29,-1
 -31 600 l 1,30,-1
 46 817 l 5,0,-1
59.7389620265 798.902383918 m 1,31,-1
 -10.2716741888 601.599681856 l 1,32,-1
 130.968262016 339.974028215 l 1,33,-1
 298.31606381 290.38949435 l 1,34,-1
 366.730465138 403.813370234 l 1,35,-1
 374.345727545 416.438673699 l 1,36,-1
 388.466479462 412.196637115 l 1,37,-1
 631.466479462 339.196637115 l 1,38,-1
 643.49663073 335.582641055 l 1,39,-1
 644.883790959 323.098198995 l 1,40,-1
 646.439346514 309.098198995 l 1,41,-1
 647.883790959 296.098198995 l 1,42,-1
 651.06997143 267.422574754 l 1,43,-1
 623.4679293 275.823196272 l 1,44,-1
 408.597229991 341.218626496 l 1,45,-1
 343.871008638 216.261060274 l 1,46,-1
 336.872412927 202.749882443 l 1,47,-1
 322.158517034 206.627192847 l 1,48,-1
 306.681392851 210.705624219 l 1,49,-1
 174.417532028 245.558938896 l 1,50,-1
 49.6962851467 274.69090897 l 1,51,-1
 -15.1124736574 189.110112088 l 1,52,-1
 49.146975638 -34.440366447 l 1,53,-1
 423.267896267 -20.0141098675 l 1,54,-1
 445.487475642 -19.1573137476 l 1,55,-1
 442.867669486 -41.2385370577 l 1,56,-1
 431.077249736 -140.614932094 l 1,57,-1
 587.645861778 -161.261342473 l 1,58,-1
 753.628251567 -55.9606865849 l 1,59,-1
 704.834909605 46.853855406 l 1,60,-1
 694.967309152 67.6462992185 l 1,61,-1
 717.252317639 73.3972691505 l 1,62,-1
 748.252317639 81.3972691505 l 1,63,-1
 759.536478472 84.3093106558 l 1,64,-1
 767.246919252 75.5708111047 l 1,65,-1
 802.07724517 36.0964417313 l 1,66,-1
 1019.5533967 158.481806359 l 1,67,-1
 911.870479789 362.18199085 l 1,68,-1
 510.365624117 486.854647746 l 1,69,-1
 498.727662503 490.468391328 l 1,70,-1
 497.158230603 502.553016961 l 1,71,-1
 487.158230603 579.553016961 l 1,72,-1
 484.487178476 600.12011834 l 1,73,-1
 505.20901965 600.983528389 l 1,74,-1
 553.20901965 602.983528389 l 1,75,-1
 565.206311053 603.483415531 l 1,76,-1
 570.806812909 592.861774079 l 1,77,-1
 596.136495087 544.822721673 l 1,78,-1
 900.072220995 450.724973714 l 1,79,-1
 986.724793683 546.042803671 l 1,80,-1
 979.493200202 740.391878457 l 1,81,-1
 911.526487501 764.428886607 l 1,82,-1
 451.38921551 825.912746227 l 1,83,-1
 59.7389620265 798.902383918 l 1,31,-1
EndSplineSet
EndChar

